%TF.GenerationSoftware,KiCad,Pcbnew,7.0.8*%
%TF.CreationDate,2023-11-22T11:24:00+01:00*%
%TF.ProjectId,ATMegaSpin,41544d65-6761-4537-9069-6e2e6b696361,2*%
%TF.SameCoordinates,Original*%
%TF.FileFunction,Soldermask,Top*%
%TF.FilePolarity,Negative*%
%FSLAX46Y46*%
G04 Gerber Fmt 4.6, Leading zero omitted, Abs format (unit mm)*
G04 Created by KiCad (PCBNEW 7.0.8) date 2023-11-22 11:24:00*
%MOMM*%
%LPD*%
G01*
G04 APERTURE LIST*
G04 Aperture macros list*
%AMRoundRect*
0 Rectangle with rounded corners*
0 $1 Rounding radius*
0 $2 $3 $4 $5 $6 $7 $8 $9 X,Y pos of 4 corners*
0 Add a 4 corners polygon primitive as box body*
4,1,4,$2,$3,$4,$5,$6,$7,$8,$9,$2,$3,0*
0 Add four circle primitives for the rounded corners*
1,1,$1+$1,$2,$3*
1,1,$1+$1,$4,$5*
1,1,$1+$1,$6,$7*
1,1,$1+$1,$8,$9*
0 Add four rect primitives between the rounded corners*
20,1,$1+$1,$2,$3,$4,$5,0*
20,1,$1+$1,$4,$5,$6,$7,0*
20,1,$1+$1,$6,$7,$8,$9,0*
20,1,$1+$1,$8,$9,$2,$3,0*%
%AMRotRect*
0 Rectangle, with rotation*
0 The origin of the aperture is its center*
0 $1 length*
0 $2 width*
0 $3 Rotation angle, in degrees counterclockwise*
0 Add horizontal line*
21,1,$1,$2,0,0,$3*%
G04 Aperture macros list end*
%ADD10RotRect,1.295400X1.295400X225.000000*%
%ADD11C,1.295400*%
%ADD12R,1.295400X1.295400*%
%ADD13RotRect,1.320800X1.320800X315.000000*%
%ADD14C,1.320800*%
%ADD15C,2.200000*%
%ADD16R,1.320800X1.320800*%
%ADD17RoundRect,0.102000X-0.754000X-0.754000X0.754000X-0.754000X0.754000X0.754000X-0.754000X0.754000X0*%
%ADD18C,1.712000*%
%ADD19RotRect,1.320800X1.320800X135.000000*%
%ADD20RotRect,1.295400X1.295400X315.000000*%
%ADD21RotRect,1.320800X1.320800X45.000000*%
%ADD22RotRect,1.320800X1.320800X225.000000*%
%ADD23C,1.600200*%
%ADD24C,1.498600*%
%ADD25RotRect,1.295400X1.295400X45.000000*%
%ADD26RotRect,1.295400X1.295400X135.000000*%
%ADD27C,1.676400*%
%ADD28C,2.006600*%
%ADD29C,1.234000*%
%ADD30RoundRect,0.102000X0.754000X-0.754000X0.754000X0.754000X-0.754000X0.754000X-0.754000X-0.754000X0*%
G04 APERTURE END LIST*
D10*
%TO.C,R5*%
X120832600Y-46936800D03*
D11*
X115264841Y-52504559D03*
%TD*%
D12*
%TO.C,R11*%
X145242000Y-149414900D03*
D11*
X153116000Y-149414900D03*
%TD*%
D13*
%TO.C,LED2*%
X126248900Y-101862800D03*
D14*
X128044951Y-103658851D03*
%TD*%
D12*
%TO.C,R8*%
X190529000Y-78385900D03*
D11*
X190529000Y-70511900D03*
%TD*%
D15*
%TO.C,H*%
X149127000Y-131598900D03*
%TD*%
D16*
%TO.C,LED9*%
X177829000Y-88418900D03*
D14*
X177829000Y-85878900D03*
%TD*%
D12*
%TO.C,R6*%
X153159300Y-39396900D03*
D11*
X145285300Y-39396900D03*
%TD*%
D17*
%TO.C,S1*%
X145929000Y-139544900D03*
D18*
X152429000Y-139544900D03*
X145929000Y-144044900D03*
X152429000Y-144044900D03*
%TD*%
D12*
%TO.C,R9*%
X190529000Y-89815900D03*
D11*
X190529000Y-81941900D03*
%TD*%
D15*
%TO.C,h2*%
X149127000Y-63018900D03*
%TD*%
D12*
%TO.C,R1*%
X145170000Y-122100900D03*
D11*
X153044000Y-122100900D03*
%TD*%
D19*
%TO.C,LED7*%
X171987000Y-59716900D03*
D14*
X170190949Y-57920849D03*
%TD*%
D12*
%TO.C,R3*%
X107725000Y-82703900D03*
D11*
X107725000Y-90577900D03*
%TD*%
D20*
%TO.C,R2*%
X115382800Y-108957300D03*
D11*
X120950559Y-114525059D03*
%TD*%
D21*
%TO.C,LED10*%
X170209000Y-103912900D03*
D14*
X172005051Y-102116849D03*
%TD*%
D16*
%TO.C,LED3*%
X120425000Y-85370900D03*
D14*
X120425000Y-87910900D03*
%TD*%
D12*
%TO.C,R4*%
X107725000Y-70003900D03*
D11*
X107725000Y-77877900D03*
%TD*%
D22*
%TO.C,LED5*%
X127927000Y-57802900D03*
D14*
X126130949Y-59598951D03*
%TD*%
D16*
%TO.C,LED1*%
X147857000Y-109500900D03*
D14*
X150397000Y-109500900D03*
%TD*%
D16*
%TO.C,LED8*%
X177829000Y-75718900D03*
D14*
X177829000Y-73178900D03*
%TD*%
D23*
%TO.C,SW1*%
X160528000Y-147256001D03*
X160528000Y-145256000D03*
X160528000Y-143255999D03*
D24*
X162928000Y-149256000D03*
X162928000Y-141256000D03*
%TD*%
D25*
%TO.C,R10*%
X177303400Y-114779000D03*
D11*
X182871159Y-109211241D03*
%TD*%
D26*
%TO.C,R7*%
X182853100Y-52622500D03*
D11*
X177285341Y-47054741D03*
%TD*%
D16*
%TO.C,LED4*%
X120425000Y-72670900D03*
D14*
X120425000Y-75210900D03*
%TD*%
D16*
%TO.C,LED6*%
X150492300Y-52096900D03*
D14*
X147952300Y-52096900D03*
%TD*%
D27*
%TO.C,B1*%
X161065000Y-72067900D03*
D28*
X161065000Y-92057700D03*
%TD*%
D29*
%TO.C,Y1*%
X139967000Y-151598900D03*
X135087000Y-151598900D03*
%TD*%
D30*
%TO.C,X1*%
X165689000Y-164654900D03*
D18*
X163149000Y-164654900D03*
X160609000Y-164654900D03*
X158069000Y-164654900D03*
X155529000Y-164654900D03*
X152989000Y-164654900D03*
X150449000Y-164654900D03*
X147909000Y-164654900D03*
X145369000Y-164654900D03*
X142829000Y-164654900D03*
X140289000Y-164654900D03*
X137749000Y-164654900D03*
X135209000Y-164654900D03*
X132669000Y-164654900D03*
X132669000Y-157034900D03*
X135209000Y-157034900D03*
X137749000Y-157034900D03*
X140289000Y-157034900D03*
X142829000Y-157034900D03*
X145369000Y-157034900D03*
X147909000Y-157034900D03*
X150449000Y-157034900D03*
X152989000Y-157034900D03*
X155529000Y-157034900D03*
X158069000Y-157034900D03*
X160609000Y-157034900D03*
X163149000Y-157034900D03*
X165689000Y-157034900D03*
%TD*%
D16*
%TO.C,C1*%
X134527000Y-139598900D03*
D14*
X132027000Y-139598900D03*
%TD*%
D16*
%TO.C,C2*%
X134527000Y-144598900D03*
D14*
X132027000Y-144598900D03*
%TD*%
D27*
%TO.C,B2*%
X137189000Y-72067900D03*
D28*
X137189000Y-92057700D03*
%TD*%
M02*
