%TF.GenerationSoftware,KiCad,Pcbnew,7.0.8*%
%TF.CreationDate,2023-11-22T10:03:04+01:00*%
%TF.ProjectId,ATMegaSpin,41544d65-6761-4537-9069-6e2e6b696361,2*%
%TF.SameCoordinates,Original*%
%TF.FileFunction,Drillmap*%
%TF.FilePolarity,Positive*%
%FSLAX45Y45*%
G04 Gerber Fmt 4.5, Leading zero omitted, Abs format (unit mm)*
G04 Created by KiCad (PCBNEW 7.0.8) date 2023-11-22 10:03:04*
%MOMM*%
%LPD*%
G01*
G04 APERTURE LIST*
%ADD10C,0.200000*%
%ADD11C,0.063000*%
%ADD12C,0.078740*%
%ADD13C,0.081280*%
%ADD14C,0.100000*%
%ADD15C,0.109220*%
%ADD16C,0.116840*%
%ADD17C,0.149860*%
G04 APERTURE END LIST*
D10*
X12626700Y-16969890D02*
X17198700Y-16969890D01*
X17452700Y-12397890D02*
X17452700Y-16715890D01*
X12372700Y-16715890D02*
G75*
G03*
X12626700Y-16969890I254000J0D01*
G01*
X17198700Y-16969890D02*
G75*
G03*
X17452700Y-16715890I0J254000D01*
G01*
X12372700Y-16715890D02*
X12372700Y-12397890D01*
X17452700Y-12397890D02*
G75*
G03*
X12372700Y-12397890I-2540000J4318000D01*
G01*
D11*
X13477200Y-15128390D02*
X13540200Y-15191390D01*
X13540200Y-15128390D02*
X13477200Y-15191390D01*
X13965200Y-15128390D02*
X14028200Y-15191390D01*
X14028200Y-15128390D02*
X13965200Y-15191390D01*
D12*
X10811870Y-7000390D02*
G75*
G03*
X10811870Y-7000390I-39370J0D01*
G01*
X10811870Y-7787790D02*
G75*
G03*
X10811870Y-7787790I-39370J0D01*
G01*
X10811870Y-8270390D02*
G75*
G03*
X10811870Y-8270390I-39370J0D01*
G01*
X10811870Y-9057790D02*
G75*
G03*
X10811870Y-9057790I-39370J0D01*
G01*
X11565854Y-5250456D02*
G75*
G03*
X11565854Y-5250456I-39370J0D01*
G01*
X11577650Y-10895730D02*
G75*
G03*
X11577650Y-10895730I-39370J0D01*
G01*
X12122630Y-4693680D02*
G75*
G03*
X12122630Y-4693680I-39370J0D01*
G01*
X12134426Y-11452506D02*
G75*
G03*
X12134426Y-11452506I-39370J0D01*
G01*
X14556370Y-12210090D02*
G75*
G03*
X14556370Y-12210090I-39370J0D01*
G01*
X14563570Y-14941490D02*
G75*
G03*
X14563570Y-14941490I-39370J0D01*
G01*
X14567900Y-3939690D02*
G75*
G03*
X14567900Y-3939690I-39370J0D01*
G01*
X15343770Y-12210090D02*
G75*
G03*
X15343770Y-12210090I-39370J0D01*
G01*
X15350970Y-14941490D02*
G75*
G03*
X15350970Y-14941490I-39370J0D01*
G01*
X15355300Y-3939690D02*
G75*
G03*
X15355300Y-3939690I-39370J0D01*
G01*
X17767904Y-4705474D02*
G75*
G03*
X17767904Y-4705474I-39370J0D01*
G01*
X17769710Y-11477900D02*
G75*
G03*
X17769710Y-11477900I-39370J0D01*
G01*
X18324680Y-5262250D02*
G75*
G03*
X18324680Y-5262250I-39370J0D01*
G01*
X18326486Y-10921124D02*
G75*
G03*
X18326486Y-10921124I-39370J0D01*
G01*
X19092270Y-7051190D02*
G75*
G03*
X19092270Y-7051190I-39370J0D01*
G01*
X19092270Y-7838590D02*
G75*
G03*
X19092270Y-7838590I-39370J0D01*
G01*
X19092270Y-8194190D02*
G75*
G03*
X19092270Y-8194190I-39370J0D01*
G01*
X19092270Y-8981590D02*
G75*
G03*
X19092270Y-8981590I-39370J0D01*
G01*
D13*
X12042500Y-7226450D02*
X12042500Y-7307730D01*
X12001860Y-7267090D02*
X12083140Y-7267090D01*
X12042500Y-7480450D02*
X12042500Y-7561730D01*
X12001860Y-7521090D02*
X12083140Y-7521090D01*
X12042500Y-8496450D02*
X12042500Y-8577730D01*
X12001860Y-8537090D02*
X12083140Y-8537090D01*
X12042500Y-8750450D02*
X12042500Y-8831730D01*
X12001860Y-8791090D02*
X12083140Y-8791090D01*
X12613095Y-5919255D02*
X12613095Y-6000535D01*
X12572455Y-5959895D02*
X12653735Y-5959895D01*
X12624890Y-10145640D02*
X12624890Y-10226920D01*
X12584250Y-10186280D02*
X12665530Y-10186280D01*
X12792700Y-5739650D02*
X12792700Y-5820930D01*
X12752060Y-5780290D02*
X12833340Y-5780290D01*
X12804495Y-10325245D02*
X12804495Y-10406525D01*
X12763855Y-10365885D02*
X12845135Y-10365885D01*
X13202700Y-13919250D02*
X13202700Y-14000530D01*
X13162060Y-13959890D02*
X13243340Y-13959890D01*
X13202700Y-14419250D02*
X13202700Y-14500530D01*
X13162060Y-14459890D02*
X13243340Y-14459890D01*
X13452700Y-13919250D02*
X13452700Y-14000530D01*
X13412060Y-13959890D02*
X13493340Y-13959890D01*
X13452700Y-14419250D02*
X13452700Y-14500530D01*
X13412060Y-14459890D02*
X13493340Y-14459890D01*
X14785700Y-10909450D02*
X14785700Y-10990730D01*
X14745060Y-10950090D02*
X14826340Y-10950090D01*
X14795230Y-5169050D02*
X14795230Y-5250330D01*
X14754590Y-5209690D02*
X14835870Y-5209690D01*
X15039700Y-10909450D02*
X15039700Y-10990730D01*
X14999060Y-10950090D02*
X15080340Y-10950090D01*
X15049230Y-5169050D02*
X15049230Y-5250330D01*
X15008590Y-5209690D02*
X15089870Y-5209690D01*
X17019095Y-5751445D02*
X17019095Y-5832725D01*
X16978455Y-5792085D02*
X17059735Y-5792085D01*
X17020900Y-10350650D02*
X17020900Y-10431930D01*
X16980260Y-10391290D02*
X17061540Y-10391290D01*
X17198700Y-5931050D02*
X17198700Y-6012330D01*
X17158060Y-5971690D02*
X17239340Y-5971690D01*
X17200505Y-10171045D02*
X17200505Y-10252325D01*
X17159865Y-10211685D02*
X17241145Y-10211685D01*
X17782900Y-7277250D02*
X17782900Y-7358530D01*
X17742260Y-7317890D02*
X17823540Y-7317890D01*
X17782900Y-7531250D02*
X17782900Y-7612530D01*
X17742260Y-7571890D02*
X17823540Y-7571890D01*
X17782900Y-8547250D02*
X17782900Y-8628530D01*
X17742260Y-8587890D02*
X17823540Y-8587890D01*
X17782900Y-8801250D02*
X17782900Y-8882530D01*
X17742260Y-8841890D02*
X17823540Y-8841890D01*
D14*
X13302256Y-15738846D02*
X13302256Y-15668134D01*
X13231544Y-15668134D01*
X13231544Y-15738846D01*
X13302256Y-15738846D01*
X13302256Y-16500846D02*
X13302256Y-16430134D01*
X13231544Y-16430134D01*
X13231544Y-16500846D01*
X13302256Y-16500846D01*
X13556256Y-15738846D02*
X13556256Y-15668134D01*
X13485544Y-15668134D01*
X13485544Y-15738846D01*
X13556256Y-15738846D01*
X13556256Y-16500846D02*
X13556256Y-16430134D01*
X13485544Y-16430134D01*
X13485544Y-16500846D01*
X13556256Y-16500846D01*
X13810256Y-15738846D02*
X13810256Y-15668134D01*
X13739544Y-15668134D01*
X13739544Y-15738846D01*
X13810256Y-15738846D01*
X13810256Y-16500846D02*
X13810256Y-16430134D01*
X13739544Y-16430134D01*
X13739544Y-16500846D01*
X13810256Y-16500846D01*
X14064256Y-15738846D02*
X14064256Y-15668134D01*
X13993544Y-15668134D01*
X13993544Y-15738846D01*
X14064256Y-15738846D01*
X14064256Y-16500846D02*
X14064256Y-16430134D01*
X13993544Y-16430134D01*
X13993544Y-16500846D01*
X14064256Y-16500846D01*
X14318256Y-15738846D02*
X14318256Y-15668134D01*
X14247544Y-15668134D01*
X14247544Y-15738846D01*
X14318256Y-15738846D01*
X14318256Y-16500846D02*
X14318256Y-16430134D01*
X14247544Y-16430134D01*
X14247544Y-16500846D01*
X14318256Y-16500846D01*
X14572256Y-15738846D02*
X14572256Y-15668134D01*
X14501544Y-15668134D01*
X14501544Y-15738846D01*
X14572256Y-15738846D01*
X14572256Y-16500846D02*
X14572256Y-16430134D01*
X14501544Y-16430134D01*
X14501544Y-16500846D01*
X14572256Y-16500846D01*
X14628256Y-13989846D02*
X14628256Y-13919134D01*
X14557544Y-13919134D01*
X14557544Y-13989846D01*
X14628256Y-13989846D01*
X14628256Y-14439846D02*
X14628256Y-14369134D01*
X14557544Y-14369134D01*
X14557544Y-14439846D01*
X14628256Y-14439846D01*
X14826256Y-15738846D02*
X14826256Y-15668134D01*
X14755544Y-15668134D01*
X14755544Y-15738846D01*
X14826256Y-15738846D01*
X14826256Y-16500846D02*
X14826256Y-16430134D01*
X14755544Y-16430134D01*
X14755544Y-16500846D01*
X14826256Y-16500846D01*
X15080256Y-15738846D02*
X15080256Y-15668134D01*
X15009544Y-15668134D01*
X15009544Y-15738846D01*
X15080256Y-15738846D01*
X15080256Y-16500846D02*
X15080256Y-16430134D01*
X15009544Y-16430134D01*
X15009544Y-16500846D01*
X15080256Y-16500846D01*
X15278256Y-13989846D02*
X15278256Y-13919134D01*
X15207544Y-13919134D01*
X15207544Y-13989846D01*
X15278256Y-13989846D01*
X15278256Y-14439846D02*
X15278256Y-14369134D01*
X15207544Y-14369134D01*
X15207544Y-14439846D01*
X15278256Y-14439846D01*
X15334256Y-15738846D02*
X15334256Y-15668134D01*
X15263544Y-15668134D01*
X15263544Y-15738846D01*
X15334256Y-15738846D01*
X15334256Y-16500846D02*
X15334256Y-16430134D01*
X15263544Y-16430134D01*
X15263544Y-16500846D01*
X15334256Y-16500846D01*
X15588256Y-15738846D02*
X15588256Y-15668134D01*
X15517544Y-15668134D01*
X15517544Y-15738846D01*
X15588256Y-15738846D01*
X15588256Y-16500846D02*
X15588256Y-16430134D01*
X15517544Y-16430134D01*
X15517544Y-16500846D01*
X15588256Y-16500846D01*
X15842256Y-15738846D02*
X15842256Y-15668134D01*
X15771544Y-15668134D01*
X15771544Y-15738846D01*
X15842256Y-15738846D01*
X15842256Y-16500846D02*
X15842256Y-16430134D01*
X15771544Y-16430134D01*
X15771544Y-16500846D01*
X15842256Y-16500846D01*
X16096256Y-15738846D02*
X16096256Y-15668134D01*
X16025544Y-15668134D01*
X16025544Y-15738846D01*
X16096256Y-15738846D01*
X16096256Y-16500846D02*
X16096256Y-16430134D01*
X16025544Y-16430134D01*
X16025544Y-16500846D01*
X16096256Y-16500846D01*
X16350256Y-15738846D02*
X16350256Y-15668134D01*
X16279544Y-15668134D01*
X16279544Y-15738846D01*
X16350256Y-15738846D01*
X16350256Y-16500846D02*
X16350256Y-16430134D01*
X16279544Y-16430134D01*
X16279544Y-16500846D01*
X16350256Y-16500846D01*
X16604256Y-15738846D02*
X16604256Y-15668134D01*
X16533544Y-15668134D01*
X16533544Y-15738846D01*
X16604256Y-15738846D01*
X16604256Y-16500846D02*
X16604256Y-16430134D01*
X16533544Y-16430134D01*
X16533544Y-16500846D01*
X16604256Y-16500846D01*
D15*
X16052800Y-14380210D02*
X16107410Y-14325600D01*
X16052800Y-14270990D01*
X15998190Y-14325600D01*
X16052800Y-14380210D01*
X16052800Y-14580210D02*
X16107410Y-14525600D01*
X16052800Y-14470990D01*
X15998190Y-14525600D01*
X16052800Y-14580210D01*
X16052800Y-14780210D02*
X16107410Y-14725600D01*
X16052800Y-14670990D01*
X15998190Y-14725600D01*
X16052800Y-14780210D01*
D16*
X13660480Y-7148370D02*
X13777320Y-7265210D01*
X13777320Y-7148370D02*
X13660480Y-7265210D01*
X13777320Y-7206790D02*
G75*
G03*
X13777320Y-7206790I-58420J0D01*
G01*
X16048080Y-7148370D02*
X16164920Y-7265210D01*
X16164920Y-7148370D02*
X16048080Y-7265210D01*
X16164920Y-7206790D02*
G75*
G03*
X16164920Y-7206790I-58420J0D01*
G01*
D17*
X13643970Y-9130840D02*
X13793830Y-9280700D01*
X13793830Y-9130840D02*
X13643970Y-9280700D01*
X13718900Y-9130840D02*
X13718900Y-9280700D01*
X13643970Y-9205770D02*
X13793830Y-9205770D01*
X16031570Y-9130840D02*
X16181430Y-9280700D01*
X16181430Y-9130840D02*
X16031570Y-9280700D01*
X16106500Y-9130840D02*
X16106500Y-9280700D01*
X16031570Y-9205770D02*
X16181430Y-9205770D01*
X16217870Y-14050670D02*
X16367730Y-14200530D01*
X16367730Y-14050670D02*
X16217870Y-14200530D01*
X16292800Y-14050670D02*
X16292800Y-14200530D01*
X16217870Y-14125600D02*
X16367730Y-14125600D01*
X16217870Y-14850670D02*
X16367730Y-15000530D01*
X16367730Y-14850670D02*
X16217870Y-15000530D01*
X16292800Y-14850670D02*
X16292800Y-15000530D01*
X16217870Y-14925600D02*
X16367730Y-14925600D01*
D10*
X10153814Y-17291374D02*
X10153814Y-17091374D01*
X10153814Y-17091374D02*
X10201433Y-17091374D01*
X10201433Y-17091374D02*
X10230004Y-17100898D01*
X10230004Y-17100898D02*
X10249052Y-17119945D01*
X10249052Y-17119945D02*
X10258576Y-17138993D01*
X10258576Y-17138993D02*
X10268100Y-17177088D01*
X10268100Y-17177088D02*
X10268100Y-17205660D01*
X10268100Y-17205660D02*
X10258576Y-17243755D01*
X10258576Y-17243755D02*
X10249052Y-17262802D01*
X10249052Y-17262802D02*
X10230004Y-17281850D01*
X10230004Y-17281850D02*
X10201433Y-17291374D01*
X10201433Y-17291374D02*
X10153814Y-17291374D01*
X10353814Y-17291374D02*
X10353814Y-17158040D01*
X10353814Y-17196136D02*
X10363338Y-17177088D01*
X10363338Y-17177088D02*
X10372862Y-17167564D01*
X10372862Y-17167564D02*
X10391909Y-17158040D01*
X10391909Y-17158040D02*
X10410957Y-17158040D01*
X10477623Y-17291374D02*
X10477623Y-17158040D01*
X10477623Y-17091374D02*
X10468100Y-17100898D01*
X10468100Y-17100898D02*
X10477623Y-17110421D01*
X10477623Y-17110421D02*
X10487147Y-17100898D01*
X10487147Y-17100898D02*
X10477623Y-17091374D01*
X10477623Y-17091374D02*
X10477623Y-17110421D01*
X10601433Y-17291374D02*
X10582385Y-17281850D01*
X10582385Y-17281850D02*
X10572862Y-17262802D01*
X10572862Y-17262802D02*
X10572862Y-17091374D01*
X10706195Y-17291374D02*
X10687147Y-17281850D01*
X10687147Y-17281850D02*
X10677623Y-17262802D01*
X10677623Y-17262802D02*
X10677623Y-17091374D01*
X10934766Y-17291374D02*
X10934766Y-17091374D01*
X10934766Y-17091374D02*
X11001433Y-17234231D01*
X11001433Y-17234231D02*
X11068100Y-17091374D01*
X11068100Y-17091374D02*
X11068100Y-17291374D01*
X11249052Y-17291374D02*
X11249052Y-17186612D01*
X11249052Y-17186612D02*
X11239528Y-17167564D01*
X11239528Y-17167564D02*
X11220481Y-17158040D01*
X11220481Y-17158040D02*
X11182385Y-17158040D01*
X11182385Y-17158040D02*
X11163338Y-17167564D01*
X11249052Y-17281850D02*
X11230004Y-17291374D01*
X11230004Y-17291374D02*
X11182385Y-17291374D01*
X11182385Y-17291374D02*
X11163338Y-17281850D01*
X11163338Y-17281850D02*
X11153814Y-17262802D01*
X11153814Y-17262802D02*
X11153814Y-17243755D01*
X11153814Y-17243755D02*
X11163338Y-17224707D01*
X11163338Y-17224707D02*
X11182385Y-17215183D01*
X11182385Y-17215183D02*
X11230004Y-17215183D01*
X11230004Y-17215183D02*
X11249052Y-17205660D01*
X11344290Y-17158040D02*
X11344290Y-17358040D01*
X11344290Y-17167564D02*
X11363338Y-17158040D01*
X11363338Y-17158040D02*
X11401433Y-17158040D01*
X11401433Y-17158040D02*
X11420481Y-17167564D01*
X11420481Y-17167564D02*
X11430004Y-17177088D01*
X11430004Y-17177088D02*
X11439528Y-17196136D01*
X11439528Y-17196136D02*
X11439528Y-17253279D01*
X11439528Y-17253279D02*
X11430004Y-17272326D01*
X11430004Y-17272326D02*
X11420481Y-17281850D01*
X11420481Y-17281850D02*
X11401433Y-17291374D01*
X11401433Y-17291374D02*
X11363338Y-17291374D01*
X11363338Y-17291374D02*
X11344290Y-17281850D01*
X11525242Y-17272326D02*
X11534766Y-17281850D01*
X11534766Y-17281850D02*
X11525242Y-17291374D01*
X11525242Y-17291374D02*
X11515719Y-17281850D01*
X11515719Y-17281850D02*
X11525242Y-17272326D01*
X11525242Y-17272326D02*
X11525242Y-17291374D01*
X11525242Y-17167564D02*
X11534766Y-17177088D01*
X11534766Y-17177088D02*
X11525242Y-17186612D01*
X11525242Y-17186612D02*
X11515719Y-17177088D01*
X11515719Y-17177088D02*
X11525242Y-17167564D01*
X11525242Y-17167564D02*
X11525242Y-17186612D01*
D11*
X9830037Y-17588390D02*
X9893037Y-17651390D01*
X9893037Y-17588390D02*
X9830037Y-17651390D01*
D10*
X10191909Y-17511374D02*
X10210957Y-17511374D01*
X10210957Y-17511374D02*
X10230004Y-17520898D01*
X10230004Y-17520898D02*
X10239528Y-17530421D01*
X10239528Y-17530421D02*
X10249052Y-17549469D01*
X10249052Y-17549469D02*
X10258576Y-17587564D01*
X10258576Y-17587564D02*
X10258576Y-17635183D01*
X10258576Y-17635183D02*
X10249052Y-17673279D01*
X10249052Y-17673279D02*
X10239528Y-17692326D01*
X10239528Y-17692326D02*
X10230004Y-17701850D01*
X10230004Y-17701850D02*
X10210957Y-17711374D01*
X10210957Y-17711374D02*
X10191909Y-17711374D01*
X10191909Y-17711374D02*
X10172862Y-17701850D01*
X10172862Y-17701850D02*
X10163338Y-17692326D01*
X10163338Y-17692326D02*
X10153814Y-17673279D01*
X10153814Y-17673279D02*
X10144290Y-17635183D01*
X10144290Y-17635183D02*
X10144290Y-17587564D01*
X10144290Y-17587564D02*
X10153814Y-17549469D01*
X10153814Y-17549469D02*
X10163338Y-17530421D01*
X10163338Y-17530421D02*
X10172862Y-17520898D01*
X10172862Y-17520898D02*
X10191909Y-17511374D01*
X10344290Y-17692326D02*
X10353814Y-17701850D01*
X10353814Y-17701850D02*
X10344290Y-17711374D01*
X10344290Y-17711374D02*
X10334766Y-17701850D01*
X10334766Y-17701850D02*
X10344290Y-17692326D01*
X10344290Y-17692326D02*
X10344290Y-17711374D01*
X10525243Y-17511374D02*
X10487147Y-17511374D01*
X10487147Y-17511374D02*
X10468100Y-17520898D01*
X10468100Y-17520898D02*
X10458576Y-17530421D01*
X10458576Y-17530421D02*
X10439528Y-17558993D01*
X10439528Y-17558993D02*
X10430004Y-17597088D01*
X10430004Y-17597088D02*
X10430004Y-17673279D01*
X10430004Y-17673279D02*
X10439528Y-17692326D01*
X10439528Y-17692326D02*
X10449052Y-17701850D01*
X10449052Y-17701850D02*
X10468100Y-17711374D01*
X10468100Y-17711374D02*
X10506195Y-17711374D01*
X10506195Y-17711374D02*
X10525243Y-17701850D01*
X10525243Y-17701850D02*
X10534766Y-17692326D01*
X10534766Y-17692326D02*
X10544290Y-17673279D01*
X10544290Y-17673279D02*
X10544290Y-17625660D01*
X10544290Y-17625660D02*
X10534766Y-17606612D01*
X10534766Y-17606612D02*
X10525243Y-17597088D01*
X10525243Y-17597088D02*
X10506195Y-17587564D01*
X10506195Y-17587564D02*
X10468100Y-17587564D01*
X10468100Y-17587564D02*
X10449052Y-17597088D01*
X10449052Y-17597088D02*
X10439528Y-17606612D01*
X10439528Y-17606612D02*
X10430004Y-17625660D01*
X10610957Y-17511374D02*
X10734766Y-17511374D01*
X10734766Y-17511374D02*
X10668100Y-17587564D01*
X10668100Y-17587564D02*
X10696671Y-17587564D01*
X10696671Y-17587564D02*
X10715719Y-17597088D01*
X10715719Y-17597088D02*
X10725243Y-17606612D01*
X10725243Y-17606612D02*
X10734766Y-17625660D01*
X10734766Y-17625660D02*
X10734766Y-17673279D01*
X10734766Y-17673279D02*
X10725243Y-17692326D01*
X10725243Y-17692326D02*
X10715719Y-17701850D01*
X10715719Y-17701850D02*
X10696671Y-17711374D01*
X10696671Y-17711374D02*
X10639528Y-17711374D01*
X10639528Y-17711374D02*
X10620481Y-17701850D01*
X10620481Y-17701850D02*
X10610957Y-17692326D01*
X10858576Y-17511374D02*
X10877624Y-17511374D01*
X10877624Y-17511374D02*
X10896671Y-17520898D01*
X10896671Y-17520898D02*
X10906195Y-17530421D01*
X10906195Y-17530421D02*
X10915719Y-17549469D01*
X10915719Y-17549469D02*
X10925243Y-17587564D01*
X10925243Y-17587564D02*
X10925243Y-17635183D01*
X10925243Y-17635183D02*
X10915719Y-17673279D01*
X10915719Y-17673279D02*
X10906195Y-17692326D01*
X10906195Y-17692326D02*
X10896671Y-17701850D01*
X10896671Y-17701850D02*
X10877624Y-17711374D01*
X10877624Y-17711374D02*
X10858576Y-17711374D01*
X10858576Y-17711374D02*
X10839528Y-17701850D01*
X10839528Y-17701850D02*
X10830004Y-17692326D01*
X10830004Y-17692326D02*
X10820481Y-17673279D01*
X10820481Y-17673279D02*
X10810957Y-17635183D01*
X10810957Y-17635183D02*
X10810957Y-17587564D01*
X10810957Y-17587564D02*
X10820481Y-17549469D01*
X10820481Y-17549469D02*
X10830004Y-17530421D01*
X10830004Y-17530421D02*
X10839528Y-17520898D01*
X10839528Y-17520898D02*
X10858576Y-17511374D01*
X11010957Y-17711374D02*
X11010957Y-17578040D01*
X11010957Y-17597088D02*
X11020481Y-17587564D01*
X11020481Y-17587564D02*
X11039528Y-17578040D01*
X11039528Y-17578040D02*
X11068100Y-17578040D01*
X11068100Y-17578040D02*
X11087147Y-17587564D01*
X11087147Y-17587564D02*
X11096671Y-17606612D01*
X11096671Y-17606612D02*
X11096671Y-17711374D01*
X11096671Y-17606612D02*
X11106195Y-17587564D01*
X11106195Y-17587564D02*
X11125243Y-17578040D01*
X11125243Y-17578040D02*
X11153814Y-17578040D01*
X11153814Y-17578040D02*
X11172862Y-17587564D01*
X11172862Y-17587564D02*
X11182385Y-17606612D01*
X11182385Y-17606612D02*
X11182385Y-17711374D01*
X11277623Y-17711374D02*
X11277623Y-17578040D01*
X11277623Y-17597088D02*
X11287147Y-17587564D01*
X11287147Y-17587564D02*
X11306195Y-17578040D01*
X11306195Y-17578040D02*
X11334766Y-17578040D01*
X11334766Y-17578040D02*
X11353814Y-17587564D01*
X11353814Y-17587564D02*
X11363338Y-17606612D01*
X11363338Y-17606612D02*
X11363338Y-17711374D01*
X11363338Y-17606612D02*
X11372862Y-17587564D01*
X11372862Y-17587564D02*
X11391909Y-17578040D01*
X11391909Y-17578040D02*
X11420481Y-17578040D01*
X11420481Y-17578040D02*
X11439528Y-17587564D01*
X11439528Y-17587564D02*
X11449052Y-17606612D01*
X11449052Y-17606612D02*
X11449052Y-17711374D01*
X11839528Y-17501850D02*
X11668100Y-17758993D01*
X12096671Y-17511374D02*
X12115719Y-17511374D01*
X12115719Y-17511374D02*
X12134766Y-17520898D01*
X12134766Y-17520898D02*
X12144290Y-17530421D01*
X12144290Y-17530421D02*
X12153814Y-17549469D01*
X12153814Y-17549469D02*
X12163338Y-17587564D01*
X12163338Y-17587564D02*
X12163338Y-17635183D01*
X12163338Y-17635183D02*
X12153814Y-17673279D01*
X12153814Y-17673279D02*
X12144290Y-17692326D01*
X12144290Y-17692326D02*
X12134766Y-17701850D01*
X12134766Y-17701850D02*
X12115719Y-17711374D01*
X12115719Y-17711374D02*
X12096671Y-17711374D01*
X12096671Y-17711374D02*
X12077624Y-17701850D01*
X12077624Y-17701850D02*
X12068100Y-17692326D01*
X12068100Y-17692326D02*
X12058576Y-17673279D01*
X12058576Y-17673279D02*
X12049052Y-17635183D01*
X12049052Y-17635183D02*
X12049052Y-17587564D01*
X12049052Y-17587564D02*
X12058576Y-17549469D01*
X12058576Y-17549469D02*
X12068100Y-17530421D01*
X12068100Y-17530421D02*
X12077624Y-17520898D01*
X12077624Y-17520898D02*
X12096671Y-17511374D01*
X12249052Y-17692326D02*
X12258576Y-17701850D01*
X12258576Y-17701850D02*
X12249052Y-17711374D01*
X12249052Y-17711374D02*
X12239528Y-17701850D01*
X12239528Y-17701850D02*
X12249052Y-17692326D01*
X12249052Y-17692326D02*
X12249052Y-17711374D01*
X12382385Y-17511374D02*
X12401433Y-17511374D01*
X12401433Y-17511374D02*
X12420481Y-17520898D01*
X12420481Y-17520898D02*
X12430005Y-17530421D01*
X12430005Y-17530421D02*
X12439528Y-17549469D01*
X12439528Y-17549469D02*
X12449052Y-17587564D01*
X12449052Y-17587564D02*
X12449052Y-17635183D01*
X12449052Y-17635183D02*
X12439528Y-17673279D01*
X12439528Y-17673279D02*
X12430005Y-17692326D01*
X12430005Y-17692326D02*
X12420481Y-17701850D01*
X12420481Y-17701850D02*
X12401433Y-17711374D01*
X12401433Y-17711374D02*
X12382385Y-17711374D01*
X12382385Y-17711374D02*
X12363338Y-17701850D01*
X12363338Y-17701850D02*
X12353814Y-17692326D01*
X12353814Y-17692326D02*
X12344290Y-17673279D01*
X12344290Y-17673279D02*
X12334766Y-17635183D01*
X12334766Y-17635183D02*
X12334766Y-17587564D01*
X12334766Y-17587564D02*
X12344290Y-17549469D01*
X12344290Y-17549469D02*
X12353814Y-17530421D01*
X12353814Y-17530421D02*
X12363338Y-17520898D01*
X12363338Y-17520898D02*
X12382385Y-17511374D01*
X12525243Y-17530421D02*
X12534766Y-17520898D01*
X12534766Y-17520898D02*
X12553814Y-17511374D01*
X12553814Y-17511374D02*
X12601433Y-17511374D01*
X12601433Y-17511374D02*
X12620481Y-17520898D01*
X12620481Y-17520898D02*
X12630005Y-17530421D01*
X12630005Y-17530421D02*
X12639528Y-17549469D01*
X12639528Y-17549469D02*
X12639528Y-17568517D01*
X12639528Y-17568517D02*
X12630005Y-17597088D01*
X12630005Y-17597088D02*
X12515719Y-17711374D01*
X12515719Y-17711374D02*
X12639528Y-17711374D01*
X12810957Y-17578040D02*
X12810957Y-17711374D01*
X12763338Y-17501850D02*
X12715719Y-17644707D01*
X12715719Y-17644707D02*
X12839528Y-17644707D01*
X12944290Y-17597088D02*
X12925243Y-17587564D01*
X12925243Y-17587564D02*
X12915719Y-17578040D01*
X12915719Y-17578040D02*
X12906195Y-17558993D01*
X12906195Y-17558993D02*
X12906195Y-17549469D01*
X12906195Y-17549469D02*
X12915719Y-17530421D01*
X12915719Y-17530421D02*
X12925243Y-17520898D01*
X12925243Y-17520898D02*
X12944290Y-17511374D01*
X12944290Y-17511374D02*
X12982386Y-17511374D01*
X12982386Y-17511374D02*
X13001433Y-17520898D01*
X13001433Y-17520898D02*
X13010957Y-17530421D01*
X13010957Y-17530421D02*
X13020481Y-17549469D01*
X13020481Y-17549469D02*
X13020481Y-17558993D01*
X13020481Y-17558993D02*
X13010957Y-17578040D01*
X13010957Y-17578040D02*
X13001433Y-17587564D01*
X13001433Y-17587564D02*
X12982386Y-17597088D01*
X12982386Y-17597088D02*
X12944290Y-17597088D01*
X12944290Y-17597088D02*
X12925243Y-17606612D01*
X12925243Y-17606612D02*
X12915719Y-17616136D01*
X12915719Y-17616136D02*
X12906195Y-17635183D01*
X12906195Y-17635183D02*
X12906195Y-17673279D01*
X12906195Y-17673279D02*
X12915719Y-17692326D01*
X12915719Y-17692326D02*
X12925243Y-17701850D01*
X12925243Y-17701850D02*
X12944290Y-17711374D01*
X12944290Y-17711374D02*
X12982386Y-17711374D01*
X12982386Y-17711374D02*
X13001433Y-17701850D01*
X13001433Y-17701850D02*
X13010957Y-17692326D01*
X13010957Y-17692326D02*
X13020481Y-17673279D01*
X13020481Y-17673279D02*
X13020481Y-17635183D01*
X13020481Y-17635183D02*
X13010957Y-17616136D01*
X13010957Y-17616136D02*
X13001433Y-17606612D01*
X13001433Y-17606612D02*
X12982386Y-17597088D01*
X13096671Y-17511374D02*
X13096671Y-17549469D01*
X13172862Y-17511374D02*
X13172862Y-17549469D01*
X13468100Y-17787564D02*
X13458576Y-17778040D01*
X13458576Y-17778040D02*
X13439528Y-17749469D01*
X13439528Y-17749469D02*
X13430005Y-17730421D01*
X13430005Y-17730421D02*
X13420481Y-17701850D01*
X13420481Y-17701850D02*
X13410957Y-17654231D01*
X13410957Y-17654231D02*
X13410957Y-17616136D01*
X13410957Y-17616136D02*
X13420481Y-17568517D01*
X13420481Y-17568517D02*
X13430005Y-17539945D01*
X13430005Y-17539945D02*
X13439528Y-17520898D01*
X13439528Y-17520898D02*
X13458576Y-17492326D01*
X13458576Y-17492326D02*
X13468100Y-17482802D01*
X13534767Y-17530421D02*
X13544290Y-17520898D01*
X13544290Y-17520898D02*
X13563338Y-17511374D01*
X13563338Y-17511374D02*
X13610957Y-17511374D01*
X13610957Y-17511374D02*
X13630005Y-17520898D01*
X13630005Y-17520898D02*
X13639528Y-17530421D01*
X13639528Y-17530421D02*
X13649052Y-17549469D01*
X13649052Y-17549469D02*
X13649052Y-17568517D01*
X13649052Y-17568517D02*
X13639528Y-17597088D01*
X13639528Y-17597088D02*
X13525243Y-17711374D01*
X13525243Y-17711374D02*
X13649052Y-17711374D01*
X13887148Y-17711374D02*
X13887148Y-17511374D01*
X13972862Y-17711374D02*
X13972862Y-17606612D01*
X13972862Y-17606612D02*
X13963338Y-17587564D01*
X13963338Y-17587564D02*
X13944290Y-17578040D01*
X13944290Y-17578040D02*
X13915719Y-17578040D01*
X13915719Y-17578040D02*
X13896671Y-17587564D01*
X13896671Y-17587564D02*
X13887148Y-17597088D01*
X14096671Y-17711374D02*
X14077624Y-17701850D01*
X14077624Y-17701850D02*
X14068100Y-17692326D01*
X14068100Y-17692326D02*
X14058576Y-17673279D01*
X14058576Y-17673279D02*
X14058576Y-17616136D01*
X14058576Y-17616136D02*
X14068100Y-17597088D01*
X14068100Y-17597088D02*
X14077624Y-17587564D01*
X14077624Y-17587564D02*
X14096671Y-17578040D01*
X14096671Y-17578040D02*
X14125243Y-17578040D01*
X14125243Y-17578040D02*
X14144290Y-17587564D01*
X14144290Y-17587564D02*
X14153814Y-17597088D01*
X14153814Y-17597088D02*
X14163338Y-17616136D01*
X14163338Y-17616136D02*
X14163338Y-17673279D01*
X14163338Y-17673279D02*
X14153814Y-17692326D01*
X14153814Y-17692326D02*
X14144290Y-17701850D01*
X14144290Y-17701850D02*
X14125243Y-17711374D01*
X14125243Y-17711374D02*
X14096671Y-17711374D01*
X14277624Y-17711374D02*
X14258576Y-17701850D01*
X14258576Y-17701850D02*
X14249052Y-17682802D01*
X14249052Y-17682802D02*
X14249052Y-17511374D01*
X14430005Y-17701850D02*
X14410957Y-17711374D01*
X14410957Y-17711374D02*
X14372862Y-17711374D01*
X14372862Y-17711374D02*
X14353814Y-17701850D01*
X14353814Y-17701850D02*
X14344290Y-17682802D01*
X14344290Y-17682802D02*
X14344290Y-17606612D01*
X14344290Y-17606612D02*
X14353814Y-17587564D01*
X14353814Y-17587564D02*
X14372862Y-17578040D01*
X14372862Y-17578040D02*
X14410957Y-17578040D01*
X14410957Y-17578040D02*
X14430005Y-17587564D01*
X14430005Y-17587564D02*
X14439529Y-17606612D01*
X14439529Y-17606612D02*
X14439529Y-17625660D01*
X14439529Y-17625660D02*
X14344290Y-17644707D01*
X14515719Y-17701850D02*
X14534767Y-17711374D01*
X14534767Y-17711374D02*
X14572862Y-17711374D01*
X14572862Y-17711374D02*
X14591910Y-17701850D01*
X14591910Y-17701850D02*
X14601433Y-17682802D01*
X14601433Y-17682802D02*
X14601433Y-17673279D01*
X14601433Y-17673279D02*
X14591910Y-17654231D01*
X14591910Y-17654231D02*
X14572862Y-17644707D01*
X14572862Y-17644707D02*
X14544290Y-17644707D01*
X14544290Y-17644707D02*
X14525243Y-17635183D01*
X14525243Y-17635183D02*
X14515719Y-17616136D01*
X14515719Y-17616136D02*
X14515719Y-17606612D01*
X14515719Y-17606612D02*
X14525243Y-17587564D01*
X14525243Y-17587564D02*
X14544290Y-17578040D01*
X14544290Y-17578040D02*
X14572862Y-17578040D01*
X14572862Y-17578040D02*
X14591910Y-17587564D01*
X14668100Y-17787564D02*
X14677624Y-17778040D01*
X14677624Y-17778040D02*
X14696671Y-17749469D01*
X14696671Y-17749469D02*
X14706195Y-17730421D01*
X14706195Y-17730421D02*
X14715719Y-17701850D01*
X14715719Y-17701850D02*
X14725243Y-17654231D01*
X14725243Y-17654231D02*
X14725243Y-17616136D01*
X14725243Y-17616136D02*
X14715719Y-17568517D01*
X14715719Y-17568517D02*
X14706195Y-17539945D01*
X14706195Y-17539945D02*
X14696671Y-17520898D01*
X14696671Y-17520898D02*
X14677624Y-17492326D01*
X14677624Y-17492326D02*
X14668100Y-17482802D01*
D12*
X9893037Y-17883890D02*
G75*
G03*
X9893037Y-17883890I-39370J0D01*
G01*
D10*
X10191909Y-17775374D02*
X10210957Y-17775374D01*
X10210957Y-17775374D02*
X10230004Y-17784898D01*
X10230004Y-17784898D02*
X10239528Y-17794421D01*
X10239528Y-17794421D02*
X10249052Y-17813469D01*
X10249052Y-17813469D02*
X10258576Y-17851564D01*
X10258576Y-17851564D02*
X10258576Y-17899183D01*
X10258576Y-17899183D02*
X10249052Y-17937279D01*
X10249052Y-17937279D02*
X10239528Y-17956326D01*
X10239528Y-17956326D02*
X10230004Y-17965850D01*
X10230004Y-17965850D02*
X10210957Y-17975374D01*
X10210957Y-17975374D02*
X10191909Y-17975374D01*
X10191909Y-17975374D02*
X10172862Y-17965850D01*
X10172862Y-17965850D02*
X10163338Y-17956326D01*
X10163338Y-17956326D02*
X10153814Y-17937279D01*
X10153814Y-17937279D02*
X10144290Y-17899183D01*
X10144290Y-17899183D02*
X10144290Y-17851564D01*
X10144290Y-17851564D02*
X10153814Y-17813469D01*
X10153814Y-17813469D02*
X10163338Y-17794421D01*
X10163338Y-17794421D02*
X10172862Y-17784898D01*
X10172862Y-17784898D02*
X10191909Y-17775374D01*
X10344290Y-17956326D02*
X10353814Y-17965850D01*
X10353814Y-17965850D02*
X10344290Y-17975374D01*
X10344290Y-17975374D02*
X10334766Y-17965850D01*
X10334766Y-17965850D02*
X10344290Y-17956326D01*
X10344290Y-17956326D02*
X10344290Y-17975374D01*
X10420481Y-17775374D02*
X10553814Y-17775374D01*
X10553814Y-17775374D02*
X10468100Y-17975374D01*
X10658576Y-17861088D02*
X10639528Y-17851564D01*
X10639528Y-17851564D02*
X10630004Y-17842040D01*
X10630004Y-17842040D02*
X10620481Y-17822993D01*
X10620481Y-17822993D02*
X10620481Y-17813469D01*
X10620481Y-17813469D02*
X10630004Y-17794421D01*
X10630004Y-17794421D02*
X10639528Y-17784898D01*
X10639528Y-17784898D02*
X10658576Y-17775374D01*
X10658576Y-17775374D02*
X10696671Y-17775374D01*
X10696671Y-17775374D02*
X10715719Y-17784898D01*
X10715719Y-17784898D02*
X10725243Y-17794421D01*
X10725243Y-17794421D02*
X10734766Y-17813469D01*
X10734766Y-17813469D02*
X10734766Y-17822993D01*
X10734766Y-17822993D02*
X10725243Y-17842040D01*
X10725243Y-17842040D02*
X10715719Y-17851564D01*
X10715719Y-17851564D02*
X10696671Y-17861088D01*
X10696671Y-17861088D02*
X10658576Y-17861088D01*
X10658576Y-17861088D02*
X10639528Y-17870612D01*
X10639528Y-17870612D02*
X10630004Y-17880136D01*
X10630004Y-17880136D02*
X10620481Y-17899183D01*
X10620481Y-17899183D02*
X10620481Y-17937279D01*
X10620481Y-17937279D02*
X10630004Y-17956326D01*
X10630004Y-17956326D02*
X10639528Y-17965850D01*
X10639528Y-17965850D02*
X10658576Y-17975374D01*
X10658576Y-17975374D02*
X10696671Y-17975374D01*
X10696671Y-17975374D02*
X10715719Y-17965850D01*
X10715719Y-17965850D02*
X10725243Y-17956326D01*
X10725243Y-17956326D02*
X10734766Y-17937279D01*
X10734766Y-17937279D02*
X10734766Y-17899183D01*
X10734766Y-17899183D02*
X10725243Y-17880136D01*
X10725243Y-17880136D02*
X10715719Y-17870612D01*
X10715719Y-17870612D02*
X10696671Y-17861088D01*
X10801433Y-17775374D02*
X10934766Y-17775374D01*
X10934766Y-17775374D02*
X10849052Y-17975374D01*
X11010957Y-17975374D02*
X11010957Y-17842040D01*
X11010957Y-17861088D02*
X11020481Y-17851564D01*
X11020481Y-17851564D02*
X11039528Y-17842040D01*
X11039528Y-17842040D02*
X11068100Y-17842040D01*
X11068100Y-17842040D02*
X11087147Y-17851564D01*
X11087147Y-17851564D02*
X11096671Y-17870612D01*
X11096671Y-17870612D02*
X11096671Y-17975374D01*
X11096671Y-17870612D02*
X11106195Y-17851564D01*
X11106195Y-17851564D02*
X11125243Y-17842040D01*
X11125243Y-17842040D02*
X11153814Y-17842040D01*
X11153814Y-17842040D02*
X11172862Y-17851564D01*
X11172862Y-17851564D02*
X11182385Y-17870612D01*
X11182385Y-17870612D02*
X11182385Y-17975374D01*
X11277623Y-17975374D02*
X11277623Y-17842040D01*
X11277623Y-17861088D02*
X11287147Y-17851564D01*
X11287147Y-17851564D02*
X11306195Y-17842040D01*
X11306195Y-17842040D02*
X11334766Y-17842040D01*
X11334766Y-17842040D02*
X11353814Y-17851564D01*
X11353814Y-17851564D02*
X11363338Y-17870612D01*
X11363338Y-17870612D02*
X11363338Y-17975374D01*
X11363338Y-17870612D02*
X11372862Y-17851564D01*
X11372862Y-17851564D02*
X11391909Y-17842040D01*
X11391909Y-17842040D02*
X11420481Y-17842040D01*
X11420481Y-17842040D02*
X11439528Y-17851564D01*
X11439528Y-17851564D02*
X11449052Y-17870612D01*
X11449052Y-17870612D02*
X11449052Y-17975374D01*
X11839528Y-17765850D02*
X11668100Y-18022993D01*
X12096671Y-17775374D02*
X12115719Y-17775374D01*
X12115719Y-17775374D02*
X12134766Y-17784898D01*
X12134766Y-17784898D02*
X12144290Y-17794421D01*
X12144290Y-17794421D02*
X12153814Y-17813469D01*
X12153814Y-17813469D02*
X12163338Y-17851564D01*
X12163338Y-17851564D02*
X12163338Y-17899183D01*
X12163338Y-17899183D02*
X12153814Y-17937279D01*
X12153814Y-17937279D02*
X12144290Y-17956326D01*
X12144290Y-17956326D02*
X12134766Y-17965850D01*
X12134766Y-17965850D02*
X12115719Y-17975374D01*
X12115719Y-17975374D02*
X12096671Y-17975374D01*
X12096671Y-17975374D02*
X12077624Y-17965850D01*
X12077624Y-17965850D02*
X12068100Y-17956326D01*
X12068100Y-17956326D02*
X12058576Y-17937279D01*
X12058576Y-17937279D02*
X12049052Y-17899183D01*
X12049052Y-17899183D02*
X12049052Y-17851564D01*
X12049052Y-17851564D02*
X12058576Y-17813469D01*
X12058576Y-17813469D02*
X12068100Y-17794421D01*
X12068100Y-17794421D02*
X12077624Y-17784898D01*
X12077624Y-17784898D02*
X12096671Y-17775374D01*
X12249052Y-17956326D02*
X12258576Y-17965850D01*
X12258576Y-17965850D02*
X12249052Y-17975374D01*
X12249052Y-17975374D02*
X12239528Y-17965850D01*
X12239528Y-17965850D02*
X12249052Y-17956326D01*
X12249052Y-17956326D02*
X12249052Y-17975374D01*
X12382385Y-17775374D02*
X12401433Y-17775374D01*
X12401433Y-17775374D02*
X12420481Y-17784898D01*
X12420481Y-17784898D02*
X12430005Y-17794421D01*
X12430005Y-17794421D02*
X12439528Y-17813469D01*
X12439528Y-17813469D02*
X12449052Y-17851564D01*
X12449052Y-17851564D02*
X12449052Y-17899183D01*
X12449052Y-17899183D02*
X12439528Y-17937279D01*
X12439528Y-17937279D02*
X12430005Y-17956326D01*
X12430005Y-17956326D02*
X12420481Y-17965850D01*
X12420481Y-17965850D02*
X12401433Y-17975374D01*
X12401433Y-17975374D02*
X12382385Y-17975374D01*
X12382385Y-17975374D02*
X12363338Y-17965850D01*
X12363338Y-17965850D02*
X12353814Y-17956326D01*
X12353814Y-17956326D02*
X12344290Y-17937279D01*
X12344290Y-17937279D02*
X12334766Y-17899183D01*
X12334766Y-17899183D02*
X12334766Y-17851564D01*
X12334766Y-17851564D02*
X12344290Y-17813469D01*
X12344290Y-17813469D02*
X12353814Y-17794421D01*
X12353814Y-17794421D02*
X12363338Y-17784898D01*
X12363338Y-17784898D02*
X12382385Y-17775374D01*
X12515719Y-17775374D02*
X12639528Y-17775374D01*
X12639528Y-17775374D02*
X12572862Y-17851564D01*
X12572862Y-17851564D02*
X12601433Y-17851564D01*
X12601433Y-17851564D02*
X12620481Y-17861088D01*
X12620481Y-17861088D02*
X12630005Y-17870612D01*
X12630005Y-17870612D02*
X12639528Y-17889660D01*
X12639528Y-17889660D02*
X12639528Y-17937279D01*
X12639528Y-17937279D02*
X12630005Y-17956326D01*
X12630005Y-17956326D02*
X12620481Y-17965850D01*
X12620481Y-17965850D02*
X12601433Y-17975374D01*
X12601433Y-17975374D02*
X12544290Y-17975374D01*
X12544290Y-17975374D02*
X12525243Y-17965850D01*
X12525243Y-17965850D02*
X12515719Y-17956326D01*
X12830005Y-17975374D02*
X12715719Y-17975374D01*
X12772862Y-17975374D02*
X12772862Y-17775374D01*
X12772862Y-17775374D02*
X12753814Y-17803945D01*
X12753814Y-17803945D02*
X12734766Y-17822993D01*
X12734766Y-17822993D02*
X12715719Y-17832517D01*
X12953814Y-17775374D02*
X12972862Y-17775374D01*
X12972862Y-17775374D02*
X12991909Y-17784898D01*
X12991909Y-17784898D02*
X13001433Y-17794421D01*
X13001433Y-17794421D02*
X13010957Y-17813469D01*
X13010957Y-17813469D02*
X13020481Y-17851564D01*
X13020481Y-17851564D02*
X13020481Y-17899183D01*
X13020481Y-17899183D02*
X13010957Y-17937279D01*
X13010957Y-17937279D02*
X13001433Y-17956326D01*
X13001433Y-17956326D02*
X12991909Y-17965850D01*
X12991909Y-17965850D02*
X12972862Y-17975374D01*
X12972862Y-17975374D02*
X12953814Y-17975374D01*
X12953814Y-17975374D02*
X12934766Y-17965850D01*
X12934766Y-17965850D02*
X12925243Y-17956326D01*
X12925243Y-17956326D02*
X12915719Y-17937279D01*
X12915719Y-17937279D02*
X12906195Y-17899183D01*
X12906195Y-17899183D02*
X12906195Y-17851564D01*
X12906195Y-17851564D02*
X12915719Y-17813469D01*
X12915719Y-17813469D02*
X12925243Y-17794421D01*
X12925243Y-17794421D02*
X12934766Y-17784898D01*
X12934766Y-17784898D02*
X12953814Y-17775374D01*
X13096671Y-17775374D02*
X13096671Y-17813469D01*
X13172862Y-17775374D02*
X13172862Y-17813469D01*
X13468100Y-18051564D02*
X13458576Y-18042040D01*
X13458576Y-18042040D02*
X13439528Y-18013469D01*
X13439528Y-18013469D02*
X13430005Y-17994421D01*
X13430005Y-17994421D02*
X13420481Y-17965850D01*
X13420481Y-17965850D02*
X13410957Y-17918231D01*
X13410957Y-17918231D02*
X13410957Y-17880136D01*
X13410957Y-17880136D02*
X13420481Y-17832517D01*
X13420481Y-17832517D02*
X13430005Y-17803945D01*
X13430005Y-17803945D02*
X13439528Y-17784898D01*
X13439528Y-17784898D02*
X13458576Y-17756326D01*
X13458576Y-17756326D02*
X13468100Y-17746802D01*
X13534767Y-17794421D02*
X13544290Y-17784898D01*
X13544290Y-17784898D02*
X13563338Y-17775374D01*
X13563338Y-17775374D02*
X13610957Y-17775374D01*
X13610957Y-17775374D02*
X13630005Y-17784898D01*
X13630005Y-17784898D02*
X13639528Y-17794421D01*
X13639528Y-17794421D02*
X13649052Y-17813469D01*
X13649052Y-17813469D02*
X13649052Y-17832517D01*
X13649052Y-17832517D02*
X13639528Y-17861088D01*
X13639528Y-17861088D02*
X13525243Y-17975374D01*
X13525243Y-17975374D02*
X13649052Y-17975374D01*
X13725243Y-17794421D02*
X13734767Y-17784898D01*
X13734767Y-17784898D02*
X13753814Y-17775374D01*
X13753814Y-17775374D02*
X13801433Y-17775374D01*
X13801433Y-17775374D02*
X13820481Y-17784898D01*
X13820481Y-17784898D02*
X13830005Y-17794421D01*
X13830005Y-17794421D02*
X13839528Y-17813469D01*
X13839528Y-17813469D02*
X13839528Y-17832517D01*
X13839528Y-17832517D02*
X13830005Y-17861088D01*
X13830005Y-17861088D02*
X13715719Y-17975374D01*
X13715719Y-17975374D02*
X13839528Y-17975374D01*
X14077624Y-17975374D02*
X14077624Y-17775374D01*
X14163338Y-17975374D02*
X14163338Y-17870612D01*
X14163338Y-17870612D02*
X14153814Y-17851564D01*
X14153814Y-17851564D02*
X14134767Y-17842040D01*
X14134767Y-17842040D02*
X14106195Y-17842040D01*
X14106195Y-17842040D02*
X14087148Y-17851564D01*
X14087148Y-17851564D02*
X14077624Y-17861088D01*
X14287148Y-17975374D02*
X14268100Y-17965850D01*
X14268100Y-17965850D02*
X14258576Y-17956326D01*
X14258576Y-17956326D02*
X14249052Y-17937279D01*
X14249052Y-17937279D02*
X14249052Y-17880136D01*
X14249052Y-17880136D02*
X14258576Y-17861088D01*
X14258576Y-17861088D02*
X14268100Y-17851564D01*
X14268100Y-17851564D02*
X14287148Y-17842040D01*
X14287148Y-17842040D02*
X14315719Y-17842040D01*
X14315719Y-17842040D02*
X14334767Y-17851564D01*
X14334767Y-17851564D02*
X14344290Y-17861088D01*
X14344290Y-17861088D02*
X14353814Y-17880136D01*
X14353814Y-17880136D02*
X14353814Y-17937279D01*
X14353814Y-17937279D02*
X14344290Y-17956326D01*
X14344290Y-17956326D02*
X14334767Y-17965850D01*
X14334767Y-17965850D02*
X14315719Y-17975374D01*
X14315719Y-17975374D02*
X14287148Y-17975374D01*
X14468100Y-17975374D02*
X14449052Y-17965850D01*
X14449052Y-17965850D02*
X14439529Y-17946802D01*
X14439529Y-17946802D02*
X14439529Y-17775374D01*
X14620481Y-17965850D02*
X14601433Y-17975374D01*
X14601433Y-17975374D02*
X14563338Y-17975374D01*
X14563338Y-17975374D02*
X14544290Y-17965850D01*
X14544290Y-17965850D02*
X14534767Y-17946802D01*
X14534767Y-17946802D02*
X14534767Y-17870612D01*
X14534767Y-17870612D02*
X14544290Y-17851564D01*
X14544290Y-17851564D02*
X14563338Y-17842040D01*
X14563338Y-17842040D02*
X14601433Y-17842040D01*
X14601433Y-17842040D02*
X14620481Y-17851564D01*
X14620481Y-17851564D02*
X14630005Y-17870612D01*
X14630005Y-17870612D02*
X14630005Y-17889660D01*
X14630005Y-17889660D02*
X14534767Y-17908707D01*
X14706195Y-17965850D02*
X14725243Y-17975374D01*
X14725243Y-17975374D02*
X14763338Y-17975374D01*
X14763338Y-17975374D02*
X14782386Y-17965850D01*
X14782386Y-17965850D02*
X14791910Y-17946802D01*
X14791910Y-17946802D02*
X14791910Y-17937279D01*
X14791910Y-17937279D02*
X14782386Y-17918231D01*
X14782386Y-17918231D02*
X14763338Y-17908707D01*
X14763338Y-17908707D02*
X14734767Y-17908707D01*
X14734767Y-17908707D02*
X14715719Y-17899183D01*
X14715719Y-17899183D02*
X14706195Y-17880136D01*
X14706195Y-17880136D02*
X14706195Y-17870612D01*
X14706195Y-17870612D02*
X14715719Y-17851564D01*
X14715719Y-17851564D02*
X14734767Y-17842040D01*
X14734767Y-17842040D02*
X14763338Y-17842040D01*
X14763338Y-17842040D02*
X14782386Y-17851564D01*
X14858576Y-18051564D02*
X14868100Y-18042040D01*
X14868100Y-18042040D02*
X14887148Y-18013469D01*
X14887148Y-18013469D02*
X14896671Y-17994421D01*
X14896671Y-17994421D02*
X14906195Y-17965850D01*
X14906195Y-17965850D02*
X14915719Y-17918231D01*
X14915719Y-17918231D02*
X14915719Y-17880136D01*
X14915719Y-17880136D02*
X14906195Y-17832517D01*
X14906195Y-17832517D02*
X14896671Y-17803945D01*
X14896671Y-17803945D02*
X14887148Y-17784898D01*
X14887148Y-17784898D02*
X14868100Y-17756326D01*
X14868100Y-17756326D02*
X14858576Y-17746802D01*
D13*
X9852397Y-18107250D02*
X9852397Y-18188530D01*
X9811757Y-18147890D02*
X9893037Y-18147890D01*
D10*
X10191909Y-18039374D02*
X10210957Y-18039374D01*
X10210957Y-18039374D02*
X10230004Y-18048898D01*
X10230004Y-18048898D02*
X10239528Y-18058421D01*
X10239528Y-18058421D02*
X10249052Y-18077469D01*
X10249052Y-18077469D02*
X10258576Y-18115564D01*
X10258576Y-18115564D02*
X10258576Y-18163183D01*
X10258576Y-18163183D02*
X10249052Y-18201279D01*
X10249052Y-18201279D02*
X10239528Y-18220326D01*
X10239528Y-18220326D02*
X10230004Y-18229850D01*
X10230004Y-18229850D02*
X10210957Y-18239374D01*
X10210957Y-18239374D02*
X10191909Y-18239374D01*
X10191909Y-18239374D02*
X10172862Y-18229850D01*
X10172862Y-18229850D02*
X10163338Y-18220326D01*
X10163338Y-18220326D02*
X10153814Y-18201279D01*
X10153814Y-18201279D02*
X10144290Y-18163183D01*
X10144290Y-18163183D02*
X10144290Y-18115564D01*
X10144290Y-18115564D02*
X10153814Y-18077469D01*
X10153814Y-18077469D02*
X10163338Y-18058421D01*
X10163338Y-18058421D02*
X10172862Y-18048898D01*
X10172862Y-18048898D02*
X10191909Y-18039374D01*
X10344290Y-18220326D02*
X10353814Y-18229850D01*
X10353814Y-18229850D02*
X10344290Y-18239374D01*
X10344290Y-18239374D02*
X10334766Y-18229850D01*
X10334766Y-18229850D02*
X10344290Y-18220326D01*
X10344290Y-18220326D02*
X10344290Y-18239374D01*
X10468100Y-18125088D02*
X10449052Y-18115564D01*
X10449052Y-18115564D02*
X10439528Y-18106040D01*
X10439528Y-18106040D02*
X10430004Y-18086993D01*
X10430004Y-18086993D02*
X10430004Y-18077469D01*
X10430004Y-18077469D02*
X10439528Y-18058421D01*
X10439528Y-18058421D02*
X10449052Y-18048898D01*
X10449052Y-18048898D02*
X10468100Y-18039374D01*
X10468100Y-18039374D02*
X10506195Y-18039374D01*
X10506195Y-18039374D02*
X10525243Y-18048898D01*
X10525243Y-18048898D02*
X10534766Y-18058421D01*
X10534766Y-18058421D02*
X10544290Y-18077469D01*
X10544290Y-18077469D02*
X10544290Y-18086993D01*
X10544290Y-18086993D02*
X10534766Y-18106040D01*
X10534766Y-18106040D02*
X10525243Y-18115564D01*
X10525243Y-18115564D02*
X10506195Y-18125088D01*
X10506195Y-18125088D02*
X10468100Y-18125088D01*
X10468100Y-18125088D02*
X10449052Y-18134612D01*
X10449052Y-18134612D02*
X10439528Y-18144136D01*
X10439528Y-18144136D02*
X10430004Y-18163183D01*
X10430004Y-18163183D02*
X10430004Y-18201279D01*
X10430004Y-18201279D02*
X10439528Y-18220326D01*
X10439528Y-18220326D02*
X10449052Y-18229850D01*
X10449052Y-18229850D02*
X10468100Y-18239374D01*
X10468100Y-18239374D02*
X10506195Y-18239374D01*
X10506195Y-18239374D02*
X10525243Y-18229850D01*
X10525243Y-18229850D02*
X10534766Y-18220326D01*
X10534766Y-18220326D02*
X10544290Y-18201279D01*
X10544290Y-18201279D02*
X10544290Y-18163183D01*
X10544290Y-18163183D02*
X10534766Y-18144136D01*
X10534766Y-18144136D02*
X10525243Y-18134612D01*
X10525243Y-18134612D02*
X10506195Y-18125088D01*
X10734766Y-18239374D02*
X10620481Y-18239374D01*
X10677623Y-18239374D02*
X10677623Y-18039374D01*
X10677623Y-18039374D02*
X10658576Y-18067945D01*
X10658576Y-18067945D02*
X10639528Y-18086993D01*
X10639528Y-18086993D02*
X10620481Y-18096517D01*
X10801433Y-18039374D02*
X10925243Y-18039374D01*
X10925243Y-18039374D02*
X10858576Y-18115564D01*
X10858576Y-18115564D02*
X10887147Y-18115564D01*
X10887147Y-18115564D02*
X10906195Y-18125088D01*
X10906195Y-18125088D02*
X10915719Y-18134612D01*
X10915719Y-18134612D02*
X10925243Y-18153660D01*
X10925243Y-18153660D02*
X10925243Y-18201279D01*
X10925243Y-18201279D02*
X10915719Y-18220326D01*
X10915719Y-18220326D02*
X10906195Y-18229850D01*
X10906195Y-18229850D02*
X10887147Y-18239374D01*
X10887147Y-18239374D02*
X10830004Y-18239374D01*
X10830004Y-18239374D02*
X10810957Y-18229850D01*
X10810957Y-18229850D02*
X10801433Y-18220326D01*
X11010957Y-18239374D02*
X11010957Y-18106040D01*
X11010957Y-18125088D02*
X11020481Y-18115564D01*
X11020481Y-18115564D02*
X11039528Y-18106040D01*
X11039528Y-18106040D02*
X11068100Y-18106040D01*
X11068100Y-18106040D02*
X11087147Y-18115564D01*
X11087147Y-18115564D02*
X11096671Y-18134612D01*
X11096671Y-18134612D02*
X11096671Y-18239374D01*
X11096671Y-18134612D02*
X11106195Y-18115564D01*
X11106195Y-18115564D02*
X11125243Y-18106040D01*
X11125243Y-18106040D02*
X11153814Y-18106040D01*
X11153814Y-18106040D02*
X11172862Y-18115564D01*
X11172862Y-18115564D02*
X11182385Y-18134612D01*
X11182385Y-18134612D02*
X11182385Y-18239374D01*
X11277623Y-18239374D02*
X11277623Y-18106040D01*
X11277623Y-18125088D02*
X11287147Y-18115564D01*
X11287147Y-18115564D02*
X11306195Y-18106040D01*
X11306195Y-18106040D02*
X11334766Y-18106040D01*
X11334766Y-18106040D02*
X11353814Y-18115564D01*
X11353814Y-18115564D02*
X11363338Y-18134612D01*
X11363338Y-18134612D02*
X11363338Y-18239374D01*
X11363338Y-18134612D02*
X11372862Y-18115564D01*
X11372862Y-18115564D02*
X11391909Y-18106040D01*
X11391909Y-18106040D02*
X11420481Y-18106040D01*
X11420481Y-18106040D02*
X11439528Y-18115564D01*
X11439528Y-18115564D02*
X11449052Y-18134612D01*
X11449052Y-18134612D02*
X11449052Y-18239374D01*
X11839528Y-18029850D02*
X11668100Y-18286993D01*
X12096671Y-18039374D02*
X12115719Y-18039374D01*
X12115719Y-18039374D02*
X12134766Y-18048898D01*
X12134766Y-18048898D02*
X12144290Y-18058421D01*
X12144290Y-18058421D02*
X12153814Y-18077469D01*
X12153814Y-18077469D02*
X12163338Y-18115564D01*
X12163338Y-18115564D02*
X12163338Y-18163183D01*
X12163338Y-18163183D02*
X12153814Y-18201279D01*
X12153814Y-18201279D02*
X12144290Y-18220326D01*
X12144290Y-18220326D02*
X12134766Y-18229850D01*
X12134766Y-18229850D02*
X12115719Y-18239374D01*
X12115719Y-18239374D02*
X12096671Y-18239374D01*
X12096671Y-18239374D02*
X12077624Y-18229850D01*
X12077624Y-18229850D02*
X12068100Y-18220326D01*
X12068100Y-18220326D02*
X12058576Y-18201279D01*
X12058576Y-18201279D02*
X12049052Y-18163183D01*
X12049052Y-18163183D02*
X12049052Y-18115564D01*
X12049052Y-18115564D02*
X12058576Y-18077469D01*
X12058576Y-18077469D02*
X12068100Y-18058421D01*
X12068100Y-18058421D02*
X12077624Y-18048898D01*
X12077624Y-18048898D02*
X12096671Y-18039374D01*
X12249052Y-18220326D02*
X12258576Y-18229850D01*
X12258576Y-18229850D02*
X12249052Y-18239374D01*
X12249052Y-18239374D02*
X12239528Y-18229850D01*
X12239528Y-18229850D02*
X12249052Y-18220326D01*
X12249052Y-18220326D02*
X12249052Y-18239374D01*
X12382385Y-18039374D02*
X12401433Y-18039374D01*
X12401433Y-18039374D02*
X12420481Y-18048898D01*
X12420481Y-18048898D02*
X12430005Y-18058421D01*
X12430005Y-18058421D02*
X12439528Y-18077469D01*
X12439528Y-18077469D02*
X12449052Y-18115564D01*
X12449052Y-18115564D02*
X12449052Y-18163183D01*
X12449052Y-18163183D02*
X12439528Y-18201279D01*
X12439528Y-18201279D02*
X12430005Y-18220326D01*
X12430005Y-18220326D02*
X12420481Y-18229850D01*
X12420481Y-18229850D02*
X12401433Y-18239374D01*
X12401433Y-18239374D02*
X12382385Y-18239374D01*
X12382385Y-18239374D02*
X12363338Y-18229850D01*
X12363338Y-18229850D02*
X12353814Y-18220326D01*
X12353814Y-18220326D02*
X12344290Y-18201279D01*
X12344290Y-18201279D02*
X12334766Y-18163183D01*
X12334766Y-18163183D02*
X12334766Y-18115564D01*
X12334766Y-18115564D02*
X12344290Y-18077469D01*
X12344290Y-18077469D02*
X12353814Y-18058421D01*
X12353814Y-18058421D02*
X12363338Y-18048898D01*
X12363338Y-18048898D02*
X12382385Y-18039374D01*
X12515719Y-18039374D02*
X12639528Y-18039374D01*
X12639528Y-18039374D02*
X12572862Y-18115564D01*
X12572862Y-18115564D02*
X12601433Y-18115564D01*
X12601433Y-18115564D02*
X12620481Y-18125088D01*
X12620481Y-18125088D02*
X12630005Y-18134612D01*
X12630005Y-18134612D02*
X12639528Y-18153660D01*
X12639528Y-18153660D02*
X12639528Y-18201279D01*
X12639528Y-18201279D02*
X12630005Y-18220326D01*
X12630005Y-18220326D02*
X12620481Y-18229850D01*
X12620481Y-18229850D02*
X12601433Y-18239374D01*
X12601433Y-18239374D02*
X12544290Y-18239374D01*
X12544290Y-18239374D02*
X12525243Y-18229850D01*
X12525243Y-18229850D02*
X12515719Y-18220326D01*
X12715719Y-18058421D02*
X12725243Y-18048898D01*
X12725243Y-18048898D02*
X12744290Y-18039374D01*
X12744290Y-18039374D02*
X12791909Y-18039374D01*
X12791909Y-18039374D02*
X12810957Y-18048898D01*
X12810957Y-18048898D02*
X12820481Y-18058421D01*
X12820481Y-18058421D02*
X12830005Y-18077469D01*
X12830005Y-18077469D02*
X12830005Y-18096517D01*
X12830005Y-18096517D02*
X12820481Y-18125088D01*
X12820481Y-18125088D02*
X12706195Y-18239374D01*
X12706195Y-18239374D02*
X12830005Y-18239374D01*
X12953814Y-18039374D02*
X12972862Y-18039374D01*
X12972862Y-18039374D02*
X12991909Y-18048898D01*
X12991909Y-18048898D02*
X13001433Y-18058421D01*
X13001433Y-18058421D02*
X13010957Y-18077469D01*
X13010957Y-18077469D02*
X13020481Y-18115564D01*
X13020481Y-18115564D02*
X13020481Y-18163183D01*
X13020481Y-18163183D02*
X13010957Y-18201279D01*
X13010957Y-18201279D02*
X13001433Y-18220326D01*
X13001433Y-18220326D02*
X12991909Y-18229850D01*
X12991909Y-18229850D02*
X12972862Y-18239374D01*
X12972862Y-18239374D02*
X12953814Y-18239374D01*
X12953814Y-18239374D02*
X12934766Y-18229850D01*
X12934766Y-18229850D02*
X12925243Y-18220326D01*
X12925243Y-18220326D02*
X12915719Y-18201279D01*
X12915719Y-18201279D02*
X12906195Y-18163183D01*
X12906195Y-18163183D02*
X12906195Y-18115564D01*
X12906195Y-18115564D02*
X12915719Y-18077469D01*
X12915719Y-18077469D02*
X12925243Y-18058421D01*
X12925243Y-18058421D02*
X12934766Y-18048898D01*
X12934766Y-18048898D02*
X12953814Y-18039374D01*
X13096671Y-18039374D02*
X13096671Y-18077469D01*
X13172862Y-18039374D02*
X13172862Y-18077469D01*
X13468100Y-18315564D02*
X13458576Y-18306040D01*
X13458576Y-18306040D02*
X13439528Y-18277469D01*
X13439528Y-18277469D02*
X13430005Y-18258421D01*
X13430005Y-18258421D02*
X13420481Y-18229850D01*
X13420481Y-18229850D02*
X13410957Y-18182231D01*
X13410957Y-18182231D02*
X13410957Y-18144136D01*
X13410957Y-18144136D02*
X13420481Y-18096517D01*
X13420481Y-18096517D02*
X13430005Y-18067945D01*
X13430005Y-18067945D02*
X13439528Y-18048898D01*
X13439528Y-18048898D02*
X13458576Y-18020326D01*
X13458576Y-18020326D02*
X13468100Y-18010802D01*
X13534767Y-18058421D02*
X13544290Y-18048898D01*
X13544290Y-18048898D02*
X13563338Y-18039374D01*
X13563338Y-18039374D02*
X13610957Y-18039374D01*
X13610957Y-18039374D02*
X13630005Y-18048898D01*
X13630005Y-18048898D02*
X13639528Y-18058421D01*
X13639528Y-18058421D02*
X13649052Y-18077469D01*
X13649052Y-18077469D02*
X13649052Y-18096517D01*
X13649052Y-18096517D02*
X13639528Y-18125088D01*
X13639528Y-18125088D02*
X13525243Y-18239374D01*
X13525243Y-18239374D02*
X13649052Y-18239374D01*
X13820481Y-18106040D02*
X13820481Y-18239374D01*
X13772862Y-18029850D02*
X13725243Y-18172707D01*
X13725243Y-18172707D02*
X13849052Y-18172707D01*
X14077624Y-18239374D02*
X14077624Y-18039374D01*
X14163338Y-18239374D02*
X14163338Y-18134612D01*
X14163338Y-18134612D02*
X14153814Y-18115564D01*
X14153814Y-18115564D02*
X14134767Y-18106040D01*
X14134767Y-18106040D02*
X14106195Y-18106040D01*
X14106195Y-18106040D02*
X14087148Y-18115564D01*
X14087148Y-18115564D02*
X14077624Y-18125088D01*
X14287148Y-18239374D02*
X14268100Y-18229850D01*
X14268100Y-18229850D02*
X14258576Y-18220326D01*
X14258576Y-18220326D02*
X14249052Y-18201279D01*
X14249052Y-18201279D02*
X14249052Y-18144136D01*
X14249052Y-18144136D02*
X14258576Y-18125088D01*
X14258576Y-18125088D02*
X14268100Y-18115564D01*
X14268100Y-18115564D02*
X14287148Y-18106040D01*
X14287148Y-18106040D02*
X14315719Y-18106040D01*
X14315719Y-18106040D02*
X14334767Y-18115564D01*
X14334767Y-18115564D02*
X14344290Y-18125088D01*
X14344290Y-18125088D02*
X14353814Y-18144136D01*
X14353814Y-18144136D02*
X14353814Y-18201279D01*
X14353814Y-18201279D02*
X14344290Y-18220326D01*
X14344290Y-18220326D02*
X14334767Y-18229850D01*
X14334767Y-18229850D02*
X14315719Y-18239374D01*
X14315719Y-18239374D02*
X14287148Y-18239374D01*
X14468100Y-18239374D02*
X14449052Y-18229850D01*
X14449052Y-18229850D02*
X14439529Y-18210802D01*
X14439529Y-18210802D02*
X14439529Y-18039374D01*
X14620481Y-18229850D02*
X14601433Y-18239374D01*
X14601433Y-18239374D02*
X14563338Y-18239374D01*
X14563338Y-18239374D02*
X14544290Y-18229850D01*
X14544290Y-18229850D02*
X14534767Y-18210802D01*
X14534767Y-18210802D02*
X14534767Y-18134612D01*
X14534767Y-18134612D02*
X14544290Y-18115564D01*
X14544290Y-18115564D02*
X14563338Y-18106040D01*
X14563338Y-18106040D02*
X14601433Y-18106040D01*
X14601433Y-18106040D02*
X14620481Y-18115564D01*
X14620481Y-18115564D02*
X14630005Y-18134612D01*
X14630005Y-18134612D02*
X14630005Y-18153660D01*
X14630005Y-18153660D02*
X14534767Y-18172707D01*
X14706195Y-18229850D02*
X14725243Y-18239374D01*
X14725243Y-18239374D02*
X14763338Y-18239374D01*
X14763338Y-18239374D02*
X14782386Y-18229850D01*
X14782386Y-18229850D02*
X14791910Y-18210802D01*
X14791910Y-18210802D02*
X14791910Y-18201279D01*
X14791910Y-18201279D02*
X14782386Y-18182231D01*
X14782386Y-18182231D02*
X14763338Y-18172707D01*
X14763338Y-18172707D02*
X14734767Y-18172707D01*
X14734767Y-18172707D02*
X14715719Y-18163183D01*
X14715719Y-18163183D02*
X14706195Y-18144136D01*
X14706195Y-18144136D02*
X14706195Y-18134612D01*
X14706195Y-18134612D02*
X14715719Y-18115564D01*
X14715719Y-18115564D02*
X14734767Y-18106040D01*
X14734767Y-18106040D02*
X14763338Y-18106040D01*
X14763338Y-18106040D02*
X14782386Y-18115564D01*
X14858576Y-18315564D02*
X14868100Y-18306040D01*
X14868100Y-18306040D02*
X14887148Y-18277469D01*
X14887148Y-18277469D02*
X14896671Y-18258421D01*
X14896671Y-18258421D02*
X14906195Y-18229850D01*
X14906195Y-18229850D02*
X14915719Y-18182231D01*
X14915719Y-18182231D02*
X14915719Y-18144136D01*
X14915719Y-18144136D02*
X14906195Y-18096517D01*
X14906195Y-18096517D02*
X14896671Y-18067945D01*
X14896671Y-18067945D02*
X14887148Y-18048898D01*
X14887148Y-18048898D02*
X14868100Y-18020326D01*
X14868100Y-18020326D02*
X14858576Y-18010802D01*
D14*
X9878393Y-18447246D02*
X9878393Y-18376534D01*
X9807681Y-18376534D01*
X9807681Y-18447246D01*
X9878393Y-18447246D01*
D10*
X10258576Y-18503374D02*
X10144290Y-18503374D01*
X10201433Y-18503374D02*
X10201433Y-18303374D01*
X10201433Y-18303374D02*
X10182385Y-18331945D01*
X10182385Y-18331945D02*
X10163338Y-18350993D01*
X10163338Y-18350993D02*
X10144290Y-18360517D01*
X10344290Y-18484326D02*
X10353814Y-18493850D01*
X10353814Y-18493850D02*
X10344290Y-18503374D01*
X10344290Y-18503374D02*
X10334766Y-18493850D01*
X10334766Y-18493850D02*
X10344290Y-18484326D01*
X10344290Y-18484326D02*
X10344290Y-18503374D01*
X10477623Y-18303374D02*
X10496671Y-18303374D01*
X10496671Y-18303374D02*
X10515719Y-18312898D01*
X10515719Y-18312898D02*
X10525243Y-18322421D01*
X10525243Y-18322421D02*
X10534766Y-18341469D01*
X10534766Y-18341469D02*
X10544290Y-18379564D01*
X10544290Y-18379564D02*
X10544290Y-18427183D01*
X10544290Y-18427183D02*
X10534766Y-18465279D01*
X10534766Y-18465279D02*
X10525243Y-18484326D01*
X10525243Y-18484326D02*
X10515719Y-18493850D01*
X10515719Y-18493850D02*
X10496671Y-18503374D01*
X10496671Y-18503374D02*
X10477623Y-18503374D01*
X10477623Y-18503374D02*
X10458576Y-18493850D01*
X10458576Y-18493850D02*
X10449052Y-18484326D01*
X10449052Y-18484326D02*
X10439528Y-18465279D01*
X10439528Y-18465279D02*
X10430004Y-18427183D01*
X10430004Y-18427183D02*
X10430004Y-18379564D01*
X10430004Y-18379564D02*
X10439528Y-18341469D01*
X10439528Y-18341469D02*
X10449052Y-18322421D01*
X10449052Y-18322421D02*
X10458576Y-18312898D01*
X10458576Y-18312898D02*
X10477623Y-18303374D01*
X10668100Y-18303374D02*
X10687147Y-18303374D01*
X10687147Y-18303374D02*
X10706195Y-18312898D01*
X10706195Y-18312898D02*
X10715719Y-18322421D01*
X10715719Y-18322421D02*
X10725243Y-18341469D01*
X10725243Y-18341469D02*
X10734766Y-18379564D01*
X10734766Y-18379564D02*
X10734766Y-18427183D01*
X10734766Y-18427183D02*
X10725243Y-18465279D01*
X10725243Y-18465279D02*
X10715719Y-18484326D01*
X10715719Y-18484326D02*
X10706195Y-18493850D01*
X10706195Y-18493850D02*
X10687147Y-18503374D01*
X10687147Y-18503374D02*
X10668100Y-18503374D01*
X10668100Y-18503374D02*
X10649052Y-18493850D01*
X10649052Y-18493850D02*
X10639528Y-18484326D01*
X10639528Y-18484326D02*
X10630004Y-18465279D01*
X10630004Y-18465279D02*
X10620481Y-18427183D01*
X10620481Y-18427183D02*
X10620481Y-18379564D01*
X10620481Y-18379564D02*
X10630004Y-18341469D01*
X10630004Y-18341469D02*
X10639528Y-18322421D01*
X10639528Y-18322421D02*
X10649052Y-18312898D01*
X10649052Y-18312898D02*
X10668100Y-18303374D01*
X10858576Y-18303374D02*
X10877624Y-18303374D01*
X10877624Y-18303374D02*
X10896671Y-18312898D01*
X10896671Y-18312898D02*
X10906195Y-18322421D01*
X10906195Y-18322421D02*
X10915719Y-18341469D01*
X10915719Y-18341469D02*
X10925243Y-18379564D01*
X10925243Y-18379564D02*
X10925243Y-18427183D01*
X10925243Y-18427183D02*
X10915719Y-18465279D01*
X10915719Y-18465279D02*
X10906195Y-18484326D01*
X10906195Y-18484326D02*
X10896671Y-18493850D01*
X10896671Y-18493850D02*
X10877624Y-18503374D01*
X10877624Y-18503374D02*
X10858576Y-18503374D01*
X10858576Y-18503374D02*
X10839528Y-18493850D01*
X10839528Y-18493850D02*
X10830004Y-18484326D01*
X10830004Y-18484326D02*
X10820481Y-18465279D01*
X10820481Y-18465279D02*
X10810957Y-18427183D01*
X10810957Y-18427183D02*
X10810957Y-18379564D01*
X10810957Y-18379564D02*
X10820481Y-18341469D01*
X10820481Y-18341469D02*
X10830004Y-18322421D01*
X10830004Y-18322421D02*
X10839528Y-18312898D01*
X10839528Y-18312898D02*
X10858576Y-18303374D01*
X11010957Y-18503374D02*
X11010957Y-18370040D01*
X11010957Y-18389088D02*
X11020481Y-18379564D01*
X11020481Y-18379564D02*
X11039528Y-18370040D01*
X11039528Y-18370040D02*
X11068100Y-18370040D01*
X11068100Y-18370040D02*
X11087147Y-18379564D01*
X11087147Y-18379564D02*
X11096671Y-18398612D01*
X11096671Y-18398612D02*
X11096671Y-18503374D01*
X11096671Y-18398612D02*
X11106195Y-18379564D01*
X11106195Y-18379564D02*
X11125243Y-18370040D01*
X11125243Y-18370040D02*
X11153814Y-18370040D01*
X11153814Y-18370040D02*
X11172862Y-18379564D01*
X11172862Y-18379564D02*
X11182385Y-18398612D01*
X11182385Y-18398612D02*
X11182385Y-18503374D01*
X11277623Y-18503374D02*
X11277623Y-18370040D01*
X11277623Y-18389088D02*
X11287147Y-18379564D01*
X11287147Y-18379564D02*
X11306195Y-18370040D01*
X11306195Y-18370040D02*
X11334766Y-18370040D01*
X11334766Y-18370040D02*
X11353814Y-18379564D01*
X11353814Y-18379564D02*
X11363338Y-18398612D01*
X11363338Y-18398612D02*
X11363338Y-18503374D01*
X11363338Y-18398612D02*
X11372862Y-18379564D01*
X11372862Y-18379564D02*
X11391909Y-18370040D01*
X11391909Y-18370040D02*
X11420481Y-18370040D01*
X11420481Y-18370040D02*
X11439528Y-18379564D01*
X11439528Y-18379564D02*
X11449052Y-18398612D01*
X11449052Y-18398612D02*
X11449052Y-18503374D01*
X11839528Y-18293850D02*
X11668100Y-18550993D01*
X12096671Y-18303374D02*
X12115719Y-18303374D01*
X12115719Y-18303374D02*
X12134766Y-18312898D01*
X12134766Y-18312898D02*
X12144290Y-18322421D01*
X12144290Y-18322421D02*
X12153814Y-18341469D01*
X12153814Y-18341469D02*
X12163338Y-18379564D01*
X12163338Y-18379564D02*
X12163338Y-18427183D01*
X12163338Y-18427183D02*
X12153814Y-18465279D01*
X12153814Y-18465279D02*
X12144290Y-18484326D01*
X12144290Y-18484326D02*
X12134766Y-18493850D01*
X12134766Y-18493850D02*
X12115719Y-18503374D01*
X12115719Y-18503374D02*
X12096671Y-18503374D01*
X12096671Y-18503374D02*
X12077624Y-18493850D01*
X12077624Y-18493850D02*
X12068100Y-18484326D01*
X12068100Y-18484326D02*
X12058576Y-18465279D01*
X12058576Y-18465279D02*
X12049052Y-18427183D01*
X12049052Y-18427183D02*
X12049052Y-18379564D01*
X12049052Y-18379564D02*
X12058576Y-18341469D01*
X12058576Y-18341469D02*
X12068100Y-18322421D01*
X12068100Y-18322421D02*
X12077624Y-18312898D01*
X12077624Y-18312898D02*
X12096671Y-18303374D01*
X12249052Y-18484326D02*
X12258576Y-18493850D01*
X12258576Y-18493850D02*
X12249052Y-18503374D01*
X12249052Y-18503374D02*
X12239528Y-18493850D01*
X12239528Y-18493850D02*
X12249052Y-18484326D01*
X12249052Y-18484326D02*
X12249052Y-18503374D01*
X12382385Y-18303374D02*
X12401433Y-18303374D01*
X12401433Y-18303374D02*
X12420481Y-18312898D01*
X12420481Y-18312898D02*
X12430005Y-18322421D01*
X12430005Y-18322421D02*
X12439528Y-18341469D01*
X12439528Y-18341469D02*
X12449052Y-18379564D01*
X12449052Y-18379564D02*
X12449052Y-18427183D01*
X12449052Y-18427183D02*
X12439528Y-18465279D01*
X12439528Y-18465279D02*
X12430005Y-18484326D01*
X12430005Y-18484326D02*
X12420481Y-18493850D01*
X12420481Y-18493850D02*
X12401433Y-18503374D01*
X12401433Y-18503374D02*
X12382385Y-18503374D01*
X12382385Y-18503374D02*
X12363338Y-18493850D01*
X12363338Y-18493850D02*
X12353814Y-18484326D01*
X12353814Y-18484326D02*
X12344290Y-18465279D01*
X12344290Y-18465279D02*
X12334766Y-18427183D01*
X12334766Y-18427183D02*
X12334766Y-18379564D01*
X12334766Y-18379564D02*
X12344290Y-18341469D01*
X12344290Y-18341469D02*
X12353814Y-18322421D01*
X12353814Y-18322421D02*
X12363338Y-18312898D01*
X12363338Y-18312898D02*
X12382385Y-18303374D01*
X12515719Y-18303374D02*
X12639528Y-18303374D01*
X12639528Y-18303374D02*
X12572862Y-18379564D01*
X12572862Y-18379564D02*
X12601433Y-18379564D01*
X12601433Y-18379564D02*
X12620481Y-18389088D01*
X12620481Y-18389088D02*
X12630005Y-18398612D01*
X12630005Y-18398612D02*
X12639528Y-18417660D01*
X12639528Y-18417660D02*
X12639528Y-18465279D01*
X12639528Y-18465279D02*
X12630005Y-18484326D01*
X12630005Y-18484326D02*
X12620481Y-18493850D01*
X12620481Y-18493850D02*
X12601433Y-18503374D01*
X12601433Y-18503374D02*
X12544290Y-18503374D01*
X12544290Y-18503374D02*
X12525243Y-18493850D01*
X12525243Y-18493850D02*
X12515719Y-18484326D01*
X12734766Y-18503374D02*
X12772862Y-18503374D01*
X12772862Y-18503374D02*
X12791909Y-18493850D01*
X12791909Y-18493850D02*
X12801433Y-18484326D01*
X12801433Y-18484326D02*
X12820481Y-18455755D01*
X12820481Y-18455755D02*
X12830005Y-18417660D01*
X12830005Y-18417660D02*
X12830005Y-18341469D01*
X12830005Y-18341469D02*
X12820481Y-18322421D01*
X12820481Y-18322421D02*
X12810957Y-18312898D01*
X12810957Y-18312898D02*
X12791909Y-18303374D01*
X12791909Y-18303374D02*
X12753814Y-18303374D01*
X12753814Y-18303374D02*
X12734766Y-18312898D01*
X12734766Y-18312898D02*
X12725243Y-18322421D01*
X12725243Y-18322421D02*
X12715719Y-18341469D01*
X12715719Y-18341469D02*
X12715719Y-18389088D01*
X12715719Y-18389088D02*
X12725243Y-18408136D01*
X12725243Y-18408136D02*
X12734766Y-18417660D01*
X12734766Y-18417660D02*
X12753814Y-18427183D01*
X12753814Y-18427183D02*
X12791909Y-18427183D01*
X12791909Y-18427183D02*
X12810957Y-18417660D01*
X12810957Y-18417660D02*
X12820481Y-18408136D01*
X12820481Y-18408136D02*
X12830005Y-18389088D01*
X13001433Y-18370040D02*
X13001433Y-18503374D01*
X12953814Y-18293850D02*
X12906195Y-18436707D01*
X12906195Y-18436707D02*
X13030005Y-18436707D01*
X13096671Y-18303374D02*
X13096671Y-18341469D01*
X13172862Y-18303374D02*
X13172862Y-18341469D01*
X13468100Y-18579564D02*
X13458576Y-18570040D01*
X13458576Y-18570040D02*
X13439528Y-18541469D01*
X13439528Y-18541469D02*
X13430005Y-18522421D01*
X13430005Y-18522421D02*
X13420481Y-18493850D01*
X13420481Y-18493850D02*
X13410957Y-18446231D01*
X13410957Y-18446231D02*
X13410957Y-18408136D01*
X13410957Y-18408136D02*
X13420481Y-18360517D01*
X13420481Y-18360517D02*
X13430005Y-18331945D01*
X13430005Y-18331945D02*
X13439528Y-18312898D01*
X13439528Y-18312898D02*
X13458576Y-18284326D01*
X13458576Y-18284326D02*
X13468100Y-18274802D01*
X13525243Y-18303374D02*
X13649052Y-18303374D01*
X13649052Y-18303374D02*
X13582386Y-18379564D01*
X13582386Y-18379564D02*
X13610957Y-18379564D01*
X13610957Y-18379564D02*
X13630005Y-18389088D01*
X13630005Y-18389088D02*
X13639528Y-18398612D01*
X13639528Y-18398612D02*
X13649052Y-18417660D01*
X13649052Y-18417660D02*
X13649052Y-18465279D01*
X13649052Y-18465279D02*
X13639528Y-18484326D01*
X13639528Y-18484326D02*
X13630005Y-18493850D01*
X13630005Y-18493850D02*
X13610957Y-18503374D01*
X13610957Y-18503374D02*
X13553814Y-18503374D01*
X13553814Y-18503374D02*
X13534767Y-18493850D01*
X13534767Y-18493850D02*
X13525243Y-18484326D01*
X13725243Y-18322421D02*
X13734767Y-18312898D01*
X13734767Y-18312898D02*
X13753814Y-18303374D01*
X13753814Y-18303374D02*
X13801433Y-18303374D01*
X13801433Y-18303374D02*
X13820481Y-18312898D01*
X13820481Y-18312898D02*
X13830005Y-18322421D01*
X13830005Y-18322421D02*
X13839528Y-18341469D01*
X13839528Y-18341469D02*
X13839528Y-18360517D01*
X13839528Y-18360517D02*
X13830005Y-18389088D01*
X13830005Y-18389088D02*
X13715719Y-18503374D01*
X13715719Y-18503374D02*
X13839528Y-18503374D01*
X14077624Y-18503374D02*
X14077624Y-18303374D01*
X14163338Y-18503374D02*
X14163338Y-18398612D01*
X14163338Y-18398612D02*
X14153814Y-18379564D01*
X14153814Y-18379564D02*
X14134767Y-18370040D01*
X14134767Y-18370040D02*
X14106195Y-18370040D01*
X14106195Y-18370040D02*
X14087148Y-18379564D01*
X14087148Y-18379564D02*
X14077624Y-18389088D01*
X14287148Y-18503374D02*
X14268100Y-18493850D01*
X14268100Y-18493850D02*
X14258576Y-18484326D01*
X14258576Y-18484326D02*
X14249052Y-18465279D01*
X14249052Y-18465279D02*
X14249052Y-18408136D01*
X14249052Y-18408136D02*
X14258576Y-18389088D01*
X14258576Y-18389088D02*
X14268100Y-18379564D01*
X14268100Y-18379564D02*
X14287148Y-18370040D01*
X14287148Y-18370040D02*
X14315719Y-18370040D01*
X14315719Y-18370040D02*
X14334767Y-18379564D01*
X14334767Y-18379564D02*
X14344290Y-18389088D01*
X14344290Y-18389088D02*
X14353814Y-18408136D01*
X14353814Y-18408136D02*
X14353814Y-18465279D01*
X14353814Y-18465279D02*
X14344290Y-18484326D01*
X14344290Y-18484326D02*
X14334767Y-18493850D01*
X14334767Y-18493850D02*
X14315719Y-18503374D01*
X14315719Y-18503374D02*
X14287148Y-18503374D01*
X14468100Y-18503374D02*
X14449052Y-18493850D01*
X14449052Y-18493850D02*
X14439529Y-18474802D01*
X14439529Y-18474802D02*
X14439529Y-18303374D01*
X14620481Y-18493850D02*
X14601433Y-18503374D01*
X14601433Y-18503374D02*
X14563338Y-18503374D01*
X14563338Y-18503374D02*
X14544290Y-18493850D01*
X14544290Y-18493850D02*
X14534767Y-18474802D01*
X14534767Y-18474802D02*
X14534767Y-18398612D01*
X14534767Y-18398612D02*
X14544290Y-18379564D01*
X14544290Y-18379564D02*
X14563338Y-18370040D01*
X14563338Y-18370040D02*
X14601433Y-18370040D01*
X14601433Y-18370040D02*
X14620481Y-18379564D01*
X14620481Y-18379564D02*
X14630005Y-18398612D01*
X14630005Y-18398612D02*
X14630005Y-18417660D01*
X14630005Y-18417660D02*
X14534767Y-18436707D01*
X14706195Y-18493850D02*
X14725243Y-18503374D01*
X14725243Y-18503374D02*
X14763338Y-18503374D01*
X14763338Y-18503374D02*
X14782386Y-18493850D01*
X14782386Y-18493850D02*
X14791910Y-18474802D01*
X14791910Y-18474802D02*
X14791910Y-18465279D01*
X14791910Y-18465279D02*
X14782386Y-18446231D01*
X14782386Y-18446231D02*
X14763338Y-18436707D01*
X14763338Y-18436707D02*
X14734767Y-18436707D01*
X14734767Y-18436707D02*
X14715719Y-18427183D01*
X14715719Y-18427183D02*
X14706195Y-18408136D01*
X14706195Y-18408136D02*
X14706195Y-18398612D01*
X14706195Y-18398612D02*
X14715719Y-18379564D01*
X14715719Y-18379564D02*
X14734767Y-18370040D01*
X14734767Y-18370040D02*
X14763338Y-18370040D01*
X14763338Y-18370040D02*
X14782386Y-18379564D01*
X14858576Y-18579564D02*
X14868100Y-18570040D01*
X14868100Y-18570040D02*
X14887148Y-18541469D01*
X14887148Y-18541469D02*
X14896671Y-18522421D01*
X14896671Y-18522421D02*
X14906195Y-18493850D01*
X14906195Y-18493850D02*
X14915719Y-18446231D01*
X14915719Y-18446231D02*
X14915719Y-18408136D01*
X14915719Y-18408136D02*
X14906195Y-18360517D01*
X14906195Y-18360517D02*
X14896671Y-18331945D01*
X14896671Y-18331945D02*
X14887148Y-18312898D01*
X14887148Y-18312898D02*
X14868100Y-18284326D01*
X14868100Y-18284326D02*
X14858576Y-18274802D01*
D15*
X9838427Y-18730500D02*
X9893037Y-18675890D01*
X9838427Y-18621280D01*
X9783817Y-18675890D01*
X9838427Y-18730500D01*
D10*
X10258576Y-18767374D02*
X10144290Y-18767374D01*
X10201433Y-18767374D02*
X10201433Y-18567374D01*
X10201433Y-18567374D02*
X10182385Y-18595945D01*
X10182385Y-18595945D02*
X10163338Y-18614993D01*
X10163338Y-18614993D02*
X10144290Y-18624517D01*
X10344290Y-18748326D02*
X10353814Y-18757850D01*
X10353814Y-18757850D02*
X10344290Y-18767374D01*
X10344290Y-18767374D02*
X10334766Y-18757850D01*
X10334766Y-18757850D02*
X10344290Y-18748326D01*
X10344290Y-18748326D02*
X10344290Y-18767374D01*
X10477623Y-18567374D02*
X10496671Y-18567374D01*
X10496671Y-18567374D02*
X10515719Y-18576898D01*
X10515719Y-18576898D02*
X10525243Y-18586421D01*
X10525243Y-18586421D02*
X10534766Y-18605469D01*
X10534766Y-18605469D02*
X10544290Y-18643564D01*
X10544290Y-18643564D02*
X10544290Y-18691183D01*
X10544290Y-18691183D02*
X10534766Y-18729279D01*
X10534766Y-18729279D02*
X10525243Y-18748326D01*
X10525243Y-18748326D02*
X10515719Y-18757850D01*
X10515719Y-18757850D02*
X10496671Y-18767374D01*
X10496671Y-18767374D02*
X10477623Y-18767374D01*
X10477623Y-18767374D02*
X10458576Y-18757850D01*
X10458576Y-18757850D02*
X10449052Y-18748326D01*
X10449052Y-18748326D02*
X10439528Y-18729279D01*
X10439528Y-18729279D02*
X10430004Y-18691183D01*
X10430004Y-18691183D02*
X10430004Y-18643564D01*
X10430004Y-18643564D02*
X10439528Y-18605469D01*
X10439528Y-18605469D02*
X10449052Y-18586421D01*
X10449052Y-18586421D02*
X10458576Y-18576898D01*
X10458576Y-18576898D02*
X10477623Y-18567374D01*
X10639528Y-18767374D02*
X10677623Y-18767374D01*
X10677623Y-18767374D02*
X10696671Y-18757850D01*
X10696671Y-18757850D02*
X10706195Y-18748326D01*
X10706195Y-18748326D02*
X10725243Y-18719755D01*
X10725243Y-18719755D02*
X10734766Y-18681660D01*
X10734766Y-18681660D02*
X10734766Y-18605469D01*
X10734766Y-18605469D02*
X10725243Y-18586421D01*
X10725243Y-18586421D02*
X10715719Y-18576898D01*
X10715719Y-18576898D02*
X10696671Y-18567374D01*
X10696671Y-18567374D02*
X10658576Y-18567374D01*
X10658576Y-18567374D02*
X10639528Y-18576898D01*
X10639528Y-18576898D02*
X10630004Y-18586421D01*
X10630004Y-18586421D02*
X10620481Y-18605469D01*
X10620481Y-18605469D02*
X10620481Y-18653088D01*
X10620481Y-18653088D02*
X10630004Y-18672136D01*
X10630004Y-18672136D02*
X10639528Y-18681660D01*
X10639528Y-18681660D02*
X10658576Y-18691183D01*
X10658576Y-18691183D02*
X10696671Y-18691183D01*
X10696671Y-18691183D02*
X10715719Y-18681660D01*
X10715719Y-18681660D02*
X10725243Y-18672136D01*
X10725243Y-18672136D02*
X10734766Y-18653088D01*
X10810957Y-18586421D02*
X10820481Y-18576898D01*
X10820481Y-18576898D02*
X10839528Y-18567374D01*
X10839528Y-18567374D02*
X10887147Y-18567374D01*
X10887147Y-18567374D02*
X10906195Y-18576898D01*
X10906195Y-18576898D02*
X10915719Y-18586421D01*
X10915719Y-18586421D02*
X10925243Y-18605469D01*
X10925243Y-18605469D02*
X10925243Y-18624517D01*
X10925243Y-18624517D02*
X10915719Y-18653088D01*
X10915719Y-18653088D02*
X10801433Y-18767374D01*
X10801433Y-18767374D02*
X10925243Y-18767374D01*
X11010957Y-18767374D02*
X11010957Y-18634040D01*
X11010957Y-18653088D02*
X11020481Y-18643564D01*
X11020481Y-18643564D02*
X11039528Y-18634040D01*
X11039528Y-18634040D02*
X11068100Y-18634040D01*
X11068100Y-18634040D02*
X11087147Y-18643564D01*
X11087147Y-18643564D02*
X11096671Y-18662612D01*
X11096671Y-18662612D02*
X11096671Y-18767374D01*
X11096671Y-18662612D02*
X11106195Y-18643564D01*
X11106195Y-18643564D02*
X11125243Y-18634040D01*
X11125243Y-18634040D02*
X11153814Y-18634040D01*
X11153814Y-18634040D02*
X11172862Y-18643564D01*
X11172862Y-18643564D02*
X11182385Y-18662612D01*
X11182385Y-18662612D02*
X11182385Y-18767374D01*
X11277623Y-18767374D02*
X11277623Y-18634040D01*
X11277623Y-18653088D02*
X11287147Y-18643564D01*
X11287147Y-18643564D02*
X11306195Y-18634040D01*
X11306195Y-18634040D02*
X11334766Y-18634040D01*
X11334766Y-18634040D02*
X11353814Y-18643564D01*
X11353814Y-18643564D02*
X11363338Y-18662612D01*
X11363338Y-18662612D02*
X11363338Y-18767374D01*
X11363338Y-18662612D02*
X11372862Y-18643564D01*
X11372862Y-18643564D02*
X11391909Y-18634040D01*
X11391909Y-18634040D02*
X11420481Y-18634040D01*
X11420481Y-18634040D02*
X11439528Y-18643564D01*
X11439528Y-18643564D02*
X11449052Y-18662612D01*
X11449052Y-18662612D02*
X11449052Y-18767374D01*
X11839528Y-18557850D02*
X11668100Y-18814993D01*
X12096671Y-18567374D02*
X12115719Y-18567374D01*
X12115719Y-18567374D02*
X12134766Y-18576898D01*
X12134766Y-18576898D02*
X12144290Y-18586421D01*
X12144290Y-18586421D02*
X12153814Y-18605469D01*
X12153814Y-18605469D02*
X12163338Y-18643564D01*
X12163338Y-18643564D02*
X12163338Y-18691183D01*
X12163338Y-18691183D02*
X12153814Y-18729279D01*
X12153814Y-18729279D02*
X12144290Y-18748326D01*
X12144290Y-18748326D02*
X12134766Y-18757850D01*
X12134766Y-18757850D02*
X12115719Y-18767374D01*
X12115719Y-18767374D02*
X12096671Y-18767374D01*
X12096671Y-18767374D02*
X12077624Y-18757850D01*
X12077624Y-18757850D02*
X12068100Y-18748326D01*
X12068100Y-18748326D02*
X12058576Y-18729279D01*
X12058576Y-18729279D02*
X12049052Y-18691183D01*
X12049052Y-18691183D02*
X12049052Y-18643564D01*
X12049052Y-18643564D02*
X12058576Y-18605469D01*
X12058576Y-18605469D02*
X12068100Y-18586421D01*
X12068100Y-18586421D02*
X12077624Y-18576898D01*
X12077624Y-18576898D02*
X12096671Y-18567374D01*
X12249052Y-18748326D02*
X12258576Y-18757850D01*
X12258576Y-18757850D02*
X12249052Y-18767374D01*
X12249052Y-18767374D02*
X12239528Y-18757850D01*
X12239528Y-18757850D02*
X12249052Y-18748326D01*
X12249052Y-18748326D02*
X12249052Y-18767374D01*
X12382385Y-18567374D02*
X12401433Y-18567374D01*
X12401433Y-18567374D02*
X12420481Y-18576898D01*
X12420481Y-18576898D02*
X12430005Y-18586421D01*
X12430005Y-18586421D02*
X12439528Y-18605469D01*
X12439528Y-18605469D02*
X12449052Y-18643564D01*
X12449052Y-18643564D02*
X12449052Y-18691183D01*
X12449052Y-18691183D02*
X12439528Y-18729279D01*
X12439528Y-18729279D02*
X12430005Y-18748326D01*
X12430005Y-18748326D02*
X12420481Y-18757850D01*
X12420481Y-18757850D02*
X12401433Y-18767374D01*
X12401433Y-18767374D02*
X12382385Y-18767374D01*
X12382385Y-18767374D02*
X12363338Y-18757850D01*
X12363338Y-18757850D02*
X12353814Y-18748326D01*
X12353814Y-18748326D02*
X12344290Y-18729279D01*
X12344290Y-18729279D02*
X12334766Y-18691183D01*
X12334766Y-18691183D02*
X12334766Y-18643564D01*
X12334766Y-18643564D02*
X12344290Y-18605469D01*
X12344290Y-18605469D02*
X12353814Y-18586421D01*
X12353814Y-18586421D02*
X12363338Y-18576898D01*
X12363338Y-18576898D02*
X12382385Y-18567374D01*
X12620481Y-18634040D02*
X12620481Y-18767374D01*
X12572862Y-18557850D02*
X12525243Y-18700707D01*
X12525243Y-18700707D02*
X12649052Y-18700707D01*
X12706195Y-18567374D02*
X12830005Y-18567374D01*
X12830005Y-18567374D02*
X12763338Y-18643564D01*
X12763338Y-18643564D02*
X12791909Y-18643564D01*
X12791909Y-18643564D02*
X12810957Y-18653088D01*
X12810957Y-18653088D02*
X12820481Y-18662612D01*
X12820481Y-18662612D02*
X12830005Y-18681660D01*
X12830005Y-18681660D02*
X12830005Y-18729279D01*
X12830005Y-18729279D02*
X12820481Y-18748326D01*
X12820481Y-18748326D02*
X12810957Y-18757850D01*
X12810957Y-18757850D02*
X12791909Y-18767374D01*
X12791909Y-18767374D02*
X12734766Y-18767374D01*
X12734766Y-18767374D02*
X12715719Y-18757850D01*
X12715719Y-18757850D02*
X12706195Y-18748326D01*
X12953814Y-18567374D02*
X12972862Y-18567374D01*
X12972862Y-18567374D02*
X12991909Y-18576898D01*
X12991909Y-18576898D02*
X13001433Y-18586421D01*
X13001433Y-18586421D02*
X13010957Y-18605469D01*
X13010957Y-18605469D02*
X13020481Y-18643564D01*
X13020481Y-18643564D02*
X13020481Y-18691183D01*
X13020481Y-18691183D02*
X13010957Y-18729279D01*
X13010957Y-18729279D02*
X13001433Y-18748326D01*
X13001433Y-18748326D02*
X12991909Y-18757850D01*
X12991909Y-18757850D02*
X12972862Y-18767374D01*
X12972862Y-18767374D02*
X12953814Y-18767374D01*
X12953814Y-18767374D02*
X12934766Y-18757850D01*
X12934766Y-18757850D02*
X12925243Y-18748326D01*
X12925243Y-18748326D02*
X12915719Y-18729279D01*
X12915719Y-18729279D02*
X12906195Y-18691183D01*
X12906195Y-18691183D02*
X12906195Y-18643564D01*
X12906195Y-18643564D02*
X12915719Y-18605469D01*
X12915719Y-18605469D02*
X12925243Y-18586421D01*
X12925243Y-18586421D02*
X12934766Y-18576898D01*
X12934766Y-18576898D02*
X12953814Y-18567374D01*
X13096671Y-18567374D02*
X13096671Y-18605469D01*
X13172862Y-18567374D02*
X13172862Y-18605469D01*
X13468100Y-18843564D02*
X13458576Y-18834040D01*
X13458576Y-18834040D02*
X13439528Y-18805469D01*
X13439528Y-18805469D02*
X13430005Y-18786421D01*
X13430005Y-18786421D02*
X13420481Y-18757850D01*
X13420481Y-18757850D02*
X13410957Y-18710231D01*
X13410957Y-18710231D02*
X13410957Y-18672136D01*
X13410957Y-18672136D02*
X13420481Y-18624517D01*
X13420481Y-18624517D02*
X13430005Y-18595945D01*
X13430005Y-18595945D02*
X13439528Y-18576898D01*
X13439528Y-18576898D02*
X13458576Y-18548326D01*
X13458576Y-18548326D02*
X13468100Y-18538802D01*
X13525243Y-18567374D02*
X13649052Y-18567374D01*
X13649052Y-18567374D02*
X13582386Y-18643564D01*
X13582386Y-18643564D02*
X13610957Y-18643564D01*
X13610957Y-18643564D02*
X13630005Y-18653088D01*
X13630005Y-18653088D02*
X13639528Y-18662612D01*
X13639528Y-18662612D02*
X13649052Y-18681660D01*
X13649052Y-18681660D02*
X13649052Y-18729279D01*
X13649052Y-18729279D02*
X13639528Y-18748326D01*
X13639528Y-18748326D02*
X13630005Y-18757850D01*
X13630005Y-18757850D02*
X13610957Y-18767374D01*
X13610957Y-18767374D02*
X13553814Y-18767374D01*
X13553814Y-18767374D02*
X13534767Y-18757850D01*
X13534767Y-18757850D02*
X13525243Y-18748326D01*
X13887148Y-18767374D02*
X13887148Y-18567374D01*
X13972862Y-18767374D02*
X13972862Y-18662612D01*
X13972862Y-18662612D02*
X13963338Y-18643564D01*
X13963338Y-18643564D02*
X13944290Y-18634040D01*
X13944290Y-18634040D02*
X13915719Y-18634040D01*
X13915719Y-18634040D02*
X13896671Y-18643564D01*
X13896671Y-18643564D02*
X13887148Y-18653088D01*
X14096671Y-18767374D02*
X14077624Y-18757850D01*
X14077624Y-18757850D02*
X14068100Y-18748326D01*
X14068100Y-18748326D02*
X14058576Y-18729279D01*
X14058576Y-18729279D02*
X14058576Y-18672136D01*
X14058576Y-18672136D02*
X14068100Y-18653088D01*
X14068100Y-18653088D02*
X14077624Y-18643564D01*
X14077624Y-18643564D02*
X14096671Y-18634040D01*
X14096671Y-18634040D02*
X14125243Y-18634040D01*
X14125243Y-18634040D02*
X14144290Y-18643564D01*
X14144290Y-18643564D02*
X14153814Y-18653088D01*
X14153814Y-18653088D02*
X14163338Y-18672136D01*
X14163338Y-18672136D02*
X14163338Y-18729279D01*
X14163338Y-18729279D02*
X14153814Y-18748326D01*
X14153814Y-18748326D02*
X14144290Y-18757850D01*
X14144290Y-18757850D02*
X14125243Y-18767374D01*
X14125243Y-18767374D02*
X14096671Y-18767374D01*
X14277624Y-18767374D02*
X14258576Y-18757850D01*
X14258576Y-18757850D02*
X14249052Y-18738802D01*
X14249052Y-18738802D02*
X14249052Y-18567374D01*
X14430005Y-18757850D02*
X14410957Y-18767374D01*
X14410957Y-18767374D02*
X14372862Y-18767374D01*
X14372862Y-18767374D02*
X14353814Y-18757850D01*
X14353814Y-18757850D02*
X14344290Y-18738802D01*
X14344290Y-18738802D02*
X14344290Y-18662612D01*
X14344290Y-18662612D02*
X14353814Y-18643564D01*
X14353814Y-18643564D02*
X14372862Y-18634040D01*
X14372862Y-18634040D02*
X14410957Y-18634040D01*
X14410957Y-18634040D02*
X14430005Y-18643564D01*
X14430005Y-18643564D02*
X14439529Y-18662612D01*
X14439529Y-18662612D02*
X14439529Y-18681660D01*
X14439529Y-18681660D02*
X14344290Y-18700707D01*
X14515719Y-18757850D02*
X14534767Y-18767374D01*
X14534767Y-18767374D02*
X14572862Y-18767374D01*
X14572862Y-18767374D02*
X14591910Y-18757850D01*
X14591910Y-18757850D02*
X14601433Y-18738802D01*
X14601433Y-18738802D02*
X14601433Y-18729279D01*
X14601433Y-18729279D02*
X14591910Y-18710231D01*
X14591910Y-18710231D02*
X14572862Y-18700707D01*
X14572862Y-18700707D02*
X14544290Y-18700707D01*
X14544290Y-18700707D02*
X14525243Y-18691183D01*
X14525243Y-18691183D02*
X14515719Y-18672136D01*
X14515719Y-18672136D02*
X14515719Y-18662612D01*
X14515719Y-18662612D02*
X14525243Y-18643564D01*
X14525243Y-18643564D02*
X14544290Y-18634040D01*
X14544290Y-18634040D02*
X14572862Y-18634040D01*
X14572862Y-18634040D02*
X14591910Y-18643564D01*
X14668100Y-18843564D02*
X14677624Y-18834040D01*
X14677624Y-18834040D02*
X14696671Y-18805469D01*
X14696671Y-18805469D02*
X14706195Y-18786421D01*
X14706195Y-18786421D02*
X14715719Y-18757850D01*
X14715719Y-18757850D02*
X14725243Y-18710231D01*
X14725243Y-18710231D02*
X14725243Y-18672136D01*
X14725243Y-18672136D02*
X14715719Y-18624517D01*
X14715719Y-18624517D02*
X14706195Y-18595945D01*
X14706195Y-18595945D02*
X14696671Y-18576898D01*
X14696671Y-18576898D02*
X14677624Y-18548326D01*
X14677624Y-18548326D02*
X14668100Y-18538802D01*
D16*
X9776197Y-18881470D02*
X9893037Y-18998310D01*
X9893037Y-18881470D02*
X9776197Y-18998310D01*
X9893037Y-18939890D02*
G75*
G03*
X9893037Y-18939890I-58420J0D01*
G01*
D10*
X10258576Y-19031374D02*
X10144290Y-19031374D01*
X10201433Y-19031374D02*
X10201433Y-18831374D01*
X10201433Y-18831374D02*
X10182385Y-18859945D01*
X10182385Y-18859945D02*
X10163338Y-18878993D01*
X10163338Y-18878993D02*
X10144290Y-18888517D01*
X10344290Y-19012326D02*
X10353814Y-19021850D01*
X10353814Y-19021850D02*
X10344290Y-19031374D01*
X10344290Y-19031374D02*
X10334766Y-19021850D01*
X10334766Y-19021850D02*
X10344290Y-19012326D01*
X10344290Y-19012326D02*
X10344290Y-19031374D01*
X10544290Y-19031374D02*
X10430004Y-19031374D01*
X10487147Y-19031374D02*
X10487147Y-18831374D01*
X10487147Y-18831374D02*
X10468100Y-18859945D01*
X10468100Y-18859945D02*
X10449052Y-18878993D01*
X10449052Y-18878993D02*
X10430004Y-18888517D01*
X10715719Y-18831374D02*
X10677623Y-18831374D01*
X10677623Y-18831374D02*
X10658576Y-18840898D01*
X10658576Y-18840898D02*
X10649052Y-18850421D01*
X10649052Y-18850421D02*
X10630004Y-18878993D01*
X10630004Y-18878993D02*
X10620481Y-18917088D01*
X10620481Y-18917088D02*
X10620481Y-18993279D01*
X10620481Y-18993279D02*
X10630004Y-19012326D01*
X10630004Y-19012326D02*
X10639528Y-19021850D01*
X10639528Y-19021850D02*
X10658576Y-19031374D01*
X10658576Y-19031374D02*
X10696671Y-19031374D01*
X10696671Y-19031374D02*
X10715719Y-19021850D01*
X10715719Y-19021850D02*
X10725243Y-19012326D01*
X10725243Y-19012326D02*
X10734766Y-18993279D01*
X10734766Y-18993279D02*
X10734766Y-18945660D01*
X10734766Y-18945660D02*
X10725243Y-18926612D01*
X10725243Y-18926612D02*
X10715719Y-18917088D01*
X10715719Y-18917088D02*
X10696671Y-18907564D01*
X10696671Y-18907564D02*
X10658576Y-18907564D01*
X10658576Y-18907564D02*
X10639528Y-18917088D01*
X10639528Y-18917088D02*
X10630004Y-18926612D01*
X10630004Y-18926612D02*
X10620481Y-18945660D01*
X10849052Y-18917088D02*
X10830004Y-18907564D01*
X10830004Y-18907564D02*
X10820481Y-18898040D01*
X10820481Y-18898040D02*
X10810957Y-18878993D01*
X10810957Y-18878993D02*
X10810957Y-18869469D01*
X10810957Y-18869469D02*
X10820481Y-18850421D01*
X10820481Y-18850421D02*
X10830004Y-18840898D01*
X10830004Y-18840898D02*
X10849052Y-18831374D01*
X10849052Y-18831374D02*
X10887147Y-18831374D01*
X10887147Y-18831374D02*
X10906195Y-18840898D01*
X10906195Y-18840898D02*
X10915719Y-18850421D01*
X10915719Y-18850421D02*
X10925243Y-18869469D01*
X10925243Y-18869469D02*
X10925243Y-18878993D01*
X10925243Y-18878993D02*
X10915719Y-18898040D01*
X10915719Y-18898040D02*
X10906195Y-18907564D01*
X10906195Y-18907564D02*
X10887147Y-18917088D01*
X10887147Y-18917088D02*
X10849052Y-18917088D01*
X10849052Y-18917088D02*
X10830004Y-18926612D01*
X10830004Y-18926612D02*
X10820481Y-18936136D01*
X10820481Y-18936136D02*
X10810957Y-18955183D01*
X10810957Y-18955183D02*
X10810957Y-18993279D01*
X10810957Y-18993279D02*
X10820481Y-19012326D01*
X10820481Y-19012326D02*
X10830004Y-19021850D01*
X10830004Y-19021850D02*
X10849052Y-19031374D01*
X10849052Y-19031374D02*
X10887147Y-19031374D01*
X10887147Y-19031374D02*
X10906195Y-19021850D01*
X10906195Y-19021850D02*
X10915719Y-19012326D01*
X10915719Y-19012326D02*
X10925243Y-18993279D01*
X10925243Y-18993279D02*
X10925243Y-18955183D01*
X10925243Y-18955183D02*
X10915719Y-18936136D01*
X10915719Y-18936136D02*
X10906195Y-18926612D01*
X10906195Y-18926612D02*
X10887147Y-18917088D01*
X11010957Y-19031374D02*
X11010957Y-18898040D01*
X11010957Y-18917088D02*
X11020481Y-18907564D01*
X11020481Y-18907564D02*
X11039528Y-18898040D01*
X11039528Y-18898040D02*
X11068100Y-18898040D01*
X11068100Y-18898040D02*
X11087147Y-18907564D01*
X11087147Y-18907564D02*
X11096671Y-18926612D01*
X11096671Y-18926612D02*
X11096671Y-19031374D01*
X11096671Y-18926612D02*
X11106195Y-18907564D01*
X11106195Y-18907564D02*
X11125243Y-18898040D01*
X11125243Y-18898040D02*
X11153814Y-18898040D01*
X11153814Y-18898040D02*
X11172862Y-18907564D01*
X11172862Y-18907564D02*
X11182385Y-18926612D01*
X11182385Y-18926612D02*
X11182385Y-19031374D01*
X11277623Y-19031374D02*
X11277623Y-18898040D01*
X11277623Y-18917088D02*
X11287147Y-18907564D01*
X11287147Y-18907564D02*
X11306195Y-18898040D01*
X11306195Y-18898040D02*
X11334766Y-18898040D01*
X11334766Y-18898040D02*
X11353814Y-18907564D01*
X11353814Y-18907564D02*
X11363338Y-18926612D01*
X11363338Y-18926612D02*
X11363338Y-19031374D01*
X11363338Y-18926612D02*
X11372862Y-18907564D01*
X11372862Y-18907564D02*
X11391909Y-18898040D01*
X11391909Y-18898040D02*
X11420481Y-18898040D01*
X11420481Y-18898040D02*
X11439528Y-18907564D01*
X11439528Y-18907564D02*
X11449052Y-18926612D01*
X11449052Y-18926612D02*
X11449052Y-19031374D01*
X11839528Y-18821850D02*
X11668100Y-19078993D01*
X12096671Y-18831374D02*
X12115719Y-18831374D01*
X12115719Y-18831374D02*
X12134766Y-18840898D01*
X12134766Y-18840898D02*
X12144290Y-18850421D01*
X12144290Y-18850421D02*
X12153814Y-18869469D01*
X12153814Y-18869469D02*
X12163338Y-18907564D01*
X12163338Y-18907564D02*
X12163338Y-18955183D01*
X12163338Y-18955183D02*
X12153814Y-18993279D01*
X12153814Y-18993279D02*
X12144290Y-19012326D01*
X12144290Y-19012326D02*
X12134766Y-19021850D01*
X12134766Y-19021850D02*
X12115719Y-19031374D01*
X12115719Y-19031374D02*
X12096671Y-19031374D01*
X12096671Y-19031374D02*
X12077624Y-19021850D01*
X12077624Y-19021850D02*
X12068100Y-19012326D01*
X12068100Y-19012326D02*
X12058576Y-18993279D01*
X12058576Y-18993279D02*
X12049052Y-18955183D01*
X12049052Y-18955183D02*
X12049052Y-18907564D01*
X12049052Y-18907564D02*
X12058576Y-18869469D01*
X12058576Y-18869469D02*
X12068100Y-18850421D01*
X12068100Y-18850421D02*
X12077624Y-18840898D01*
X12077624Y-18840898D02*
X12096671Y-18831374D01*
X12249052Y-19012326D02*
X12258576Y-19021850D01*
X12258576Y-19021850D02*
X12249052Y-19031374D01*
X12249052Y-19031374D02*
X12239528Y-19021850D01*
X12239528Y-19021850D02*
X12249052Y-19012326D01*
X12249052Y-19012326D02*
X12249052Y-19031374D01*
X12382385Y-18831374D02*
X12401433Y-18831374D01*
X12401433Y-18831374D02*
X12420481Y-18840898D01*
X12420481Y-18840898D02*
X12430005Y-18850421D01*
X12430005Y-18850421D02*
X12439528Y-18869469D01*
X12439528Y-18869469D02*
X12449052Y-18907564D01*
X12449052Y-18907564D02*
X12449052Y-18955183D01*
X12449052Y-18955183D02*
X12439528Y-18993279D01*
X12439528Y-18993279D02*
X12430005Y-19012326D01*
X12430005Y-19012326D02*
X12420481Y-19021850D01*
X12420481Y-19021850D02*
X12401433Y-19031374D01*
X12401433Y-19031374D02*
X12382385Y-19031374D01*
X12382385Y-19031374D02*
X12363338Y-19021850D01*
X12363338Y-19021850D02*
X12353814Y-19012326D01*
X12353814Y-19012326D02*
X12344290Y-18993279D01*
X12344290Y-18993279D02*
X12334766Y-18955183D01*
X12334766Y-18955183D02*
X12334766Y-18907564D01*
X12334766Y-18907564D02*
X12344290Y-18869469D01*
X12344290Y-18869469D02*
X12353814Y-18850421D01*
X12353814Y-18850421D02*
X12363338Y-18840898D01*
X12363338Y-18840898D02*
X12382385Y-18831374D01*
X12620481Y-18898040D02*
X12620481Y-19031374D01*
X12572862Y-18821850D02*
X12525243Y-18964707D01*
X12525243Y-18964707D02*
X12649052Y-18964707D01*
X12810957Y-18831374D02*
X12772862Y-18831374D01*
X12772862Y-18831374D02*
X12753814Y-18840898D01*
X12753814Y-18840898D02*
X12744290Y-18850421D01*
X12744290Y-18850421D02*
X12725243Y-18878993D01*
X12725243Y-18878993D02*
X12715719Y-18917088D01*
X12715719Y-18917088D02*
X12715719Y-18993279D01*
X12715719Y-18993279D02*
X12725243Y-19012326D01*
X12725243Y-19012326D02*
X12734766Y-19021850D01*
X12734766Y-19021850D02*
X12753814Y-19031374D01*
X12753814Y-19031374D02*
X12791909Y-19031374D01*
X12791909Y-19031374D02*
X12810957Y-19021850D01*
X12810957Y-19021850D02*
X12820481Y-19012326D01*
X12820481Y-19012326D02*
X12830005Y-18993279D01*
X12830005Y-18993279D02*
X12830005Y-18945660D01*
X12830005Y-18945660D02*
X12820481Y-18926612D01*
X12820481Y-18926612D02*
X12810957Y-18917088D01*
X12810957Y-18917088D02*
X12791909Y-18907564D01*
X12791909Y-18907564D02*
X12753814Y-18907564D01*
X12753814Y-18907564D02*
X12734766Y-18917088D01*
X12734766Y-18917088D02*
X12725243Y-18926612D01*
X12725243Y-18926612D02*
X12715719Y-18945660D01*
X12953814Y-18831374D02*
X12972862Y-18831374D01*
X12972862Y-18831374D02*
X12991909Y-18840898D01*
X12991909Y-18840898D02*
X13001433Y-18850421D01*
X13001433Y-18850421D02*
X13010957Y-18869469D01*
X13010957Y-18869469D02*
X13020481Y-18907564D01*
X13020481Y-18907564D02*
X13020481Y-18955183D01*
X13020481Y-18955183D02*
X13010957Y-18993279D01*
X13010957Y-18993279D02*
X13001433Y-19012326D01*
X13001433Y-19012326D02*
X12991909Y-19021850D01*
X12991909Y-19021850D02*
X12972862Y-19031374D01*
X12972862Y-19031374D02*
X12953814Y-19031374D01*
X12953814Y-19031374D02*
X12934766Y-19021850D01*
X12934766Y-19021850D02*
X12925243Y-19012326D01*
X12925243Y-19012326D02*
X12915719Y-18993279D01*
X12915719Y-18993279D02*
X12906195Y-18955183D01*
X12906195Y-18955183D02*
X12906195Y-18907564D01*
X12906195Y-18907564D02*
X12915719Y-18869469D01*
X12915719Y-18869469D02*
X12925243Y-18850421D01*
X12925243Y-18850421D02*
X12934766Y-18840898D01*
X12934766Y-18840898D02*
X12953814Y-18831374D01*
X13096671Y-18831374D02*
X13096671Y-18869469D01*
X13172862Y-18831374D02*
X13172862Y-18869469D01*
X13468100Y-19107564D02*
X13458576Y-19098040D01*
X13458576Y-19098040D02*
X13439528Y-19069469D01*
X13439528Y-19069469D02*
X13430005Y-19050421D01*
X13430005Y-19050421D02*
X13420481Y-19021850D01*
X13420481Y-19021850D02*
X13410957Y-18974231D01*
X13410957Y-18974231D02*
X13410957Y-18936136D01*
X13410957Y-18936136D02*
X13420481Y-18888517D01*
X13420481Y-18888517D02*
X13430005Y-18859945D01*
X13430005Y-18859945D02*
X13439528Y-18840898D01*
X13439528Y-18840898D02*
X13458576Y-18812326D01*
X13458576Y-18812326D02*
X13468100Y-18802802D01*
X13534767Y-18850421D02*
X13544290Y-18840898D01*
X13544290Y-18840898D02*
X13563338Y-18831374D01*
X13563338Y-18831374D02*
X13610957Y-18831374D01*
X13610957Y-18831374D02*
X13630005Y-18840898D01*
X13630005Y-18840898D02*
X13639528Y-18850421D01*
X13639528Y-18850421D02*
X13649052Y-18869469D01*
X13649052Y-18869469D02*
X13649052Y-18888517D01*
X13649052Y-18888517D02*
X13639528Y-18917088D01*
X13639528Y-18917088D02*
X13525243Y-19031374D01*
X13525243Y-19031374D02*
X13649052Y-19031374D01*
X13887148Y-19031374D02*
X13887148Y-18831374D01*
X13972862Y-19031374D02*
X13972862Y-18926612D01*
X13972862Y-18926612D02*
X13963338Y-18907564D01*
X13963338Y-18907564D02*
X13944290Y-18898040D01*
X13944290Y-18898040D02*
X13915719Y-18898040D01*
X13915719Y-18898040D02*
X13896671Y-18907564D01*
X13896671Y-18907564D02*
X13887148Y-18917088D01*
X14096671Y-19031374D02*
X14077624Y-19021850D01*
X14077624Y-19021850D02*
X14068100Y-19012326D01*
X14068100Y-19012326D02*
X14058576Y-18993279D01*
X14058576Y-18993279D02*
X14058576Y-18936136D01*
X14058576Y-18936136D02*
X14068100Y-18917088D01*
X14068100Y-18917088D02*
X14077624Y-18907564D01*
X14077624Y-18907564D02*
X14096671Y-18898040D01*
X14096671Y-18898040D02*
X14125243Y-18898040D01*
X14125243Y-18898040D02*
X14144290Y-18907564D01*
X14144290Y-18907564D02*
X14153814Y-18917088D01*
X14153814Y-18917088D02*
X14163338Y-18936136D01*
X14163338Y-18936136D02*
X14163338Y-18993279D01*
X14163338Y-18993279D02*
X14153814Y-19012326D01*
X14153814Y-19012326D02*
X14144290Y-19021850D01*
X14144290Y-19021850D02*
X14125243Y-19031374D01*
X14125243Y-19031374D02*
X14096671Y-19031374D01*
X14277624Y-19031374D02*
X14258576Y-19021850D01*
X14258576Y-19021850D02*
X14249052Y-19002802D01*
X14249052Y-19002802D02*
X14249052Y-18831374D01*
X14430005Y-19021850D02*
X14410957Y-19031374D01*
X14410957Y-19031374D02*
X14372862Y-19031374D01*
X14372862Y-19031374D02*
X14353814Y-19021850D01*
X14353814Y-19021850D02*
X14344290Y-19002802D01*
X14344290Y-19002802D02*
X14344290Y-18926612D01*
X14344290Y-18926612D02*
X14353814Y-18907564D01*
X14353814Y-18907564D02*
X14372862Y-18898040D01*
X14372862Y-18898040D02*
X14410957Y-18898040D01*
X14410957Y-18898040D02*
X14430005Y-18907564D01*
X14430005Y-18907564D02*
X14439529Y-18926612D01*
X14439529Y-18926612D02*
X14439529Y-18945660D01*
X14439529Y-18945660D02*
X14344290Y-18964707D01*
X14515719Y-19021850D02*
X14534767Y-19031374D01*
X14534767Y-19031374D02*
X14572862Y-19031374D01*
X14572862Y-19031374D02*
X14591910Y-19021850D01*
X14591910Y-19021850D02*
X14601433Y-19002802D01*
X14601433Y-19002802D02*
X14601433Y-18993279D01*
X14601433Y-18993279D02*
X14591910Y-18974231D01*
X14591910Y-18974231D02*
X14572862Y-18964707D01*
X14572862Y-18964707D02*
X14544290Y-18964707D01*
X14544290Y-18964707D02*
X14525243Y-18955183D01*
X14525243Y-18955183D02*
X14515719Y-18936136D01*
X14515719Y-18936136D02*
X14515719Y-18926612D01*
X14515719Y-18926612D02*
X14525243Y-18907564D01*
X14525243Y-18907564D02*
X14544290Y-18898040D01*
X14544290Y-18898040D02*
X14572862Y-18898040D01*
X14572862Y-18898040D02*
X14591910Y-18907564D01*
X14668100Y-19107564D02*
X14677624Y-19098040D01*
X14677624Y-19098040D02*
X14696671Y-19069469D01*
X14696671Y-19069469D02*
X14706195Y-19050421D01*
X14706195Y-19050421D02*
X14715719Y-19021850D01*
X14715719Y-19021850D02*
X14725243Y-18974231D01*
X14725243Y-18974231D02*
X14725243Y-18936136D01*
X14725243Y-18936136D02*
X14715719Y-18888517D01*
X14715719Y-18888517D02*
X14706195Y-18859945D01*
X14706195Y-18859945D02*
X14696671Y-18840898D01*
X14696671Y-18840898D02*
X14677624Y-18812326D01*
X14677624Y-18812326D02*
X14668100Y-18802802D01*
D17*
X9743177Y-19128960D02*
X9893037Y-19278820D01*
X9893037Y-19128960D02*
X9743177Y-19278820D01*
X9818107Y-19128960D02*
X9818107Y-19278820D01*
X9743177Y-19203890D02*
X9893037Y-19203890D01*
D10*
X10258576Y-19295374D02*
X10144290Y-19295374D01*
X10201433Y-19295374D02*
X10201433Y-19095374D01*
X10201433Y-19095374D02*
X10182385Y-19123945D01*
X10182385Y-19123945D02*
X10163338Y-19142993D01*
X10163338Y-19142993D02*
X10144290Y-19152517D01*
X10344290Y-19276326D02*
X10353814Y-19285850D01*
X10353814Y-19285850D02*
X10344290Y-19295374D01*
X10344290Y-19295374D02*
X10334766Y-19285850D01*
X10334766Y-19285850D02*
X10344290Y-19276326D01*
X10344290Y-19276326D02*
X10344290Y-19295374D01*
X10525243Y-19162040D02*
X10525243Y-19295374D01*
X10477623Y-19085850D02*
X10430004Y-19228707D01*
X10430004Y-19228707D02*
X10553814Y-19228707D01*
X10639528Y-19295374D02*
X10677623Y-19295374D01*
X10677623Y-19295374D02*
X10696671Y-19285850D01*
X10696671Y-19285850D02*
X10706195Y-19276326D01*
X10706195Y-19276326D02*
X10725243Y-19247755D01*
X10725243Y-19247755D02*
X10734766Y-19209660D01*
X10734766Y-19209660D02*
X10734766Y-19133469D01*
X10734766Y-19133469D02*
X10725243Y-19114421D01*
X10725243Y-19114421D02*
X10715719Y-19104898D01*
X10715719Y-19104898D02*
X10696671Y-19095374D01*
X10696671Y-19095374D02*
X10658576Y-19095374D01*
X10658576Y-19095374D02*
X10639528Y-19104898D01*
X10639528Y-19104898D02*
X10630004Y-19114421D01*
X10630004Y-19114421D02*
X10620481Y-19133469D01*
X10620481Y-19133469D02*
X10620481Y-19181088D01*
X10620481Y-19181088D02*
X10630004Y-19200136D01*
X10630004Y-19200136D02*
X10639528Y-19209660D01*
X10639528Y-19209660D02*
X10658576Y-19219183D01*
X10658576Y-19219183D02*
X10696671Y-19219183D01*
X10696671Y-19219183D02*
X10715719Y-19209660D01*
X10715719Y-19209660D02*
X10725243Y-19200136D01*
X10725243Y-19200136D02*
X10734766Y-19181088D01*
X10830004Y-19295374D02*
X10868100Y-19295374D01*
X10868100Y-19295374D02*
X10887147Y-19285850D01*
X10887147Y-19285850D02*
X10896671Y-19276326D01*
X10896671Y-19276326D02*
X10915719Y-19247755D01*
X10915719Y-19247755D02*
X10925243Y-19209660D01*
X10925243Y-19209660D02*
X10925243Y-19133469D01*
X10925243Y-19133469D02*
X10915719Y-19114421D01*
X10915719Y-19114421D02*
X10906195Y-19104898D01*
X10906195Y-19104898D02*
X10887147Y-19095374D01*
X10887147Y-19095374D02*
X10849052Y-19095374D01*
X10849052Y-19095374D02*
X10830004Y-19104898D01*
X10830004Y-19104898D02*
X10820481Y-19114421D01*
X10820481Y-19114421D02*
X10810957Y-19133469D01*
X10810957Y-19133469D02*
X10810957Y-19181088D01*
X10810957Y-19181088D02*
X10820481Y-19200136D01*
X10820481Y-19200136D02*
X10830004Y-19209660D01*
X10830004Y-19209660D02*
X10849052Y-19219183D01*
X10849052Y-19219183D02*
X10887147Y-19219183D01*
X10887147Y-19219183D02*
X10906195Y-19209660D01*
X10906195Y-19209660D02*
X10915719Y-19200136D01*
X10915719Y-19200136D02*
X10925243Y-19181088D01*
X11010957Y-19295374D02*
X11010957Y-19162040D01*
X11010957Y-19181088D02*
X11020481Y-19171564D01*
X11020481Y-19171564D02*
X11039528Y-19162040D01*
X11039528Y-19162040D02*
X11068100Y-19162040D01*
X11068100Y-19162040D02*
X11087147Y-19171564D01*
X11087147Y-19171564D02*
X11096671Y-19190612D01*
X11096671Y-19190612D02*
X11096671Y-19295374D01*
X11096671Y-19190612D02*
X11106195Y-19171564D01*
X11106195Y-19171564D02*
X11125243Y-19162040D01*
X11125243Y-19162040D02*
X11153814Y-19162040D01*
X11153814Y-19162040D02*
X11172862Y-19171564D01*
X11172862Y-19171564D02*
X11182385Y-19190612D01*
X11182385Y-19190612D02*
X11182385Y-19295374D01*
X11277623Y-19295374D02*
X11277623Y-19162040D01*
X11277623Y-19181088D02*
X11287147Y-19171564D01*
X11287147Y-19171564D02*
X11306195Y-19162040D01*
X11306195Y-19162040D02*
X11334766Y-19162040D01*
X11334766Y-19162040D02*
X11353814Y-19171564D01*
X11353814Y-19171564D02*
X11363338Y-19190612D01*
X11363338Y-19190612D02*
X11363338Y-19295374D01*
X11363338Y-19190612D02*
X11372862Y-19171564D01*
X11372862Y-19171564D02*
X11391909Y-19162040D01*
X11391909Y-19162040D02*
X11420481Y-19162040D01*
X11420481Y-19162040D02*
X11439528Y-19171564D01*
X11439528Y-19171564D02*
X11449052Y-19190612D01*
X11449052Y-19190612D02*
X11449052Y-19295374D01*
X11839528Y-19085850D02*
X11668100Y-19342993D01*
X12096671Y-19095374D02*
X12115719Y-19095374D01*
X12115719Y-19095374D02*
X12134766Y-19104898D01*
X12134766Y-19104898D02*
X12144290Y-19114421D01*
X12144290Y-19114421D02*
X12153814Y-19133469D01*
X12153814Y-19133469D02*
X12163338Y-19171564D01*
X12163338Y-19171564D02*
X12163338Y-19219183D01*
X12163338Y-19219183D02*
X12153814Y-19257279D01*
X12153814Y-19257279D02*
X12144290Y-19276326D01*
X12144290Y-19276326D02*
X12134766Y-19285850D01*
X12134766Y-19285850D02*
X12115719Y-19295374D01*
X12115719Y-19295374D02*
X12096671Y-19295374D01*
X12096671Y-19295374D02*
X12077624Y-19285850D01*
X12077624Y-19285850D02*
X12068100Y-19276326D01*
X12068100Y-19276326D02*
X12058576Y-19257279D01*
X12058576Y-19257279D02*
X12049052Y-19219183D01*
X12049052Y-19219183D02*
X12049052Y-19171564D01*
X12049052Y-19171564D02*
X12058576Y-19133469D01*
X12058576Y-19133469D02*
X12068100Y-19114421D01*
X12068100Y-19114421D02*
X12077624Y-19104898D01*
X12077624Y-19104898D02*
X12096671Y-19095374D01*
X12249052Y-19276326D02*
X12258576Y-19285850D01*
X12258576Y-19285850D02*
X12249052Y-19295374D01*
X12249052Y-19295374D02*
X12239528Y-19285850D01*
X12239528Y-19285850D02*
X12249052Y-19276326D01*
X12249052Y-19276326D02*
X12249052Y-19295374D01*
X12382385Y-19095374D02*
X12401433Y-19095374D01*
X12401433Y-19095374D02*
X12420481Y-19104898D01*
X12420481Y-19104898D02*
X12430005Y-19114421D01*
X12430005Y-19114421D02*
X12439528Y-19133469D01*
X12439528Y-19133469D02*
X12449052Y-19171564D01*
X12449052Y-19171564D02*
X12449052Y-19219183D01*
X12449052Y-19219183D02*
X12439528Y-19257279D01*
X12439528Y-19257279D02*
X12430005Y-19276326D01*
X12430005Y-19276326D02*
X12420481Y-19285850D01*
X12420481Y-19285850D02*
X12401433Y-19295374D01*
X12401433Y-19295374D02*
X12382385Y-19295374D01*
X12382385Y-19295374D02*
X12363338Y-19285850D01*
X12363338Y-19285850D02*
X12353814Y-19276326D01*
X12353814Y-19276326D02*
X12344290Y-19257279D01*
X12344290Y-19257279D02*
X12334766Y-19219183D01*
X12334766Y-19219183D02*
X12334766Y-19171564D01*
X12334766Y-19171564D02*
X12344290Y-19133469D01*
X12344290Y-19133469D02*
X12353814Y-19114421D01*
X12353814Y-19114421D02*
X12363338Y-19104898D01*
X12363338Y-19104898D02*
X12382385Y-19095374D01*
X12630005Y-19095374D02*
X12534766Y-19095374D01*
X12534766Y-19095374D02*
X12525243Y-19190612D01*
X12525243Y-19190612D02*
X12534766Y-19181088D01*
X12534766Y-19181088D02*
X12553814Y-19171564D01*
X12553814Y-19171564D02*
X12601433Y-19171564D01*
X12601433Y-19171564D02*
X12620481Y-19181088D01*
X12620481Y-19181088D02*
X12630005Y-19190612D01*
X12630005Y-19190612D02*
X12639528Y-19209660D01*
X12639528Y-19209660D02*
X12639528Y-19257279D01*
X12639528Y-19257279D02*
X12630005Y-19276326D01*
X12630005Y-19276326D02*
X12620481Y-19285850D01*
X12620481Y-19285850D02*
X12601433Y-19295374D01*
X12601433Y-19295374D02*
X12553814Y-19295374D01*
X12553814Y-19295374D02*
X12534766Y-19285850D01*
X12534766Y-19285850D02*
X12525243Y-19276326D01*
X12734766Y-19295374D02*
X12772862Y-19295374D01*
X12772862Y-19295374D02*
X12791909Y-19285850D01*
X12791909Y-19285850D02*
X12801433Y-19276326D01*
X12801433Y-19276326D02*
X12820481Y-19247755D01*
X12820481Y-19247755D02*
X12830005Y-19209660D01*
X12830005Y-19209660D02*
X12830005Y-19133469D01*
X12830005Y-19133469D02*
X12820481Y-19114421D01*
X12820481Y-19114421D02*
X12810957Y-19104898D01*
X12810957Y-19104898D02*
X12791909Y-19095374D01*
X12791909Y-19095374D02*
X12753814Y-19095374D01*
X12753814Y-19095374D02*
X12734766Y-19104898D01*
X12734766Y-19104898D02*
X12725243Y-19114421D01*
X12725243Y-19114421D02*
X12715719Y-19133469D01*
X12715719Y-19133469D02*
X12715719Y-19181088D01*
X12715719Y-19181088D02*
X12725243Y-19200136D01*
X12725243Y-19200136D02*
X12734766Y-19209660D01*
X12734766Y-19209660D02*
X12753814Y-19219183D01*
X12753814Y-19219183D02*
X12791909Y-19219183D01*
X12791909Y-19219183D02*
X12810957Y-19209660D01*
X12810957Y-19209660D02*
X12820481Y-19200136D01*
X12820481Y-19200136D02*
X12830005Y-19181088D01*
X12953814Y-19095374D02*
X12972862Y-19095374D01*
X12972862Y-19095374D02*
X12991909Y-19104898D01*
X12991909Y-19104898D02*
X13001433Y-19114421D01*
X13001433Y-19114421D02*
X13010957Y-19133469D01*
X13010957Y-19133469D02*
X13020481Y-19171564D01*
X13020481Y-19171564D02*
X13020481Y-19219183D01*
X13020481Y-19219183D02*
X13010957Y-19257279D01*
X13010957Y-19257279D02*
X13001433Y-19276326D01*
X13001433Y-19276326D02*
X12991909Y-19285850D01*
X12991909Y-19285850D02*
X12972862Y-19295374D01*
X12972862Y-19295374D02*
X12953814Y-19295374D01*
X12953814Y-19295374D02*
X12934766Y-19285850D01*
X12934766Y-19285850D02*
X12925243Y-19276326D01*
X12925243Y-19276326D02*
X12915719Y-19257279D01*
X12915719Y-19257279D02*
X12906195Y-19219183D01*
X12906195Y-19219183D02*
X12906195Y-19171564D01*
X12906195Y-19171564D02*
X12915719Y-19133469D01*
X12915719Y-19133469D02*
X12925243Y-19114421D01*
X12925243Y-19114421D02*
X12934766Y-19104898D01*
X12934766Y-19104898D02*
X12953814Y-19095374D01*
X13096671Y-19095374D02*
X13096671Y-19133469D01*
X13172862Y-19095374D02*
X13172862Y-19133469D01*
X13468100Y-19371564D02*
X13458576Y-19362040D01*
X13458576Y-19362040D02*
X13439528Y-19333469D01*
X13439528Y-19333469D02*
X13430005Y-19314421D01*
X13430005Y-19314421D02*
X13420481Y-19285850D01*
X13420481Y-19285850D02*
X13410957Y-19238231D01*
X13410957Y-19238231D02*
X13410957Y-19200136D01*
X13410957Y-19200136D02*
X13420481Y-19152517D01*
X13420481Y-19152517D02*
X13430005Y-19123945D01*
X13430005Y-19123945D02*
X13439528Y-19104898D01*
X13439528Y-19104898D02*
X13458576Y-19076326D01*
X13458576Y-19076326D02*
X13468100Y-19066802D01*
X13630005Y-19162040D02*
X13630005Y-19295374D01*
X13582386Y-19085850D02*
X13534767Y-19228707D01*
X13534767Y-19228707D02*
X13658576Y-19228707D01*
X13887148Y-19295374D02*
X13887148Y-19095374D01*
X13972862Y-19295374D02*
X13972862Y-19190612D01*
X13972862Y-19190612D02*
X13963338Y-19171564D01*
X13963338Y-19171564D02*
X13944290Y-19162040D01*
X13944290Y-19162040D02*
X13915719Y-19162040D01*
X13915719Y-19162040D02*
X13896671Y-19171564D01*
X13896671Y-19171564D02*
X13887148Y-19181088D01*
X14096671Y-19295374D02*
X14077624Y-19285850D01*
X14077624Y-19285850D02*
X14068100Y-19276326D01*
X14068100Y-19276326D02*
X14058576Y-19257279D01*
X14058576Y-19257279D02*
X14058576Y-19200136D01*
X14058576Y-19200136D02*
X14068100Y-19181088D01*
X14068100Y-19181088D02*
X14077624Y-19171564D01*
X14077624Y-19171564D02*
X14096671Y-19162040D01*
X14096671Y-19162040D02*
X14125243Y-19162040D01*
X14125243Y-19162040D02*
X14144290Y-19171564D01*
X14144290Y-19171564D02*
X14153814Y-19181088D01*
X14153814Y-19181088D02*
X14163338Y-19200136D01*
X14163338Y-19200136D02*
X14163338Y-19257279D01*
X14163338Y-19257279D02*
X14153814Y-19276326D01*
X14153814Y-19276326D02*
X14144290Y-19285850D01*
X14144290Y-19285850D02*
X14125243Y-19295374D01*
X14125243Y-19295374D02*
X14096671Y-19295374D01*
X14277624Y-19295374D02*
X14258576Y-19285850D01*
X14258576Y-19285850D02*
X14249052Y-19266802D01*
X14249052Y-19266802D02*
X14249052Y-19095374D01*
X14430005Y-19285850D02*
X14410957Y-19295374D01*
X14410957Y-19295374D02*
X14372862Y-19295374D01*
X14372862Y-19295374D02*
X14353814Y-19285850D01*
X14353814Y-19285850D02*
X14344290Y-19266802D01*
X14344290Y-19266802D02*
X14344290Y-19190612D01*
X14344290Y-19190612D02*
X14353814Y-19171564D01*
X14353814Y-19171564D02*
X14372862Y-19162040D01*
X14372862Y-19162040D02*
X14410957Y-19162040D01*
X14410957Y-19162040D02*
X14430005Y-19171564D01*
X14430005Y-19171564D02*
X14439529Y-19190612D01*
X14439529Y-19190612D02*
X14439529Y-19209660D01*
X14439529Y-19209660D02*
X14344290Y-19228707D01*
X14515719Y-19285850D02*
X14534767Y-19295374D01*
X14534767Y-19295374D02*
X14572862Y-19295374D01*
X14572862Y-19295374D02*
X14591910Y-19285850D01*
X14591910Y-19285850D02*
X14601433Y-19266802D01*
X14601433Y-19266802D02*
X14601433Y-19257279D01*
X14601433Y-19257279D02*
X14591910Y-19238231D01*
X14591910Y-19238231D02*
X14572862Y-19228707D01*
X14572862Y-19228707D02*
X14544290Y-19228707D01*
X14544290Y-19228707D02*
X14525243Y-19219183D01*
X14525243Y-19219183D02*
X14515719Y-19200136D01*
X14515719Y-19200136D02*
X14515719Y-19190612D01*
X14515719Y-19190612D02*
X14525243Y-19171564D01*
X14525243Y-19171564D02*
X14544290Y-19162040D01*
X14544290Y-19162040D02*
X14572862Y-19162040D01*
X14572862Y-19162040D02*
X14591910Y-19171564D01*
X14668100Y-19371564D02*
X14677624Y-19362040D01*
X14677624Y-19362040D02*
X14696671Y-19333469D01*
X14696671Y-19333469D02*
X14706195Y-19314421D01*
X14706195Y-19314421D02*
X14715719Y-19285850D01*
X14715719Y-19285850D02*
X14725243Y-19238231D01*
X14725243Y-19238231D02*
X14725243Y-19200136D01*
X14725243Y-19200136D02*
X14715719Y-19152517D01*
X14715719Y-19152517D02*
X14706195Y-19123945D01*
X14706195Y-19123945D02*
X14696671Y-19104898D01*
X14696671Y-19104898D02*
X14677624Y-19076326D01*
X14677624Y-19076326D02*
X14668100Y-19066802D01*
M02*
