M48
; DRILL file {KiCad 7.0.8} date Wed Nov 22 11:24:07 2023
; FORMAT={-:-/ absolute / inch / decimal}
; #@! TF.CreationDate,2023-11-22T11:24:07+01:00
; #@! TF.GenerationSoftware,Kicad,Pcbnew,7.0.8
; #@! TF.FileFunction,Plated,1,2,PTH
FMAT,2
INCH
; #@! TA.AperFunction,Plated,PTH,ComponentDrill
T1C0.0248
; #@! TA.AperFunction,Plated,PTH,ComponentDrill
T2C0.0310
; #@! TA.AperFunction,Plated,PTH,ComponentDrill
T3C0.0320
; #@! TA.AperFunction,Plated,PTH,ComponentDrill
T4C0.0394
; #@! TA.AperFunction,Plated,PTH,ComponentDrill
T5C0.0430
; #@! TA.AperFunction,Plated,PTH,ComponentDrill
T6C0.0460
; #@! TA.AperFunction,Plated,PTH,ComponentDrill
T7C0.0590
%
G90
G05
T1
X5.3184Y-5.9685
X5.5105Y-5.9685
T2
X4.2411Y-2.7561
X4.2411Y-3.0661
X4.2411Y-3.2561
X4.2411Y-3.5661
X4.538Y-2.0671
X4.5426Y-4.2897
X4.7572Y-1.8479
X4.7618Y-4.5089
X5.7154Y-4.8071
X5.7182Y-5.8825
X5.7199Y-1.5511
X6.0254Y-4.8071
X6.0282Y-5.8825
X6.0299Y-1.5511
X6.9797Y-1.8525
X6.9804Y-4.5189
X7.1989Y-2.0718
X7.1997Y-4.2997
X7.5011Y-2.7761
X7.5011Y-3.0861
X7.5011Y-3.2261
X7.5011Y-3.5361
T3
X4.7411Y-2.8611
X4.7411Y-2.9611
X4.7411Y-3.3611
X4.7411Y-3.4611
X4.9658Y-2.3464
X4.9704Y-4.0103
X5.0365Y-2.2757
X5.0411Y-4.0811
X5.1979Y-5.496
X5.1979Y-5.6929
X5.2963Y-5.496
X5.2963Y-5.6929
X5.8211Y-4.3111
X5.8249Y-2.0511
X5.9211Y-4.3111
X5.9249Y-2.0511
X6.7004Y-2.2803
X6.7011Y-4.0911
X6.7711Y-2.3511
X6.7719Y-4.0203
X7.0011Y-2.8811
X7.0011Y-2.9811
X7.0011Y-3.3811
X7.0011Y-3.4811
T4
X5.2232Y-6.1825
X5.2232Y-6.4825
X5.3232Y-6.1825
X5.3232Y-6.4825
X5.4232Y-6.1825
X5.4232Y-6.4825
X5.5232Y-6.1825
X5.5232Y-6.4825
X5.6232Y-6.1825
X5.6232Y-6.4825
X5.7232Y-6.1825
X5.7232Y-6.4825
X5.7452Y-5.4939
X5.7452Y-5.6711
X5.8232Y-6.1825
X5.8232Y-6.4825
X5.9232Y-6.1825
X5.9232Y-6.4825
X6.0011Y-5.4939
X6.0011Y-5.6711
X6.0232Y-6.1825
X6.0232Y-6.4825
X6.1232Y-6.1825
X6.1232Y-6.4825
X6.2232Y-6.1825
X6.2232Y-6.4825
X6.3232Y-6.1825
X6.3232Y-6.4825
X6.4232Y-6.1825
X6.4232Y-6.4825
X6.5232Y-6.1825
X6.5232Y-6.4825
T5
X6.32Y-5.64
X6.32Y-5.7187
X6.32Y-5.7975
T6
X5.4011Y-2.8373
X6.3411Y-2.8373
T7
X5.4011Y-3.6243
X6.3411Y-3.6243
X6.4145Y-5.5613
X6.4145Y-5.8762
T0
M30
