%TF.GenerationSoftware,KiCad,Pcbnew,7.0.8*%
%TF.CreationDate,2023-11-15T11:24:06+01:00*%
%TF.ProjectId,ATMegaSpin,41544d65-6761-4537-9069-6e2e6b696361,rev?*%
%TF.SameCoordinates,Original*%
%TF.FileFunction,Copper,L1,Top*%
%TF.FilePolarity,Positive*%
%FSLAX46Y46*%
G04 Gerber Fmt 4.6, Leading zero omitted, Abs format (unit mm)*
G04 Created by KiCad (PCBNEW 7.0.8) date 2023-11-15 11:24:06*
%MOMM*%
%LPD*%
G01*
G04 APERTURE LIST*
G04 Aperture macros list*
%AMRotRect*
0 Rectangle, with rotation*
0 The origin of the aperture is its center*
0 $1 length*
0 $2 width*
0 $3 Rotation angle, in degrees counterclockwise*
0 Add horizontal line*
21,1,$1,$2,0,0,$3*%
G04 Aperture macros list end*
%TA.AperFunction,ComponentPad*%
%ADD10C,1.030000*%
%TD*%
%TA.AperFunction,ComponentPad*%
%ADD11C,1.320800*%
%TD*%
%TA.AperFunction,ComponentPad*%
%ADD12R,1.320800X1.320800*%
%TD*%
%TA.AperFunction,ComponentPad*%
%ADD13C,1.676400*%
%TD*%
%TA.AperFunction,ComponentPad*%
%ADD14C,2.006600*%
%TD*%
%TA.AperFunction,ComponentPad*%
%ADD15C,1.295400*%
%TD*%
%TA.AperFunction,ComponentPad*%
%ADD16RotRect,1.295400X1.295400X225.000000*%
%TD*%
%TA.AperFunction,ComponentPad*%
%ADD17R,1.295400X1.295400*%
%TD*%
%TA.AperFunction,ComponentPad*%
%ADD18RotRect,1.320800X1.320800X315.000000*%
%TD*%
%TA.AperFunction,ComponentPad*%
%ADD19R,1.508000X1.508000*%
%TD*%
%TA.AperFunction,ComponentPad*%
%ADD20C,1.508000*%
%TD*%
%TA.AperFunction,ComponentPad*%
%ADD21RotRect,1.320800X1.320800X135.000000*%
%TD*%
%TA.AperFunction,ComponentPad*%
%ADD22RotRect,1.295400X1.295400X315.000000*%
%TD*%
%TA.AperFunction,ComponentPad*%
%ADD23RotRect,1.320800X1.320800X45.000000*%
%TD*%
%TA.AperFunction,ComponentPad*%
%ADD24RotRect,1.320800X1.320800X225.000000*%
%TD*%
%TA.AperFunction,ComponentPad*%
%ADD25RotRect,1.295400X1.295400X45.000000*%
%TD*%
%TA.AperFunction,ComponentPad*%
%ADD26RotRect,1.295400X1.295400X135.000000*%
%TD*%
%TA.AperFunction,Conductor*%
%ADD27C,0.250000*%
%TD*%
G04 APERTURE END LIST*
D10*
%TO.P,Y1,2*%
%TO.N,Net-(C1-Pad1)*%
X87560000Y-147000000D03*
%TO.P,Y1,1*%
%TO.N,Net-(C2-Pad2)*%
X92440000Y-147000000D03*
%TD*%
D11*
%TO.P,C2,2*%
%TO.N,Net-(C2-Pad2)*%
X84500000Y-140000000D03*
D12*
%TO.P,C2,1*%
%TO.N,GND*%
X87000000Y-140000000D03*
%TD*%
D11*
%TO.P,C1,2*%
%TO.N,GND*%
X84500000Y-135000000D03*
D12*
%TO.P,C1,1*%
%TO.N,Net-(C1-Pad1)*%
X87000000Y-135000000D03*
%TD*%
D13*
%TO.P,B2,1*%
%TO.N,GND*%
X89662000Y-67469000D03*
D14*
%TO.P,B2,2*%
%TO.N,Net-(B1-Pad1)*%
X89662000Y-87458800D03*
%TD*%
%TO.P,B1,2*%
%TO.N,Net-(B1-Pad2)*%
X113538000Y-87458800D03*
D13*
%TO.P,B1,1*%
%TO.N,Net-(B1-Pad1)*%
X113538000Y-67469000D03*
%TD*%
D15*
%TO.P,R5,2*%
%TO.N,Net-(LED5-Pad2)*%
X67737841Y-47905659D03*
D16*
%TO.P,R5,1*%
%TO.N,Net-(R5-Pad1)*%
X73305600Y-42337900D03*
%TD*%
D17*
%TO.P,R11,1*%
%TO.N,Net-(R11-Pad1)*%
X97715000Y-144816000D03*
D15*
%TO.P,R11,2*%
%TO.N,GND*%
X105589000Y-144816000D03*
%TD*%
D11*
%TO.P,LED2,2*%
%TO.N,Net-(LED2-Pad2)*%
X80517951Y-99059951D03*
D18*
%TO.P,LED2,1*%
%TO.N,GND*%
X78721900Y-97263900D03*
%TD*%
D17*
%TO.P,R8,1*%
%TO.N,Net-(R8-Pad1)*%
X143002000Y-73787000D03*
D15*
%TO.P,R8,2*%
%TO.N,Net-(LED8-Pad2)*%
X143002000Y-65913000D03*
%TD*%
D12*
%TO.P,LED9,1*%
%TO.N,GND*%
X130302000Y-83820000D03*
D11*
%TO.P,LED9,2*%
%TO.N,Net-(LED9-Pad2)*%
X130302000Y-81280000D03*
%TD*%
D17*
%TO.P,R6,1*%
%TO.N,Net-(R6-Pad1)*%
X105632300Y-34798000D03*
D15*
%TO.P,R6,2*%
%TO.N,Net-(LED6-Pad2)*%
X97758300Y-34798000D03*
%TD*%
D19*
%TO.P,S1,1*%
%TO.N,Net-(B1-Pad2)*%
X98402000Y-134946000D03*
D20*
%TO.P,S1,2*%
%TO.N,unconnected-(S1-Pad2)*%
X104902000Y-134946000D03*
%TO.P,S1,3*%
%TO.N,Net-(R11-Pad1)*%
X98402000Y-139446000D03*
%TO.P,S1,4*%
%TO.N,Net-(S1-Pad4)*%
X104902000Y-139446000D03*
%TD*%
D17*
%TO.P,R9,1*%
%TO.N,Net-(R9-Pad1)*%
X143002000Y-85217000D03*
D15*
%TO.P,R9,2*%
%TO.N,Net-(LED9-Pad2)*%
X143002000Y-77343000D03*
%TD*%
%TO.P,R1,2*%
%TO.N,Net-(LED1-Pad2)*%
X105517000Y-117502000D03*
D17*
%TO.P,R1,1*%
%TO.N,Net-(R1-Pad1)*%
X97643000Y-117502000D03*
%TD*%
D11*
%TO.P,LED7,2*%
%TO.N,Net-(LED7-Pad2)*%
X122663949Y-53321949D03*
D21*
%TO.P,LED7,1*%
%TO.N,GND*%
X124460000Y-55118000D03*
%TD*%
D15*
%TO.P,R3,2*%
%TO.N,Net-(LED3-Pad2)*%
X60198000Y-85979000D03*
D17*
%TO.P,R3,1*%
%TO.N,Net-(R3-Pad1)*%
X60198000Y-78105000D03*
%TD*%
D15*
%TO.P,R2,2*%
%TO.N,Net-(LED2-Pad2)*%
X73423559Y-109926159D03*
D22*
%TO.P,R2,1*%
%TO.N,Net-(R2-Pad1)*%
X67855800Y-104358400D03*
%TD*%
D11*
%TO.P,LED10,2*%
%TO.N,Net-(LED10-Pad2)*%
X124478051Y-97517949D03*
D23*
%TO.P,LED10,1*%
%TO.N,GND*%
X122682000Y-99314000D03*
%TD*%
D11*
%TO.P,LED3,2*%
%TO.N,Net-(LED3-Pad2)*%
X72898000Y-83312000D03*
D12*
%TO.P,LED3,1*%
%TO.N,GND*%
X72898000Y-80772000D03*
%TD*%
D15*
%TO.P,R4,2*%
%TO.N,Net-(LED4-Pad2)*%
X60198000Y-73279000D03*
D17*
%TO.P,R4,1*%
%TO.N,Net-(R4-Pad1)*%
X60198000Y-65405000D03*
%TD*%
D11*
%TO.P,LED5,2*%
%TO.N,Net-(LED5-Pad2)*%
X78603949Y-55000051D03*
D24*
%TO.P,LED5,1*%
%TO.N,GND*%
X80400000Y-53204000D03*
%TD*%
D12*
%TO.P,LED1,1*%
%TO.N,GND*%
X100330000Y-104902000D03*
D11*
%TO.P,LED1,2*%
%TO.N,Net-(LED1-Pad2)*%
X102870000Y-104902000D03*
%TD*%
D12*
%TO.P,LED8,1*%
%TO.N,GND*%
X130302000Y-71120000D03*
D11*
%TO.P,LED8,2*%
%TO.N,Net-(LED8-Pad2)*%
X130302000Y-68580000D03*
%TD*%
D15*
%TO.P,R10,2*%
%TO.N,Net-(LED10-Pad2)*%
X135344159Y-104612341D03*
D25*
%TO.P,R10,1*%
%TO.N,Net-(R10-Pad1)*%
X129776400Y-110180100D03*
%TD*%
D15*
%TO.P,R7,2*%
%TO.N,Net-(LED7-Pad2)*%
X129758341Y-42455841D03*
D26*
%TO.P,R7,1*%
%TO.N,Net-(R7-Pad1)*%
X135326100Y-48023600D03*
%TD*%
D11*
%TO.P,LED4,2*%
%TO.N,Net-(LED4-Pad2)*%
X72898000Y-70612000D03*
D12*
%TO.P,LED4,1*%
%TO.N,GND*%
X72898000Y-68072000D03*
%TD*%
%TO.P,LED6,1*%
%TO.N,GND*%
X102965300Y-47498000D03*
D11*
%TO.P,LED6,2*%
%TO.N,Net-(LED6-Pad2)*%
X100425300Y-47498000D03*
%TD*%
D19*
%TO.P,X1,1,1*%
%TO.N,unconnected-(X1-Pad1)*%
X118162000Y-160056000D03*
D20*
%TO.P,X1,2,2*%
%TO.N,Net-(R1-Pad1)*%
X115622000Y-160056000D03*
%TO.P,X1,3,3*%
%TO.N,unconnected-(X1-Pad3)*%
X113082000Y-160056000D03*
%TO.P,X1,4,4*%
%TO.N,unconnected-(X1-Pad4)*%
X110542000Y-160056000D03*
%TO.P,X1,5,5*%
%TO.N,Net-(S1-Pad4)*%
X108002000Y-160056000D03*
%TO.P,X1,6,6*%
%TO.N,Net-(R2-Pad1)*%
X105462000Y-160056000D03*
%TO.P,X1,7,7*%
%TO.N,Net-(B1-Pad2)*%
X102922000Y-160056000D03*
%TO.P,X1,8,8*%
%TO.N,GND*%
X100382000Y-160056000D03*
%TO.P,X1,9,9*%
%TO.N,Net-(C2-Pad2)*%
X97842000Y-160056000D03*
%TO.P,X1,10,10*%
%TO.N,Net-(C1-Pad1)*%
X95302000Y-160056000D03*
%TO.P,X1,11,11*%
%TO.N,unconnected-(X1-Pad11)*%
X92762000Y-160056000D03*
%TO.P,X1,12,12*%
%TO.N,Net-(R3-Pad1)*%
X90222000Y-160056000D03*
%TO.P,X1,13,13*%
%TO.N,Net-(R4-Pad1)*%
X87682000Y-160056000D03*
%TO.P,X1,14,14*%
%TO.N,Net-(R5-Pad1)*%
X85142000Y-160056000D03*
%TO.P,X1,15,15*%
%TO.N,Net-(R6-Pad1)*%
X85142000Y-152436000D03*
%TO.P,X1,16,16*%
%TO.N,Net-(R7-Pad1)*%
X87682000Y-152436000D03*
%TO.P,X1,17,17*%
%TO.N,Net-(R8-Pad1)*%
X90222000Y-152436000D03*
%TO.P,X1,18,18*%
%TO.N,Net-(R9-Pad1)*%
X92762000Y-152436000D03*
%TO.P,X1,19,19*%
%TO.N,Net-(R10-Pad1)*%
X95302000Y-152436000D03*
%TO.P,X1,20,20*%
%TO.N,unconnected-(X1-Pad20)*%
X97842000Y-152436000D03*
%TO.P,X1,21,21*%
%TO.N,unconnected-(X1-Pad21)*%
X100382000Y-152436000D03*
%TO.P,X1,22,22*%
%TO.N,GND*%
X102922000Y-152436000D03*
%TO.P,X1,23,23*%
%TO.N,unconnected-(X1-Pad23)*%
X105462000Y-152436000D03*
%TO.P,X1,24,24*%
%TO.N,unconnected-(X1-Pad24)*%
X108002000Y-152436000D03*
%TO.P,X1,25,25*%
%TO.N,unconnected-(X1-Pad25)*%
X110542000Y-152436000D03*
%TO.P,X1,26,26*%
%TO.N,unconnected-(X1-Pad26)*%
X113082000Y-152436000D03*
%TO.P,X1,27,27*%
%TO.N,unconnected-(X1-Pad27)*%
X115622000Y-152436000D03*
%TO.P,X1,28,28*%
%TO.N,unconnected-(X1-Pad28)*%
X118162000Y-152436000D03*
%TD*%
D27*
%TO.N,Net-(C2-Pad2)*%
X94032000Y-148592000D02*
X92440000Y-147000000D01*
X94032000Y-156246000D02*
X94032000Y-148592000D01*
X97842000Y-160056000D02*
X94032000Y-156246000D01*
%TO.N,Net-(C1-Pad1)*%
X87987300Y-146572700D02*
X87560000Y-147000000D01*
X87987300Y-136974600D02*
X87987300Y-146572700D01*
X87000000Y-135987300D02*
X87987300Y-136974600D01*
X87000000Y-135000000D02*
X87000000Y-135987300D01*
%TO.N,Net-(B1-Pad2)*%
X96668400Y-132131500D02*
X98402000Y-133865100D01*
X96668400Y-104328400D02*
X96668400Y-132131500D01*
X113538000Y-87458800D02*
X96668400Y-104328400D01*
X98402000Y-134946000D02*
X98402000Y-133865100D01*
X99482900Y-137107800D02*
X98402000Y-136026900D01*
X99482900Y-140535700D02*
X99482900Y-137107800D01*
X99283100Y-140735500D02*
X99482900Y-140535700D01*
X99283100Y-160528300D02*
X99283100Y-140735500D01*
X99916200Y-161161400D02*
X99283100Y-160528300D01*
X101816600Y-161161400D02*
X99916200Y-161161400D01*
X102922000Y-160056000D02*
X101816600Y-161161400D01*
X98402000Y-134946000D02*
X98402000Y-136026900D01*
%TO.N,Net-(S1-Pad4)*%
X106865700Y-158919700D02*
X108002000Y-160056000D01*
X106865700Y-141409700D02*
X106865700Y-158919700D01*
X104902000Y-139446000D02*
X106865700Y-141409700D01*
%TO.N,Net-(R11-Pad1)*%
X97715000Y-140133000D02*
X97715000Y-144816000D01*
X98402000Y-139446000D02*
X97715000Y-140133000D01*
%TO.N,Net-(R7-Pad1)*%
X90452000Y-92897700D02*
X135326100Y-48023600D01*
X90452000Y-149666000D02*
X90452000Y-92897700D01*
X87682000Y-152436000D02*
X90452000Y-149666000D01*
%TO.N,Net-(R6-Pad1)*%
X105632300Y-73729200D02*
X105632300Y-34798000D01*
X89134400Y-90227100D02*
X105632300Y-73729200D01*
X89134400Y-148443600D02*
X89134400Y-90227100D01*
X85142000Y-152436000D02*
X89134400Y-148443600D01*
%TO.N,Net-(R5-Pad1)*%
X71458000Y-44185500D02*
X73305600Y-42337900D01*
X71458000Y-94080900D02*
X71458000Y-44185500D01*
X77836900Y-100459800D02*
X71458000Y-94080900D01*
X77836900Y-152750900D02*
X77836900Y-100459800D01*
X85142000Y-160056000D02*
X77836900Y-152750900D01*
%TO.N,Net-(R3-Pad1)*%
X61172600Y-80054200D02*
X60198000Y-79079600D01*
X61172600Y-101329500D02*
X61172600Y-80054200D01*
X76879200Y-117036100D02*
X61172600Y-101329500D01*
X76879200Y-153977600D02*
X76879200Y-117036100D01*
X84516900Y-161615300D02*
X76879200Y-153977600D01*
X88662700Y-161615300D02*
X84516900Y-161615300D01*
X90222000Y-160056000D02*
X88662700Y-161615300D01*
X60198000Y-78105000D02*
X60198000Y-79079600D01*
%TO.N,Net-(R1-Pad1)*%
X111812000Y-156246000D02*
X115622000Y-160056000D01*
X111812000Y-132645600D02*
X111812000Y-156246000D01*
X97643000Y-118476600D02*
X111812000Y-132645600D01*
X97643000Y-117502000D02*
X97643000Y-118476600D01*
%TO.N,Net-(LED10-Pad2)*%
X128249800Y-97517900D02*
X135344200Y-104612300D01*
X124478100Y-97517900D02*
X128249800Y-97517900D01*
%TO.N,Net-(LED6-Pad2)*%
X100425300Y-37465000D02*
X97758300Y-34798000D01*
X100425300Y-47498000D02*
X100425300Y-37465000D01*
%TO.N,Net-(LED1-Pad2)*%
X105517000Y-107549000D02*
X105517000Y-117502000D01*
X102870000Y-104902000D02*
X105517000Y-107549000D01*
%TO.N,GND*%
X105589000Y-149769000D02*
X105589000Y-144816000D01*
X102922000Y-152436000D02*
X105589000Y-149769000D01*
X71910700Y-78797400D02*
X72898000Y-79784700D01*
X71910700Y-70046600D02*
X71910700Y-78797400D01*
X72898000Y-69059300D02*
X71910700Y-70046600D01*
X72898000Y-68072000D02*
X72898000Y-69059300D01*
X72898000Y-80772000D02*
X72898000Y-79784700D01*
X80400000Y-53204000D02*
X79701900Y-53902100D01*
X72898000Y-68072000D02*
X72898000Y-67084700D01*
X78023800Y-86885100D02*
X72898000Y-81759300D01*
X78023800Y-96565800D02*
X78023800Y-86885100D01*
X72898000Y-80772000D02*
X72898000Y-81759300D01*
X78721900Y-97263900D02*
X78023800Y-96565800D01*
X84500000Y-136512700D02*
X84500000Y-135000000D01*
X87000000Y-139012700D02*
X84500000Y-136512700D01*
X87000000Y-140000000D02*
X87000000Y-139012700D01*
X123380100Y-91729200D02*
X130302000Y-84807300D01*
X123380100Y-98615900D02*
X123380100Y-91729200D01*
X122682000Y-99314000D02*
X123380100Y-98615900D01*
X130302000Y-83820000D02*
X130302000Y-84807300D01*
X129314700Y-81845400D02*
X130302000Y-82832700D01*
X129314700Y-73094600D02*
X129314700Y-81845400D01*
X130302000Y-72107300D02*
X129314700Y-73094600D01*
X130302000Y-71120000D02*
X130302000Y-72107300D01*
X130302000Y-83820000D02*
X130302000Y-82832700D01*
X82473800Y-60280800D02*
X89662000Y-67469000D01*
X79701900Y-60280800D02*
X82473800Y-60280800D01*
X79701900Y-53902100D02*
X79701900Y-60280800D01*
X79701900Y-60280800D02*
X72898000Y-67084700D01*
%TD*%
M02*
