%TF.GenerationSoftware,KiCad,Pcbnew,7.0.8*%
%TF.CreationDate,2023-11-15T15:43:31+01:00*%
%TF.ProjectId,ATMegaSpin,41544d65-6761-4537-9069-6e2e6b696361,rev?*%
%TF.SameCoordinates,Original*%
%TF.FileFunction,Copper,L1,Top*%
%TF.FilePolarity,Positive*%
%FSLAX46Y46*%
G04 Gerber Fmt 4.6, Leading zero omitted, Abs format (unit mm)*
G04 Created by KiCad (PCBNEW 7.0.8) date 2023-11-15 15:43:31*
%MOMM*%
%LPD*%
G01*
G04 APERTURE LIST*
G04 Aperture macros list*
%AMRotRect*
0 Rectangle, with rotation*
0 The origin of the aperture is its center*
0 $1 length*
0 $2 width*
0 $3 Rotation angle, in degrees counterclockwise*
0 Add horizontal line*
21,1,$1,$2,0,0,$3*%
G04 Aperture macros list end*
%TA.AperFunction,ComponentPad*%
%ADD10RotRect,1.295400X1.295400X225.000000*%
%TD*%
%TA.AperFunction,ComponentPad*%
%ADD11C,1.295400*%
%TD*%
%TA.AperFunction,ComponentPad*%
%ADD12R,1.295400X1.295400*%
%TD*%
%TA.AperFunction,ComponentPad*%
%ADD13RotRect,1.320800X1.320800X315.000000*%
%TD*%
%TA.AperFunction,ComponentPad*%
%ADD14C,1.320800*%
%TD*%
%TA.AperFunction,ComponentPad*%
%ADD15R,1.320800X1.320800*%
%TD*%
%TA.AperFunction,ComponentPad*%
%ADD16R,1.508000X1.508000*%
%TD*%
%TA.AperFunction,ComponentPad*%
%ADD17C,1.508000*%
%TD*%
%TA.AperFunction,ComponentPad*%
%ADD18RotRect,1.320800X1.320800X135.000000*%
%TD*%
%TA.AperFunction,ComponentPad*%
%ADD19RotRect,1.295400X1.295400X315.000000*%
%TD*%
%TA.AperFunction,ComponentPad*%
%ADD20RotRect,1.320800X1.320800X45.000000*%
%TD*%
%TA.AperFunction,ComponentPad*%
%ADD21RotRect,1.320800X1.320800X225.000000*%
%TD*%
%TA.AperFunction,ComponentPad*%
%ADD22C,1.600200*%
%TD*%
%TA.AperFunction,ComponentPad*%
%ADD23C,1.498600*%
%TD*%
%TA.AperFunction,ComponentPad*%
%ADD24RotRect,1.295400X1.295400X45.000000*%
%TD*%
%TA.AperFunction,ComponentPad*%
%ADD25RotRect,1.295400X1.295400X135.000000*%
%TD*%
%TA.AperFunction,ComponentPad*%
%ADD26C,1.676400*%
%TD*%
%TA.AperFunction,ComponentPad*%
%ADD27C,2.006600*%
%TD*%
%TA.AperFunction,ComponentPad*%
%ADD28C,1.030000*%
%TD*%
%TA.AperFunction,ViaPad*%
%ADD29C,0.800000*%
%TD*%
%TA.AperFunction,Conductor*%
%ADD30C,0.250000*%
%TD*%
G04 APERTURE END LIST*
D10*
%TO.P,R5,1*%
%TO.N,Net-(R5-Pad1)*%
X120832600Y-46936800D03*
D11*
%TO.P,R5,2*%
%TO.N,Net-(LED5-Pad2)*%
X115264841Y-52504559D03*
%TD*%
D12*
%TO.P,R11,1*%
%TO.N,Net-(R11-Pad1)*%
X145242000Y-149414900D03*
D11*
%TO.P,R11,2*%
%TO.N,GND*%
X153116000Y-149414900D03*
%TD*%
D13*
%TO.P,LED2,1*%
%TO.N,GND*%
X126248900Y-101862800D03*
D14*
%TO.P,LED2,2*%
%TO.N,Net-(LED2-Pad2)*%
X128044951Y-103658851D03*
%TD*%
D12*
%TO.P,R8,1*%
%TO.N,Net-(R8-Pad1)*%
X190529000Y-78385900D03*
D11*
%TO.P,R8,2*%
%TO.N,Net-(LED8-Pad2)*%
X190529000Y-70511900D03*
%TD*%
D15*
%TO.P,LED9,1*%
%TO.N,GND*%
X177829000Y-88418900D03*
D14*
%TO.P,LED9,2*%
%TO.N,Net-(LED9-Pad2)*%
X177829000Y-85878900D03*
%TD*%
D12*
%TO.P,R6,1*%
%TO.N,Net-(R6-Pad1)*%
X153159300Y-39396900D03*
D11*
%TO.P,R6,2*%
%TO.N,Net-(LED6-Pad2)*%
X145285300Y-39396900D03*
%TD*%
D16*
%TO.P,S1,1*%
%TO.N,Net-(S1-Pad1)*%
X145929000Y-139544900D03*
D17*
%TO.P,S1,2*%
%TO.N,unconnected-(S1-Pad2)*%
X152429000Y-139544900D03*
%TO.P,S1,3*%
%TO.N,Net-(R11-Pad1)*%
X145929000Y-144044900D03*
%TO.P,S1,4*%
%TO.N,Net-(S1-Pad4)*%
X152429000Y-144044900D03*
%TD*%
D12*
%TO.P,R9,1*%
%TO.N,Net-(R9-Pad1)*%
X190529000Y-89815900D03*
D11*
%TO.P,R9,2*%
%TO.N,Net-(LED9-Pad2)*%
X190529000Y-81941900D03*
%TD*%
D12*
%TO.P,R1,1*%
%TO.N,Net-(R1-Pad1)*%
X145170000Y-122100900D03*
D11*
%TO.P,R1,2*%
%TO.N,Net-(LED1-Pad2)*%
X153044000Y-122100900D03*
%TD*%
D18*
%TO.P,LED7,1*%
%TO.N,GND*%
X171987000Y-59716900D03*
D14*
%TO.P,LED7,2*%
%TO.N,Net-(LED7-Pad2)*%
X170190949Y-57920849D03*
%TD*%
D12*
%TO.P,R3,1*%
%TO.N,Net-(R3-Pad1)*%
X107725000Y-82703900D03*
D11*
%TO.P,R3,2*%
%TO.N,Net-(LED3-Pad2)*%
X107725000Y-90577900D03*
%TD*%
D19*
%TO.P,R2,1*%
%TO.N,Net-(R2-Pad1)*%
X115382800Y-108957300D03*
D11*
%TO.P,R2,2*%
%TO.N,Net-(LED2-Pad2)*%
X120950559Y-114525059D03*
%TD*%
D20*
%TO.P,LED10,1*%
%TO.N,GND*%
X170209000Y-103912900D03*
D14*
%TO.P,LED10,2*%
%TO.N,Net-(LED10-Pad2)*%
X172005051Y-102116849D03*
%TD*%
D15*
%TO.P,LED3,1*%
%TO.N,GND*%
X120425000Y-85370900D03*
D14*
%TO.P,LED3,2*%
%TO.N,Net-(LED3-Pad2)*%
X120425000Y-87910900D03*
%TD*%
D12*
%TO.P,R4,1*%
%TO.N,Net-(R4-Pad1)*%
X107725000Y-70003900D03*
D11*
%TO.P,R4,2*%
%TO.N,Net-(LED4-Pad2)*%
X107725000Y-77877900D03*
%TD*%
D21*
%TO.P,LED5,1*%
%TO.N,GND*%
X127927000Y-57802900D03*
D14*
%TO.P,LED5,2*%
%TO.N,Net-(LED5-Pad2)*%
X126130949Y-59598951D03*
%TD*%
D15*
%TO.P,LED1,1*%
%TO.N,GND*%
X147857000Y-109500900D03*
D14*
%TO.P,LED1,2*%
%TO.N,Net-(LED1-Pad2)*%
X150397000Y-109500900D03*
%TD*%
D15*
%TO.P,LED8,1*%
%TO.N,GND*%
X177829000Y-75718900D03*
D14*
%TO.P,LED8,2*%
%TO.N,Net-(LED8-Pad2)*%
X177829000Y-73178900D03*
%TD*%
D22*
%TO.P,SW1,1,1*%
%TO.N,Net-(B1-Pad2)*%
X160528000Y-147256001D03*
%TO.P,SW1,2,2*%
%TO.N,Net-(S1-Pad1)*%
X160528000Y-145256000D03*
%TO.P,SW1,3,3*%
%TO.N,GND*%
X160528000Y-143255999D03*
D23*
%TO.P,SW1,4*%
%TO.N,N/C*%
X162928000Y-149256000D03*
%TO.P,SW1,5*%
X162928000Y-141256000D03*
%TD*%
D24*
%TO.P,R10,1*%
%TO.N,Net-(R10-Pad1)*%
X177303400Y-114779000D03*
D11*
%TO.P,R10,2*%
%TO.N,Net-(LED10-Pad2)*%
X182871159Y-109211241D03*
%TD*%
D25*
%TO.P,R7,1*%
%TO.N,Net-(R7-Pad1)*%
X182853100Y-52622500D03*
D11*
%TO.P,R7,2*%
%TO.N,Net-(LED7-Pad2)*%
X177285341Y-47054741D03*
%TD*%
D15*
%TO.P,LED4,1*%
%TO.N,GND*%
X120425000Y-72670900D03*
D14*
%TO.P,LED4,2*%
%TO.N,Net-(LED4-Pad2)*%
X120425000Y-75210900D03*
%TD*%
D15*
%TO.P,LED6,1*%
%TO.N,GND*%
X150492300Y-52096900D03*
D14*
%TO.P,LED6,2*%
%TO.N,Net-(LED6-Pad2)*%
X147952300Y-52096900D03*
%TD*%
D26*
%TO.P,B1,1*%
%TO.N,Net-(B1-Pad1)*%
X161065000Y-72067900D03*
D27*
%TO.P,B1,2*%
%TO.N,Net-(B1-Pad2)*%
X161065000Y-92057700D03*
%TD*%
D28*
%TO.P,Y1,1*%
%TO.N,Net-(C2-Pad2)*%
X139967000Y-151598900D03*
%TO.P,Y1,2*%
%TO.N,Net-(C1-Pad1)*%
X135087000Y-151598900D03*
%TD*%
D16*
%TO.P,X1,1,1*%
%TO.N,unconnected-(X1-Pad1)*%
X165689000Y-164654900D03*
D17*
%TO.P,X1,2,2*%
%TO.N,Net-(R1-Pad1)*%
X163149000Y-164654900D03*
%TO.P,X1,3,3*%
%TO.N,unconnected-(X1-Pad3)*%
X160609000Y-164654900D03*
%TO.P,X1,4,4*%
%TO.N,unconnected-(X1-Pad4)*%
X158069000Y-164654900D03*
%TO.P,X1,5,5*%
%TO.N,Net-(S1-Pad4)*%
X155529000Y-164654900D03*
%TO.P,X1,6,6*%
%TO.N,Net-(R2-Pad1)*%
X152989000Y-164654900D03*
%TO.P,X1,7,7*%
%TO.N,Net-(S1-Pad1)*%
X150449000Y-164654900D03*
%TO.P,X1,8,8*%
%TO.N,GND*%
X147909000Y-164654900D03*
%TO.P,X1,9,9*%
%TO.N,Net-(C2-Pad2)*%
X145369000Y-164654900D03*
%TO.P,X1,10,10*%
%TO.N,Net-(C1-Pad1)*%
X142829000Y-164654900D03*
%TO.P,X1,11,11*%
%TO.N,unconnected-(X1-Pad11)*%
X140289000Y-164654900D03*
%TO.P,X1,12,12*%
%TO.N,Net-(R3-Pad1)*%
X137749000Y-164654900D03*
%TO.P,X1,13,13*%
%TO.N,Net-(R4-Pad1)*%
X135209000Y-164654900D03*
%TO.P,X1,14,14*%
%TO.N,Net-(R5-Pad1)*%
X132669000Y-164654900D03*
%TO.P,X1,15,15*%
%TO.N,Net-(R6-Pad1)*%
X132669000Y-157034900D03*
%TO.P,X1,16,16*%
%TO.N,Net-(R7-Pad1)*%
X135209000Y-157034900D03*
%TO.P,X1,17,17*%
%TO.N,Net-(R8-Pad1)*%
X137749000Y-157034900D03*
%TO.P,X1,18,18*%
%TO.N,Net-(R9-Pad1)*%
X140289000Y-157034900D03*
%TO.P,X1,19,19*%
%TO.N,Net-(R10-Pad1)*%
X142829000Y-157034900D03*
%TO.P,X1,20,20*%
%TO.N,unconnected-(X1-Pad20)*%
X145369000Y-157034900D03*
%TO.P,X1,21,21*%
%TO.N,unconnected-(X1-Pad21)*%
X147909000Y-157034900D03*
%TO.P,X1,22,22*%
%TO.N,GND*%
X150449000Y-157034900D03*
%TO.P,X1,23,23*%
%TO.N,unconnected-(X1-Pad23)*%
X152989000Y-157034900D03*
%TO.P,X1,24,24*%
%TO.N,unconnected-(X1-Pad24)*%
X155529000Y-157034900D03*
%TO.P,X1,25,25*%
%TO.N,unconnected-(X1-Pad25)*%
X158069000Y-157034900D03*
%TO.P,X1,26,26*%
%TO.N,unconnected-(X1-Pad26)*%
X160609000Y-157034900D03*
%TO.P,X1,27,27*%
%TO.N,unconnected-(X1-Pad27)*%
X163149000Y-157034900D03*
%TO.P,X1,28,28*%
%TO.N,unconnected-(X1-Pad28)*%
X165689000Y-157034900D03*
%TD*%
D15*
%TO.P,C1,1*%
%TO.N,Net-(C1-Pad1)*%
X134527000Y-139598900D03*
D14*
%TO.P,C1,2*%
%TO.N,GND*%
X132027000Y-139598900D03*
%TD*%
D15*
%TO.P,C2,1*%
%TO.N,GND*%
X134527000Y-144598900D03*
D14*
%TO.P,C2,2*%
%TO.N,Net-(C2-Pad2)*%
X132027000Y-144598900D03*
%TD*%
D26*
%TO.P,B2,1*%
%TO.N,GND*%
X137189000Y-72067900D03*
D27*
%TO.P,B2,2*%
%TO.N,Net-(B1-Pad1)*%
X137189000Y-92057700D03*
%TD*%
D29*
%TO.N,Net-(R9-Pad1)*%
X145623700Y-142625400D03*
%TD*%
D30*
%TO.N,GND*%
X178816300Y-77693500D02*
X178816300Y-86444300D01*
X134527000Y-144598900D02*
X134527000Y-143611600D01*
X125550800Y-91484000D02*
X125550800Y-101164700D01*
X170907100Y-96328100D02*
X177829000Y-89406200D01*
X170907100Y-103214800D02*
X170907100Y-96328100D01*
X170209000Y-103912900D02*
X170907100Y-103214800D01*
X132027000Y-141111600D02*
X132027000Y-139598900D01*
X178816300Y-86444300D02*
X177829000Y-87431600D01*
X134527000Y-143611600D02*
X132027000Y-141111600D01*
X177829000Y-88418900D02*
X177829000Y-87431600D01*
X177829000Y-88418900D02*
X177829000Y-89406200D01*
X153116000Y-149414900D02*
X153116000Y-154367900D01*
X126248900Y-101862800D02*
X125550800Y-101164700D01*
X177829000Y-76706200D02*
X178816300Y-77693500D01*
X177829000Y-75718900D02*
X177829000Y-76706200D01*
X120425000Y-86358200D02*
X125550800Y-91484000D01*
X153116000Y-154367900D02*
X150449000Y-157034900D01*
X120425000Y-85370900D02*
X120425000Y-86358200D01*
%TO.N,Net-(LED1-Pad2)*%
X150397000Y-119453900D02*
X153044000Y-122100900D01*
X150397000Y-109500900D02*
X150397000Y-119453900D01*
%TO.N,Net-(LED10-Pad2)*%
X175776800Y-102116800D02*
X182871200Y-109211200D01*
X172005100Y-102116800D02*
X175776800Y-102116800D01*
%TO.N,Net-(R1-Pad1)*%
X159284600Y-146570200D02*
X159284600Y-160790500D01*
X145170000Y-122100900D02*
X145170000Y-123075500D01*
X158832700Y-136738200D02*
X158832700Y-146118300D01*
X159284600Y-160790500D02*
X163149000Y-164654900D01*
X158832700Y-146118300D02*
X159284600Y-146570200D01*
X145170000Y-123075500D02*
X158832700Y-136738200D01*
%TO.N,Net-(R4-Pad1)*%
X108699600Y-81025400D02*
X124952500Y-97278300D01*
X124952500Y-97278300D02*
X124952500Y-154398400D01*
X107725000Y-70003900D02*
X107725000Y-70978500D01*
X107725000Y-70978500D02*
X108699600Y-71953100D01*
X108699600Y-71953100D02*
X108699600Y-81025400D01*
X124952500Y-154398400D02*
X135209000Y-164654900D01*
%TO.N,Net-(R5-Pad1)*%
X136290900Y-165144300D02*
X136290900Y-162185400D01*
X132669000Y-164654900D02*
X133774500Y-165760400D01*
X133774500Y-165760400D02*
X135674800Y-165760400D01*
X131035700Y-57139900D02*
X120832600Y-46936800D01*
X136290900Y-162185400D02*
X131035700Y-156930200D01*
X135674800Y-165760400D02*
X136290900Y-165144300D01*
X131035700Y-156930200D02*
X131035700Y-57139900D01*
%TO.N,Net-(R6-Pad1)*%
X136255800Y-96603100D02*
X136255800Y-153448100D01*
X136255800Y-153448100D02*
X132669000Y-157034900D01*
X153159300Y-39396900D02*
X153159300Y-79699600D01*
X153159300Y-79699600D02*
X136255800Y-96603100D01*
%TO.N,Net-(R7-Pad1)*%
X137551300Y-97924300D02*
X137551300Y-154692600D01*
X137551300Y-154692600D02*
X135209000Y-157034900D01*
X182853100Y-52622500D02*
X137551300Y-97924300D01*
%TO.N,Net-(R8-Pad1)*%
X138474200Y-112756800D02*
X138474200Y-156309700D01*
X138474200Y-156309700D02*
X137749000Y-157034900D01*
X176504700Y-74726300D02*
X138474200Y-112756800D01*
X190529000Y-78385900D02*
X189554400Y-78385900D01*
X189554400Y-78385900D02*
X185894800Y-74726300D01*
X185894800Y-74726300D02*
X176504700Y-74726300D01*
%TO.N,Net-(R9-Pad1)*%
X139080800Y-155826700D02*
X139080800Y-149168300D01*
X140289000Y-157034900D02*
X139080800Y-155826700D01*
X139080800Y-149168300D02*
X145623700Y-142625400D01*
%TO.N,Net-(R11-Pad1)*%
X145929000Y-147753300D02*
X145242000Y-148440300D01*
X145242000Y-149414900D02*
X145242000Y-148440300D01*
X145929000Y-144044900D02*
X145929000Y-147753300D01*
%TO.N,Net-(S1-Pad4)*%
X154443500Y-146059400D02*
X152429000Y-144044900D01*
X155529000Y-164654900D02*
X154443500Y-163569400D01*
X154443500Y-163569400D02*
X154443500Y-146059400D01*
%TO.N,Net-(B1-Pad2)*%
X159397100Y-93725600D02*
X159397100Y-145720900D01*
X161065000Y-92057700D02*
X159397100Y-93725600D01*
X159397100Y-145720900D02*
X160528000Y-146851800D01*
X160528000Y-146851800D02*
X160528000Y-147256000D01*
%TO.N,Net-(C1-Pad1)*%
X134527000Y-140586200D02*
X135514300Y-141573500D01*
X134527000Y-139598900D02*
X134527000Y-140586200D01*
X135514300Y-151171600D02*
X135087000Y-151598900D01*
X135514300Y-141573500D02*
X135514300Y-151171600D01*
%TO.N,Net-(C2-Pad2)*%
X141559000Y-160844900D02*
X141559000Y-153190900D01*
X145369000Y-164654900D02*
X141559000Y-160844900D01*
X141559000Y-153190900D02*
X139967000Y-151598900D01*
%TO.N,Net-(S1-Pad1)*%
X149179000Y-143875800D02*
X145929000Y-140625800D01*
X145929000Y-139544900D02*
X145929000Y-140625800D01*
X149179000Y-163384900D02*
X149179000Y-143875800D01*
X150449000Y-164654900D02*
X149179000Y-163384900D01*
%TD*%
M02*
