%TF.GenerationSoftware,KiCad,Pcbnew,7.0.8*%
%TF.CreationDate,2023-11-15T11:24:06+01:00*%
%TF.ProjectId,ATMegaSpin,41544d65-6761-4537-9069-6e2e6b696361,rev?*%
%TF.SameCoordinates,Original*%
%TF.FileFunction,Legend,Bot*%
%TF.FilePolarity,Positive*%
%FSLAX46Y46*%
G04 Gerber Fmt 4.6, Leading zero omitted, Abs format (unit mm)*
G04 Created by KiCad (PCBNEW 7.0.8) date 2023-11-15 11:24:06*
%MOMM*%
%LPD*%
G01*
G04 APERTURE LIST*
%ADD10C,0.150000*%
%ADD11C,0.127000*%
%ADD12C,0.152400*%
%ADD13C,0.200000*%
G04 APERTURE END LIST*
D10*
X93073661Y-143340683D02*
X93073661Y-143817259D01*
X93407264Y-142816448D02*
X93073661Y-143340683D01*
X93073661Y-143340683D02*
X92740057Y-142816448D01*
X91882219Y-143817259D02*
X92454111Y-143817259D01*
X92168165Y-143817259D02*
X92168165Y-142816448D01*
X92168165Y-142816448D02*
X92263480Y-142959421D01*
X92263480Y-142959421D02*
X92358796Y-143054737D01*
X92358796Y-143054737D02*
X92454111Y-143102394D01*
X85916666Y-140359580D02*
X85964285Y-140407200D01*
X85964285Y-140407200D02*
X86107142Y-140454819D01*
X86107142Y-140454819D02*
X86202380Y-140454819D01*
X86202380Y-140454819D02*
X86345237Y-140407200D01*
X86345237Y-140407200D02*
X86440475Y-140311961D01*
X86440475Y-140311961D02*
X86488094Y-140216723D01*
X86488094Y-140216723D02*
X86535713Y-140026247D01*
X86535713Y-140026247D02*
X86535713Y-139883390D01*
X86535713Y-139883390D02*
X86488094Y-139692914D01*
X86488094Y-139692914D02*
X86440475Y-139597676D01*
X86440475Y-139597676D02*
X86345237Y-139502438D01*
X86345237Y-139502438D02*
X86202380Y-139454819D01*
X86202380Y-139454819D02*
X86107142Y-139454819D01*
X86107142Y-139454819D02*
X85964285Y-139502438D01*
X85964285Y-139502438D02*
X85916666Y-139550057D01*
X85535713Y-139550057D02*
X85488094Y-139502438D01*
X85488094Y-139502438D02*
X85392856Y-139454819D01*
X85392856Y-139454819D02*
X85154761Y-139454819D01*
X85154761Y-139454819D02*
X85059523Y-139502438D01*
X85059523Y-139502438D02*
X85011904Y-139550057D01*
X85011904Y-139550057D02*
X84964285Y-139645295D01*
X84964285Y-139645295D02*
X84964285Y-139740533D01*
X84964285Y-139740533D02*
X85011904Y-139883390D01*
X85011904Y-139883390D02*
X85583332Y-140454819D01*
X85583332Y-140454819D02*
X84964285Y-140454819D01*
X85916666Y-135359580D02*
X85964285Y-135407200D01*
X85964285Y-135407200D02*
X86107142Y-135454819D01*
X86107142Y-135454819D02*
X86202380Y-135454819D01*
X86202380Y-135454819D02*
X86345237Y-135407200D01*
X86345237Y-135407200D02*
X86440475Y-135311961D01*
X86440475Y-135311961D02*
X86488094Y-135216723D01*
X86488094Y-135216723D02*
X86535713Y-135026247D01*
X86535713Y-135026247D02*
X86535713Y-134883390D01*
X86535713Y-134883390D02*
X86488094Y-134692914D01*
X86488094Y-134692914D02*
X86440475Y-134597676D01*
X86440475Y-134597676D02*
X86345237Y-134502438D01*
X86345237Y-134502438D02*
X86202380Y-134454819D01*
X86202380Y-134454819D02*
X86107142Y-134454819D01*
X86107142Y-134454819D02*
X85964285Y-134502438D01*
X85964285Y-134502438D02*
X85916666Y-134550057D01*
X84964285Y-135454819D02*
X85535713Y-135454819D01*
X85249999Y-135454819D02*
X85249999Y-134454819D01*
X85249999Y-134454819D02*
X85345237Y-134597676D01*
X85345237Y-134597676D02*
X85440475Y-134692914D01*
X85440475Y-134692914D02*
X85535713Y-134740533D01*
X90066761Y-75115009D02*
X89923904Y-75162628D01*
X89923904Y-75162628D02*
X89876285Y-75210247D01*
X89876285Y-75210247D02*
X89828666Y-75305485D01*
X89828666Y-75305485D02*
X89828666Y-75448342D01*
X89828666Y-75448342D02*
X89876285Y-75543580D01*
X89876285Y-75543580D02*
X89923904Y-75591200D01*
X89923904Y-75591200D02*
X90019142Y-75638819D01*
X90019142Y-75638819D02*
X90400094Y-75638819D01*
X90400094Y-75638819D02*
X90400094Y-74638819D01*
X90400094Y-74638819D02*
X90066761Y-74638819D01*
X90066761Y-74638819D02*
X89971523Y-74686438D01*
X89971523Y-74686438D02*
X89923904Y-74734057D01*
X89923904Y-74734057D02*
X89876285Y-74829295D01*
X89876285Y-74829295D02*
X89876285Y-74924533D01*
X89876285Y-74924533D02*
X89923904Y-75019771D01*
X89923904Y-75019771D02*
X89971523Y-75067390D01*
X89971523Y-75067390D02*
X90066761Y-75115009D01*
X90066761Y-75115009D02*
X90400094Y-75115009D01*
X89447713Y-74734057D02*
X89400094Y-74686438D01*
X89400094Y-74686438D02*
X89304856Y-74638819D01*
X89304856Y-74638819D02*
X89066761Y-74638819D01*
X89066761Y-74638819D02*
X88971523Y-74686438D01*
X88971523Y-74686438D02*
X88923904Y-74734057D01*
X88923904Y-74734057D02*
X88876285Y-74829295D01*
X88876285Y-74829295D02*
X88876285Y-74924533D01*
X88876285Y-74924533D02*
X88923904Y-75067390D01*
X88923904Y-75067390D02*
X89495332Y-75638819D01*
X89495332Y-75638819D02*
X88876285Y-75638819D01*
X113942761Y-75115009D02*
X113799904Y-75162628D01*
X113799904Y-75162628D02*
X113752285Y-75210247D01*
X113752285Y-75210247D02*
X113704666Y-75305485D01*
X113704666Y-75305485D02*
X113704666Y-75448342D01*
X113704666Y-75448342D02*
X113752285Y-75543580D01*
X113752285Y-75543580D02*
X113799904Y-75591200D01*
X113799904Y-75591200D02*
X113895142Y-75638819D01*
X113895142Y-75638819D02*
X114276094Y-75638819D01*
X114276094Y-75638819D02*
X114276094Y-74638819D01*
X114276094Y-74638819D02*
X113942761Y-74638819D01*
X113942761Y-74638819D02*
X113847523Y-74686438D01*
X113847523Y-74686438D02*
X113799904Y-74734057D01*
X113799904Y-74734057D02*
X113752285Y-74829295D01*
X113752285Y-74829295D02*
X113752285Y-74924533D01*
X113752285Y-74924533D02*
X113799904Y-75019771D01*
X113799904Y-75019771D02*
X113847523Y-75067390D01*
X113847523Y-75067390D02*
X113942761Y-75115009D01*
X113942761Y-75115009D02*
X114276094Y-75115009D01*
X112752285Y-75638819D02*
X113323713Y-75638819D01*
X113037999Y-75638819D02*
X113037999Y-74638819D01*
X113037999Y-74638819D02*
X113133237Y-74781676D01*
X113133237Y-74781676D02*
X113228475Y-74876914D01*
X113228475Y-74876914D02*
X113323713Y-74924533D01*
X119841819Y-157661476D02*
X120841819Y-158328142D01*
X119841819Y-158328142D02*
X120841819Y-157661476D01*
X120841819Y-159232904D02*
X120841819Y-158661476D01*
X120841819Y-158947190D02*
X119841819Y-158947190D01*
X119841819Y-158947190D02*
X119984676Y-158851952D01*
X119984676Y-158851952D02*
X120079914Y-158756714D01*
X120079914Y-158756714D02*
X120127533Y-158661476D01*
D11*
%TO.C,Y1*%
X85595000Y-144670000D02*
G75*
G03*
X84325000Y-145990000I25000J-1295000D01*
G01*
X94405000Y-144670000D02*
X85595000Y-144670000D01*
X95675000Y-145990000D02*
G75*
G03*
X94405000Y-144670000I-1295000J25000D01*
G01*
X95675000Y-148010000D02*
X95675000Y-145990000D01*
X94405000Y-149330000D02*
G75*
G03*
X95675000Y-148010000I-25000J1295000D01*
G01*
X85595000Y-149330000D02*
X94405000Y-149330000D01*
X84325000Y-148010000D02*
G75*
G03*
X85595000Y-149330000I1295000J-25000D01*
G01*
X84325000Y-145990000D02*
X84325000Y-148010000D01*
D12*
%TO.C,C2*%
X83629100Y-140477347D02*
X83629100Y-141422400D01*
X87870900Y-140918093D02*
X87870900Y-141422400D01*
X87870900Y-138577600D02*
X87870900Y-139081907D01*
X83629100Y-138577600D02*
X83629100Y-139522653D01*
X83629100Y-141422400D02*
X87870900Y-141422400D01*
X83629100Y-138577600D02*
X87870900Y-138577600D01*
X88709100Y-140000000D02*
G75*
G03*
X88709100Y-140000000I-76200J0D01*
G01*
%TO.C,C1*%
X83629100Y-135477347D02*
X83629100Y-136422400D01*
X87870900Y-135918093D02*
X87870900Y-136422400D01*
X87870900Y-133577600D02*
X87870900Y-134081907D01*
X83629100Y-133577600D02*
X83629100Y-134522653D01*
X83629100Y-136422400D02*
X87870900Y-136422400D01*
X83629100Y-133577600D02*
X87870900Y-133577600D01*
X88709100Y-135000000D02*
G75*
G03*
X88709100Y-135000000I-76200J0D01*
G01*
%TO.C,B2*%
X90754168Y-86689278D02*
G75*
G03*
X78105000Y-75184000I-1092168J11505278D01*
G01*
X93789500Y-85752825D02*
X93789500Y-88773000D01*
X93789500Y-88773000D02*
X89902585Y-88773000D01*
X85534500Y-88773000D02*
X85534500Y-85752825D01*
X78105000Y-75184006D02*
G75*
G03*
X88569832Y-86689278I11557000J6D01*
G01*
X89421415Y-88773000D02*
X85534500Y-88773000D01*
%TO.C,B1*%
X113297415Y-88773000D02*
X109410500Y-88773000D01*
X101981000Y-75184006D02*
G75*
G03*
X112445832Y-86689278I11557000J6D01*
G01*
X109410500Y-88773000D02*
X109410500Y-85752825D01*
X117665500Y-88773000D02*
X113778585Y-88773000D01*
X117665500Y-85752825D02*
X117665500Y-88773000D01*
X114630168Y-86689278D02*
G75*
G03*
X101981000Y-75184000I-1092168J11505278D01*
G01*
D11*
%TO.C,X1*%
X83872000Y-161326000D02*
X119432000Y-161326000D01*
X119432000Y-161326000D02*
X119432000Y-151166000D01*
X83872000Y-151166000D02*
X83872000Y-161326000D01*
X119432000Y-151166000D02*
X83872000Y-151166000D01*
D13*
X118252000Y-162246000D02*
G75*
G03*
X118252000Y-162246000I-100000J0D01*
G01*
%TD*%
M02*
