%TF.GenerationSoftware,KiCad,Pcbnew,7.0.8*%
%TF.CreationDate,2023-11-15T15:43:31+01:00*%
%TF.ProjectId,ATMegaSpin,41544d65-6761-4537-9069-6e2e6b696361,rev?*%
%TF.SameCoordinates,Original*%
%TF.FileFunction,Legend,Bot*%
%TF.FilePolarity,Positive*%
%FSLAX46Y46*%
G04 Gerber Fmt 4.6, Leading zero omitted, Abs format (unit mm)*
G04 Created by KiCad (PCBNEW 7.0.8) date 2023-11-15 15:43:31*
%MOMM*%
%LPD*%
G01*
G04 APERTURE LIST*
%ADD10C,0.150000*%
%ADD11C,0.508000*%
%ADD12C,0.152400*%
%ADD13C,0.127000*%
%ADD14C,0.200000*%
G04 APERTURE END LIST*
D10*
X161469761Y-79713909D02*
X161326904Y-79761528D01*
X161326904Y-79761528D02*
X161279285Y-79809147D01*
X161279285Y-79809147D02*
X161231666Y-79904385D01*
X161231666Y-79904385D02*
X161231666Y-80047242D01*
X161231666Y-80047242D02*
X161279285Y-80142480D01*
X161279285Y-80142480D02*
X161326904Y-80190100D01*
X161326904Y-80190100D02*
X161422142Y-80237719D01*
X161422142Y-80237719D02*
X161803094Y-80237719D01*
X161803094Y-80237719D02*
X161803094Y-79237719D01*
X161803094Y-79237719D02*
X161469761Y-79237719D01*
X161469761Y-79237719D02*
X161374523Y-79285338D01*
X161374523Y-79285338D02*
X161326904Y-79332957D01*
X161326904Y-79332957D02*
X161279285Y-79428195D01*
X161279285Y-79428195D02*
X161279285Y-79523433D01*
X161279285Y-79523433D02*
X161326904Y-79618671D01*
X161326904Y-79618671D02*
X161374523Y-79666290D01*
X161374523Y-79666290D02*
X161469761Y-79713909D01*
X161469761Y-79713909D02*
X161803094Y-79713909D01*
X160279285Y-80237719D02*
X160850713Y-80237719D01*
X160564999Y-80237719D02*
X160564999Y-79237719D01*
X160564999Y-79237719D02*
X160660237Y-79380576D01*
X160660237Y-79380576D02*
X160755475Y-79475814D01*
X160755475Y-79475814D02*
X160850713Y-79523433D01*
X140600661Y-147939583D02*
X140600661Y-148416159D01*
X140934264Y-147415348D02*
X140600661Y-147939583D01*
X140600661Y-147939583D02*
X140267057Y-147415348D01*
X139409219Y-148416159D02*
X139981111Y-148416159D01*
X139695165Y-148416159D02*
X139695165Y-147415348D01*
X139695165Y-147415348D02*
X139790480Y-147558321D01*
X139790480Y-147558321D02*
X139885796Y-147653637D01*
X139885796Y-147653637D02*
X139981111Y-147701294D01*
X167368819Y-162260376D02*
X168368819Y-162927042D01*
X167368819Y-162927042D02*
X168368819Y-162260376D01*
X168368819Y-163831804D02*
X168368819Y-163260376D01*
X168368819Y-163546090D02*
X167368819Y-163546090D01*
X167368819Y-163546090D02*
X167511676Y-163450852D01*
X167511676Y-163450852D02*
X167606914Y-163355614D01*
X167606914Y-163355614D02*
X167654533Y-163260376D01*
X133443666Y-139958480D02*
X133491285Y-140006100D01*
X133491285Y-140006100D02*
X133634142Y-140053719D01*
X133634142Y-140053719D02*
X133729380Y-140053719D01*
X133729380Y-140053719D02*
X133872237Y-140006100D01*
X133872237Y-140006100D02*
X133967475Y-139910861D01*
X133967475Y-139910861D02*
X134015094Y-139815623D01*
X134015094Y-139815623D02*
X134062713Y-139625147D01*
X134062713Y-139625147D02*
X134062713Y-139482290D01*
X134062713Y-139482290D02*
X134015094Y-139291814D01*
X134015094Y-139291814D02*
X133967475Y-139196576D01*
X133967475Y-139196576D02*
X133872237Y-139101338D01*
X133872237Y-139101338D02*
X133729380Y-139053719D01*
X133729380Y-139053719D02*
X133634142Y-139053719D01*
X133634142Y-139053719D02*
X133491285Y-139101338D01*
X133491285Y-139101338D02*
X133443666Y-139148957D01*
X132491285Y-140053719D02*
X133062713Y-140053719D01*
X132776999Y-140053719D02*
X132776999Y-139053719D01*
X132776999Y-139053719D02*
X132872237Y-139196576D01*
X132872237Y-139196576D02*
X132967475Y-139291814D01*
X132967475Y-139291814D02*
X133062713Y-139339433D01*
X133443666Y-144958480D02*
X133491285Y-145006100D01*
X133491285Y-145006100D02*
X133634142Y-145053719D01*
X133634142Y-145053719D02*
X133729380Y-145053719D01*
X133729380Y-145053719D02*
X133872237Y-145006100D01*
X133872237Y-145006100D02*
X133967475Y-144910861D01*
X133967475Y-144910861D02*
X134015094Y-144815623D01*
X134015094Y-144815623D02*
X134062713Y-144625147D01*
X134062713Y-144625147D02*
X134062713Y-144482290D01*
X134062713Y-144482290D02*
X134015094Y-144291814D01*
X134015094Y-144291814D02*
X133967475Y-144196576D01*
X133967475Y-144196576D02*
X133872237Y-144101338D01*
X133872237Y-144101338D02*
X133729380Y-144053719D01*
X133729380Y-144053719D02*
X133634142Y-144053719D01*
X133634142Y-144053719D02*
X133491285Y-144101338D01*
X133491285Y-144101338D02*
X133443666Y-144148957D01*
X133062713Y-144148957D02*
X133015094Y-144101338D01*
X133015094Y-144101338D02*
X132919856Y-144053719D01*
X132919856Y-144053719D02*
X132681761Y-144053719D01*
X132681761Y-144053719D02*
X132586523Y-144101338D01*
X132586523Y-144101338D02*
X132538904Y-144148957D01*
X132538904Y-144148957D02*
X132491285Y-144244195D01*
X132491285Y-144244195D02*
X132491285Y-144339433D01*
X132491285Y-144339433D02*
X132538904Y-144482290D01*
X132538904Y-144482290D02*
X133110332Y-145053719D01*
X133110332Y-145053719D02*
X132491285Y-145053719D01*
X137593761Y-79713909D02*
X137450904Y-79761528D01*
X137450904Y-79761528D02*
X137403285Y-79809147D01*
X137403285Y-79809147D02*
X137355666Y-79904385D01*
X137355666Y-79904385D02*
X137355666Y-80047242D01*
X137355666Y-80047242D02*
X137403285Y-80142480D01*
X137403285Y-80142480D02*
X137450904Y-80190100D01*
X137450904Y-80190100D02*
X137546142Y-80237719D01*
X137546142Y-80237719D02*
X137927094Y-80237719D01*
X137927094Y-80237719D02*
X137927094Y-79237719D01*
X137927094Y-79237719D02*
X137593761Y-79237719D01*
X137593761Y-79237719D02*
X137498523Y-79285338D01*
X137498523Y-79285338D02*
X137450904Y-79332957D01*
X137450904Y-79332957D02*
X137403285Y-79428195D01*
X137403285Y-79428195D02*
X137403285Y-79523433D01*
X137403285Y-79523433D02*
X137450904Y-79618671D01*
X137450904Y-79618671D02*
X137498523Y-79666290D01*
X137498523Y-79666290D02*
X137593761Y-79713909D01*
X137593761Y-79713909D02*
X137927094Y-79713909D01*
X136974713Y-79332957D02*
X136927094Y-79285338D01*
X136927094Y-79285338D02*
X136831856Y-79237719D01*
X136831856Y-79237719D02*
X136593761Y-79237719D01*
X136593761Y-79237719D02*
X136498523Y-79285338D01*
X136498523Y-79285338D02*
X136450904Y-79332957D01*
X136450904Y-79332957D02*
X136403285Y-79428195D01*
X136403285Y-79428195D02*
X136403285Y-79523433D01*
X136403285Y-79523433D02*
X136450904Y-79666290D01*
X136450904Y-79666290D02*
X137022332Y-80237719D01*
X137022332Y-80237719D02*
X136403285Y-80237719D01*
D11*
%TO.C,SW1*%
X160909000Y-152164800D02*
G75*
G03*
X160909000Y-152164800I-381000J0D01*
G01*
D12*
%TO.C,B1*%
X165192500Y-93371900D02*
X161305585Y-93371900D01*
X165192500Y-90351725D02*
X165192500Y-93371900D01*
X160824415Y-93371900D02*
X156937500Y-93371900D01*
X156937500Y-93371900D02*
X156937500Y-90351725D01*
X149508000Y-79782906D02*
G75*
G03*
X159972832Y-91288178I11557000J6D01*
G01*
X162157168Y-91288178D02*
G75*
G03*
X149508000Y-79782900I-1092168J11505278D01*
G01*
D13*
%TO.C,Y1*%
X143202000Y-152608900D02*
X143202000Y-150588900D01*
X141932000Y-149268900D02*
X133122000Y-149268900D01*
X133122000Y-153928900D02*
X141932000Y-153928900D01*
X131852000Y-150588900D02*
X131852000Y-152608900D01*
X141932000Y-153928900D02*
G75*
G03*
X143202000Y-152608900I-24999J1294999D01*
G01*
X143202000Y-150588900D02*
G75*
G03*
X141932000Y-149268900I-1294999J25001D01*
G01*
X131852000Y-152608900D02*
G75*
G03*
X133122000Y-153928900I1295000J-25000D01*
G01*
X133122000Y-149268900D02*
G75*
G03*
X131852000Y-150588900I25000J-1295000D01*
G01*
%TO.C,X1*%
X131399000Y-165924900D02*
X166959000Y-165924900D01*
X166959000Y-165924900D02*
X166959000Y-155764900D01*
X131399000Y-155764900D02*
X131399000Y-165924900D01*
X166959000Y-155764900D02*
X131399000Y-155764900D01*
D14*
X165779000Y-166844900D02*
G75*
G03*
X165779000Y-166844900I-100000J0D01*
G01*
D12*
%TO.C,C1*%
X135397900Y-140516993D02*
X135397900Y-141021300D01*
X135397900Y-138176500D02*
X135397900Y-138680807D01*
X131156100Y-141021300D02*
X135397900Y-141021300D01*
X131156100Y-140076247D02*
X131156100Y-141021300D01*
X131156100Y-138176500D02*
X135397900Y-138176500D01*
X131156100Y-138176500D02*
X131156100Y-139121553D01*
X136236100Y-139598900D02*
G75*
G03*
X136236100Y-139598900I-76200J0D01*
G01*
%TO.C,C2*%
X135397900Y-145516993D02*
X135397900Y-146021300D01*
X135397900Y-143176500D02*
X135397900Y-143680807D01*
X131156100Y-146021300D02*
X135397900Y-146021300D01*
X131156100Y-145076247D02*
X131156100Y-146021300D01*
X131156100Y-143176500D02*
X135397900Y-143176500D01*
X131156100Y-143176500D02*
X131156100Y-144121553D01*
X136236100Y-144598900D02*
G75*
G03*
X136236100Y-144598900I-76200J0D01*
G01*
%TO.C,B2*%
X141316500Y-93371900D02*
X137429585Y-93371900D01*
X141316500Y-90351725D02*
X141316500Y-93371900D01*
X136948415Y-93371900D02*
X133061500Y-93371900D01*
X133061500Y-93371900D02*
X133061500Y-90351725D01*
X125632000Y-79782906D02*
G75*
G03*
X136096832Y-91288178I11557000J6D01*
G01*
X138281168Y-91288178D02*
G75*
G03*
X125632000Y-79782900I-1092168J11505278D01*
G01*
%TD*%
M02*
