%TF.GenerationSoftware,KiCad,Pcbnew,7.0.8*%
%TF.CreationDate,2023-11-15T11:24:06+01:00*%
%TF.ProjectId,ATMegaSpin,41544d65-6761-4537-9069-6e2e6b696361,rev?*%
%TF.SameCoordinates,Original*%
%TF.FileFunction,Soldermask,Top*%
%TF.FilePolarity,Negative*%
%FSLAX46Y46*%
G04 Gerber Fmt 4.6, Leading zero omitted, Abs format (unit mm)*
G04 Created by KiCad (PCBNEW 7.0.8) date 2023-11-15 11:24:06*
%MOMM*%
%LPD*%
G01*
G04 APERTURE LIST*
G04 Aperture macros list*
%AMRoundRect*
0 Rectangle with rounded corners*
0 $1 Rounding radius*
0 $2 $3 $4 $5 $6 $7 $8 $9 X,Y pos of 4 corners*
0 Add a 4 corners polygon primitive as box body*
4,1,4,$2,$3,$4,$5,$6,$7,$8,$9,$2,$3,0*
0 Add four circle primitives for the rounded corners*
1,1,$1+$1,$2,$3*
1,1,$1+$1,$4,$5*
1,1,$1+$1,$6,$7*
1,1,$1+$1,$8,$9*
0 Add four rect primitives between the rounded corners*
20,1,$1+$1,$2,$3,$4,$5,0*
20,1,$1+$1,$4,$5,$6,$7,0*
20,1,$1+$1,$6,$7,$8,$9,0*
20,1,$1+$1,$8,$9,$2,$3,0*%
%AMRotRect*
0 Rectangle, with rotation*
0 The origin of the aperture is its center*
0 $1 length*
0 $2 width*
0 $3 Rotation angle, in degrees counterclockwise*
0 Add horizontal line*
21,1,$1,$2,0,0,$3*%
G04 Aperture macros list end*
%ADD10C,2.200000*%
%ADD11C,1.234000*%
%ADD12C,1.320800*%
%ADD13R,1.320800X1.320800*%
%ADD14C,1.676400*%
%ADD15C,2.006600*%
%ADD16C,1.295400*%
%ADD17RotRect,1.295400X1.295400X225.000000*%
%ADD18R,1.295400X1.295400*%
%ADD19RotRect,1.320800X1.320800X315.000000*%
%ADD20RoundRect,0.102000X-0.754000X-0.754000X0.754000X-0.754000X0.754000X0.754000X-0.754000X0.754000X0*%
%ADD21C,1.712000*%
%ADD22RotRect,1.320800X1.320800X135.000000*%
%ADD23RotRect,1.295400X1.295400X315.000000*%
%ADD24RotRect,1.320800X1.320800X45.000000*%
%ADD25RotRect,1.320800X1.320800X225.000000*%
%ADD26RotRect,1.295400X1.295400X45.000000*%
%ADD27RotRect,1.295400X1.295400X135.000000*%
%ADD28RoundRect,0.102000X0.754000X-0.754000X0.754000X0.754000X-0.754000X0.754000X-0.754000X-0.754000X0*%
G04 APERTURE END LIST*
D10*
%TO.C,REF\u002A\u002A*%
X101600000Y-58420000D03*
%TD*%
%TO.C,REF\u002A\u002A*%
X101600000Y-127000000D03*
%TD*%
D11*
%TO.C,Y1*%
X87560000Y-147000000D03*
X92440000Y-147000000D03*
%TD*%
D12*
%TO.C,C2*%
X84500000Y-140000000D03*
D13*
X87000000Y-140000000D03*
%TD*%
D12*
%TO.C,C1*%
X84500000Y-135000000D03*
D13*
X87000000Y-135000000D03*
%TD*%
D14*
%TO.C,B2*%
X89662000Y-67469000D03*
D15*
X89662000Y-87458800D03*
%TD*%
%TO.C,B1*%
X113538000Y-87458800D03*
D14*
X113538000Y-67469000D03*
%TD*%
D16*
%TO.C,R5*%
X67737841Y-47905659D03*
D17*
X73305600Y-42337900D03*
%TD*%
D18*
%TO.C,R11*%
X97715000Y-144816000D03*
D16*
X105589000Y-144816000D03*
%TD*%
D12*
%TO.C,LED2*%
X80517951Y-99059951D03*
D19*
X78721900Y-97263900D03*
%TD*%
D18*
%TO.C,R8*%
X143002000Y-73787000D03*
D16*
X143002000Y-65913000D03*
%TD*%
D13*
%TO.C,LED9*%
X130302000Y-83820000D03*
D12*
X130302000Y-81280000D03*
%TD*%
D18*
%TO.C,R6*%
X105632300Y-34798000D03*
D16*
X97758300Y-34798000D03*
%TD*%
D20*
%TO.C,S1*%
X98402000Y-134946000D03*
D21*
X104902000Y-134946000D03*
X98402000Y-139446000D03*
X104902000Y-139446000D03*
%TD*%
D18*
%TO.C,R9*%
X143002000Y-85217000D03*
D16*
X143002000Y-77343000D03*
%TD*%
%TO.C,R1*%
X105517000Y-117502000D03*
D18*
X97643000Y-117502000D03*
%TD*%
D12*
%TO.C,LED7*%
X122663949Y-53321949D03*
D22*
X124460000Y-55118000D03*
%TD*%
D16*
%TO.C,R3*%
X60198000Y-85979000D03*
D18*
X60198000Y-78105000D03*
%TD*%
D16*
%TO.C,R2*%
X73423559Y-109926159D03*
D23*
X67855800Y-104358400D03*
%TD*%
D12*
%TO.C,LED10*%
X124478051Y-97517949D03*
D24*
X122682000Y-99314000D03*
%TD*%
D12*
%TO.C,LED3*%
X72898000Y-83312000D03*
D13*
X72898000Y-80772000D03*
%TD*%
D16*
%TO.C,R4*%
X60198000Y-73279000D03*
D18*
X60198000Y-65405000D03*
%TD*%
D12*
%TO.C,LED5*%
X78603949Y-55000051D03*
D25*
X80400000Y-53204000D03*
%TD*%
D13*
%TO.C,LED1*%
X100330000Y-104902000D03*
D12*
X102870000Y-104902000D03*
%TD*%
D13*
%TO.C,LED8*%
X130302000Y-71120000D03*
D12*
X130302000Y-68580000D03*
%TD*%
D16*
%TO.C,R10*%
X135344159Y-104612341D03*
D26*
X129776400Y-110180100D03*
%TD*%
D16*
%TO.C,R7*%
X129758341Y-42455841D03*
D27*
X135326100Y-48023600D03*
%TD*%
D12*
%TO.C,LED4*%
X72898000Y-70612000D03*
D13*
X72898000Y-68072000D03*
%TD*%
%TO.C,LED6*%
X102965300Y-47498000D03*
D12*
X100425300Y-47498000D03*
%TD*%
D28*
%TO.C,X1*%
X118162000Y-160056000D03*
D21*
X115622000Y-160056000D03*
X113082000Y-160056000D03*
X110542000Y-160056000D03*
X108002000Y-160056000D03*
X105462000Y-160056000D03*
X102922000Y-160056000D03*
X100382000Y-160056000D03*
X97842000Y-160056000D03*
X95302000Y-160056000D03*
X92762000Y-160056000D03*
X90222000Y-160056000D03*
X87682000Y-160056000D03*
X85142000Y-160056000D03*
X85142000Y-152436000D03*
X87682000Y-152436000D03*
X90222000Y-152436000D03*
X92762000Y-152436000D03*
X95302000Y-152436000D03*
X97842000Y-152436000D03*
X100382000Y-152436000D03*
X102922000Y-152436000D03*
X105462000Y-152436000D03*
X108002000Y-152436000D03*
X110542000Y-152436000D03*
X113082000Y-152436000D03*
X115622000Y-152436000D03*
X118162000Y-152436000D03*
%TD*%
M02*
