M48
; DRILL file {KiCad 7.0.8} date Wed Nov 15 11:24:12 2023
; FORMAT={-:-/ absolute / inch / decimal}
; #@! TF.CreationDate,2023-11-15T11:24:12+01:00
; #@! TF.GenerationSoftware,Kicad,Pcbnew,7.0.8
; #@! TF.FileFunction,Plated,1,2,PTH
FMAT,2
INCH
; #@! TA.AperFunction,Plated,PTH,ComponentDrill
T1C0.0248
; #@! TA.AperFunction,Plated,PTH,ComponentDrill
T2C0.0310
; #@! TA.AperFunction,Plated,PTH,ComponentDrill
T3C0.0320
; #@! TA.AperFunction,Plated,PTH,ComponentDrill
T4C0.0394
; #@! TA.AperFunction,Plated,PTH,ComponentDrill
T5C0.0460
; #@! TA.AperFunction,Plated,PTH,ComponentDrill
T6C0.0590
%
G90
G05
T1
X3.4472Y-5.7874
X3.6394Y-5.7874
T2
X2.37Y-2.575
X2.37Y-2.885
X2.37Y-3.075
X2.37Y-3.385
X2.6668Y-1.886
X2.6715Y-4.1086
X2.886Y-1.6668
X2.8907Y-4.3278
X3.8442Y-4.6261
X3.847Y-5.7014
X3.8488Y-1.37
X4.1542Y-4.6261
X4.157Y-5.7014
X4.1588Y-1.37
X5.1086Y-1.6715
X5.1093Y-4.3378
X5.3278Y-1.8907
X5.3285Y-4.1186
X5.63Y-2.595
X5.63Y-2.905
X5.63Y-3.045
X5.63Y-3.355
T3
X2.87Y-2.68
X2.87Y-2.78
X2.87Y-3.18
X2.87Y-3.28
X3.0946Y-2.1654
X3.0993Y-3.8293
X3.1654Y-2.0946
X3.17Y-3.9
X3.3268Y-5.315
X3.3268Y-5.5118
X3.4252Y-5.315
X3.4252Y-5.5118
X3.95Y-4.13
X3.9538Y-1.87
X4.05Y-4.13
X4.0538Y-1.87
X4.8293Y-2.0993
X4.83Y-3.91
X4.9Y-2.17
X4.9007Y-3.8393
X5.13Y-2.7
X5.13Y-2.8
X5.13Y-3.2
X5.13Y-3.3
T4
X3.352Y-6.0014
X3.352Y-6.3014
X3.452Y-6.0014
X3.452Y-6.3014
X3.552Y-6.0014
X3.552Y-6.3014
X3.652Y-6.0014
X3.652Y-6.3014
X3.752Y-6.0014
X3.752Y-6.3014
X3.852Y-6.0014
X3.852Y-6.3014
X3.8741Y-5.3128
X3.8741Y-5.49
X3.952Y-6.0014
X3.952Y-6.3014
X4.052Y-6.0014
X4.052Y-6.3014
X4.13Y-5.3128
X4.13Y-5.49
X4.152Y-6.0014
X4.152Y-6.3014
X4.252Y-6.0014
X4.252Y-6.3014
X4.352Y-6.0014
X4.352Y-6.3014
X4.452Y-6.0014
X4.452Y-6.3014
X4.552Y-6.0014
X4.552Y-6.3014
X4.652Y-6.0014
X4.652Y-6.3014
T5
X3.53Y-2.6563
X4.47Y-2.6563
T6
X3.53Y-3.4433
X4.47Y-3.4433
T0
M30
